<?xml version="1.0" encoding="utf-8"?>
<!-- Generator: Adobe Illustrator 27.5.0, SVG Export Plug-In . SVG Version: 6.00 Build 0)  -->
<svg version="1.1" xmlns="http://www.w3.org/2000/svg" xmlns:xlink="http://www.w3.org/1999/xlink" x="0px" y="0px"
	 viewBox="0 0 500 500" style="enable-background:new 0 0 500 500;" xml:space="preserve">
<g id="Background_Complete">
	<g>
		<g>
			<g>
				<g>
					<path style="fill:#EBEBEB;" d="M339.977,153.822c1.761-1.064,3.635-1.871,5.569-2.42l1.147-5.512l9.313-0.163l1.34,5.468
						c1.952,0.481,3.854,1.221,5.651,2.223l4.707-3.085l6.701,6.47l-2.917,4.811c1.065,1.761,1.871,3.637,2.42,5.57l5.512,1.147
						l0.164,9.313l-5.468,1.341c-0.481,1.951-1.221,3.853-2.223,5.65l3.085,4.707l-6.469,6.701l-4.812-2.918
						c-1.761,1.064-3.636,1.871-5.57,2.42l-1.147,5.512l-9.313,0.163l-1.341-5.468c-1.951-0.481-3.853-1.222-5.65-2.223
						l-4.707,3.085l-6.701-6.47l2.917-4.812c-1.064-1.761-1.871-3.636-2.42-5.57l-5.512-1.147l-0.163-9.313l5.468-1.341
						c0.481-1.951,1.222-3.853,2.223-5.65l-3.085-4.707l6.469-6.701L339.977,153.822L339.977,153.822z M344.942,166.229
						c-3.833,3.97-3.722,10.296,0.248,14.129c3.97,3.833,10.296,3.722,14.129-0.249c3.833-3.97,3.722-10.296-0.248-14.129
						C355.1,162.148,348.775,162.259,344.942,166.229z"/>
				</g>
			</g>
		</g>
	</g>
	<g>
		<g>
			<g>
				<g>
					<g>
						<path style="fill:#F5F5F5;" d="M116.432,68.793c1.726-1.043,3.563-1.834,5.458-2.372l1.124-5.403l9.129-0.16l1.314,5.36
							c1.913,0.471,3.777,1.197,5.539,2.179l4.614-3.024l6.568,6.342l-2.86,4.716c1.043,1.727,1.834,3.565,2.372,5.46l5.402,1.124
							l0.16,9.129l-5.36,1.314c-0.471,1.913-1.197,3.777-2.179,5.538l3.024,4.614l-6.341,6.568l-4.717-2.86
							c-1.726,1.043-3.564,1.834-5.459,2.372l-1.125,5.403l-9.128,0.16l-1.314-5.36c-1.913-0.471-3.777-1.197-5.539-2.179
							l-4.614,3.024l-6.568-6.342l2.86-4.716c-1.043-1.727-1.834-3.564-2.372-5.46l-5.403-1.124l-0.16-9.128l5.36-1.314
							c0.471-1.912,1.198-3.777,2.179-5.538l-3.024-4.614l6.341-6.568L116.432,68.793L116.432,68.793z M121.298,80.953
							c-3.757,3.892-3.648,10.092,0.243,13.849c3.892,3.757,10.092,3.648,13.849-0.244c3.757-3.892,3.648-10.092-0.243-13.849
							C131.256,76.953,125.056,77.062,121.298,80.953z"/>
					</g>
				</g>
			</g>
		</g>
		<g>
			<g>
				<g>
					<g>
						<path style="fill:#EBEBEB;" d="M73.105,98.262c1.033-0.624,2.133-1.098,3.268-1.42l0.673-3.234l5.465-0.096l0.786,3.208
							c1.145,0.282,2.261,0.717,3.316,1.305l2.762-1.81l3.932,3.796l-1.712,2.823c0.625,1.034,1.098,2.134,1.42,3.268l3.234,0.673
							l0.096,5.464l-3.208,0.787c-0.282,1.145-0.717,2.261-1.304,3.315l1.81,2.762l-3.796,3.932l-2.823-1.712
							c-1.034,0.624-2.133,1.098-3.268,1.42l-0.673,3.234l-5.464,0.096l-0.787-3.209c-1.145-0.282-2.261-0.717-3.315-1.304
							l-2.762,1.81l-3.932-3.796l1.712-2.823c-0.624-1.033-1.098-2.133-1.42-3.268l-3.234-0.673l-0.096-5.464l3.208-0.787
							c0.282-1.145,0.717-2.261,1.304-3.315l-1.81-2.762l3.796-3.932L73.105,98.262L73.105,98.262z M76.018,105.542
							c-2.249,2.33-2.184,6.041,0.146,8.29c2.329,2.249,6.041,2.184,8.29-0.146c2.249-2.329,2.184-6.041-0.146-8.29
							C81.978,103.147,78.267,103.213,76.018,105.542z"/>
					</g>
				</g>
			</g>
			<g>
				<g>
					<g>
						<g>
							<path style="fill:#EBEBEB;" d="M76.018,105.542c0,0,0.307-0.432,1.092-0.958c0.771-0.513,2.117-1.085,3.825-0.904
								c0.841,0.094,1.761,0.369,2.6,0.924c0.83,0.555,1.613,1.344,2.102,2.369c0.257,0.503,0.436,1.062,0.533,1.646
								c0.105,0.582,0.12,1.195,0.033,1.805c-0.148,1.225-0.728,2.432-1.628,3.38c-0.916,0.933-2.102,1.555-3.322,1.747
								c-0.606,0.109-1.219,0.115-1.805,0.031c-0.587-0.076-1.152-0.235-1.664-0.475c-1.041-0.453-1.858-1.208-2.441-2.018
								c-0.584-0.819-0.89-1.729-1.014-2.566c-0.24-1.7,0.284-3.066,0.77-3.854C75.597,105.864,76.018,105.542,76.018,105.542
								c0.032,0.027-0.354,0.385-0.806,1.19c-0.441,0.791-0.909,2.125-0.648,3.753c0.134,0.802,0.44,1.667,1.007,2.44
								c0.566,0.765,1.35,1.476,2.34,1.897c0.487,0.224,1.023,0.371,1.579,0.44c0.555,0.077,1.135,0.069,1.708-0.037
								c1.153-0.185,2.269-0.774,3.135-1.655c0.85-0.897,1.398-2.033,1.543-3.191c0.085-0.576,0.074-1.156-0.023-1.708
								c-0.088-0.553-0.254-1.084-0.495-1.562c-0.455-0.975-1.194-1.733-1.977-2.272c-0.793-0.539-1.668-0.814-2.474-0.92
								c-1.636-0.204-2.953,0.31-3.728,0.779C76.39,105.175,76.046,105.573,76.018,105.542z"/>
						</g>
					</g>
				</g>
			</g>
			<g>
				<g>
					<g>
						<g>
							<path style="fill:#EBEBEB;" d="M73.105,98.262c0,0.005-0.061-0.027-0.182-0.096c-0.133-0.077-0.311-0.18-0.541-0.313
								c-0.494-0.292-1.205-0.712-2.128-1.257l0.066-0.009c-0.966,1.012-2.237,2.344-3.773,3.954l0.01-0.106
								c0.552,0.835,1.165,1.762,1.821,2.755l0.033,0.049l-0.029,0.053c-0.537,0.972-0.988,2.079-1.283,3.294l-0.016,0.065
								l-0.065,0.016c-0.999,0.248-2.081,0.516-3.206,0.796l0.091-0.118c0.034,1.72,0.07,3.547,0.108,5.464l-0.105-0.127
								c1.002,0.206,2.105,0.434,3.235,0.667l0.082,0.017l0.023,0.081c0.3,1.055,0.77,2.176,1.41,3.231l0.046,0.075l-0.046,0.076
								c-0.529,0.876-1.113,1.842-1.708,2.826l-0.024-0.185c1.236,1.191,2.57,2.475,3.936,3.791l-0.195-0.018
								c0.86-0.565,1.804-1.185,2.76-1.813l0.081-0.053l0.084,0.047c0.964,0.537,2.09,0.996,3.276,1.286l0.095,0.023l0.023,0.096
								c0.247,1.005,0.517,2.101,0.789,3.208l-0.163-0.125c1.73-0.031,3.585-0.064,5.464-0.098l-0.16,0.133
								c0.212-1.022,0.441-2.124,0.672-3.234l0.021-0.1l0.098-0.028c1.076-0.304,2.191-0.775,3.224-1.401l0.003-0.002l0.088-0.052
								l0.086,0.052c0.948,0.575,1.89,1.146,2.823,1.712l-0.208,0.027c1.283-1.328,2.549-2.639,3.797-3.931l-0.02,0.207
								c-0.609-0.93-1.212-1.851-1.809-2.763l-0.055-0.084l0.049-0.087c0.58-1.04,1.012-2.146,1.29-3.274l0.024-0.096l0.096-0.023
								c1.085-0.265,2.154-0.526,3.209-0.784l-0.122,0.158c-0.031-1.865-0.061-3.688-0.09-5.464l0.123,0.149
								c-1.097-0.23-2.174-0.455-3.233-0.677l-0.09-0.019l-0.025-0.088c-0.327-1.159-0.805-2.247-1.399-3.234l-0.046-0.076
								l0.046-0.075c0.589-0.967,1.159-1.905,1.716-2.82l0.022,0.173c-1.38-1.338-2.683-2.602-3.924-3.804l0.16,0.015
								c-0.973,0.634-1.886,1.229-2.766,1.803l-0.062,0.04l-0.063-0.035c-1.101-0.616-2.204-1.032-3.283-1.303l-0.065-0.016
								l-0.016-0.065c-0.282-1.167-0.536-2.218-0.776-3.211l0.098,0.076c-2.117,0.028-3.921,0.051-5.465,0.072l0.072-0.06
								c-0.277,1.29-0.504,2.348-0.694,3.23l-0.007,0.032l-0.031,0.009c-1.157,0.323-1.97,0.7-2.499,0.961
								c-0.253,0.132-0.446,0.233-0.588,0.307C73.168,98.236,73.105,98.267,73.105,98.262c0-0.004,0.062-0.047,0.182-0.124
								c0.125-0.077,0.314-0.192,0.576-0.332c0.523-0.278,1.334-0.674,2.495-1.016l-0.038,0.041
								c0.178-0.884,0.392-1.945,0.652-3.239l0.012-0.059l0.061-0.002c1.544-0.034,3.347-0.073,5.464-0.12l0.079-0.002l0.02,0.077
								c0.246,0.991,0.507,2.041,0.797,3.205l-0.081-0.081c1.099,0.268,2.224,0.685,3.348,1.306l-0.125,0.005
								c0.878-0.578,1.787-1.178,2.757-1.817l0.086-0.056l0.074,0.072c1.245,1.197,2.553,2.455,3.939,3.788l0.08,0.077l-0.058,0.096
								c-0.554,0.917-1.122,1.857-1.707,2.826l0-0.15c0.61,1.007,1.102,2.118,1.44,3.302l-0.114-0.106
								c1.059,0.219,2.137,0.442,3.235,0.669l0.121,0.025l0.002,0.124c0.033,1.777,0.067,3.599,0.102,5.464l0.002,0.128
								l-0.124,0.031c-1.055,0.259-2.123,0.522-3.208,0.789l0.119-0.119c-0.284,1.157-0.725,2.29-1.318,3.357l-0.006-0.171
								c0.598,0.911,1.202,1.832,1.811,2.761l0.073,0.111l-0.092,0.096c-1.247,1.292-2.513,2.604-3.795,3.933l-0.093,0.096
								l-0.115-0.07c-0.933-0.566-1.876-1.137-2.823-1.711l0.174,0l-0.003,0.002c-1.06,0.642-2.203,1.124-3.306,1.436l0.118-0.127
								c-0.231,1.11-0.461,2.213-0.674,3.234l-0.027,0.131l-0.133,0.002c-1.88,0.032-3.734,0.064-5.464,0.093l-0.132,0.002
								l-0.031-0.128c-0.271-1.107-0.539-2.204-0.785-3.209l0.119,0.119c-1.215-0.299-2.368-0.771-3.354-1.323l0.165-0.006
								c-0.958,0.626-1.903,1.245-2.764,1.808l-0.105,0.069l-0.09-0.087c-1.364-1.32-2.694-2.607-3.927-3.801L66.63,119.6
								l0.062-0.102c0.598-0.982,1.184-1.946,1.716-2.821l0,0.15c-0.652-1.08-1.127-2.227-1.429-3.305l0.105,0.098
								c-1.13-0.237-2.232-0.469-3.233-0.679l-0.104-0.022l-0.002-0.105c-0.029-1.917-0.057-3.744-0.083-5.464l-0.002-0.096
								l0.093-0.023c1.127-0.273,2.21-0.535,3.211-0.778l-0.081,0.081c0.308-1.233,0.773-2.354,1.325-3.337l0.004,0.102
								c-0.648-0.998-1.254-1.93-1.799-2.769l-0.037-0.058l0.047-0.049c1.555-1.592,2.841-2.909,3.819-3.91l0.03-0.031l0.036,0.022
								c0.902,0.562,1.597,0.994,2.08,1.294c0.228,0.145,0.404,0.256,0.535,0.34C73.044,98.216,73.105,98.258,73.105,98.262z"/>
						</g>
					</g>
				</g>
			</g>
		</g>
		<g>
			<g>
				<g>
					<g>
						<path style="fill:#F5F5F5;" d="M351.582,62.286c1.033-0.624,2.133-1.098,3.268-1.42l0.673-3.234l5.464-0.096l0.787,3.208
							c1.145,0.282,2.261,0.717,3.316,1.305l2.762-1.81l3.932,3.796l-1.712,2.823c0.625,1.034,1.098,2.134,1.42,3.268l3.234,0.673
							l0.096,5.464l-3.208,0.787c-0.282,1.145-0.717,2.261-1.304,3.315l1.81,2.762l-3.796,3.932l-2.823-1.712
							c-1.034,0.624-2.134,1.098-3.268,1.42l-0.673,3.234l-5.464,0.096l-0.786-3.209c-1.145-0.282-2.261-0.717-3.315-1.304
							l-2.762,1.81l-3.932-3.796l1.712-2.823c-0.624-1.033-1.098-2.133-1.42-3.268l-3.234-0.673l-0.096-5.464l3.208-0.787
							c0.282-1.145,0.717-2.261,1.304-3.315l-1.81-2.762l3.796-3.932L351.582,62.286L351.582,62.286z M354.495,69.566
							c-2.249,2.33-2.184,6.041,0.146,8.29c2.329,2.249,6.041,2.184,8.29-0.146c2.249-2.329,2.184-6.041-0.146-8.29
							C360.455,67.171,356.744,67.237,354.495,69.566z"/>
					</g>
				</g>
			</g>
			<g>
				<g>
					<g>
						<g>
							<path style="fill:#F5F5F5;" d="M354.495,69.566c0,0,0.307-0.432,1.092-0.958c0.771-0.513,2.117-1.085,3.825-0.904
								c0.841,0.094,1.761,0.369,2.6,0.924c0.83,0.555,1.613,1.344,2.102,2.369c0.257,0.503,0.436,1.062,0.533,1.646
								c0.105,0.582,0.12,1.195,0.033,1.805c-0.148,1.225-0.728,2.432-1.627,3.38c-0.916,0.933-2.102,1.555-3.322,1.746
								c-0.606,0.109-1.219,0.116-1.805,0.031c-0.587-0.076-1.152-0.235-1.664-0.475c-1.041-0.453-1.858-1.208-2.441-2.018
								c-0.584-0.819-0.89-1.729-1.014-2.566c-0.24-1.7,0.284-3.066,0.77-3.854C354.074,69.887,354.495,69.566,354.495,69.566
								c0.032,0.027-0.354,0.385-0.806,1.19c-0.441,0.791-0.909,2.125-0.648,3.753c0.134,0.802,0.44,1.667,1.007,2.44
								c0.566,0.765,1.35,1.476,2.34,1.897c0.487,0.224,1.023,0.371,1.579,0.44c0.555,0.077,1.135,0.069,1.708-0.037
								c1.153-0.185,2.269-0.774,3.135-1.655c0.85-0.897,1.398-2.033,1.543-3.191c0.085-0.576,0.074-1.156-0.023-1.708
								c-0.088-0.553-0.254-1.084-0.495-1.562c-0.455-0.975-1.193-1.733-1.978-2.272c-0.793-0.539-1.668-0.814-2.474-0.92
								c-1.636-0.203-2.953,0.31-3.728,0.78C354.867,69.199,354.523,69.597,354.495,69.566z"/>
						</g>
					</g>
				</g>
			</g>
			<g>
				<g>
					<g>
						<g>
							<path style="fill:#F5F5F5;" d="M351.582,62.286c0,0.005-0.061-0.028-0.182-0.096c-0.133-0.077-0.311-0.18-0.542-0.313
								c-0.494-0.292-1.205-0.712-2.128-1.257l0.066-0.009c-0.966,1.012-2.236,2.344-3.773,3.954l0.01-0.106
								c0.552,0.835,1.165,1.762,1.821,2.754l0.033,0.05l-0.029,0.053c-0.537,0.972-0.988,2.079-1.283,3.293l-0.016,0.065
								l-0.065,0.016c-0.999,0.248-2.081,0.517-3.206,0.796l0.091-0.118c0.034,1.72,0.07,3.547,0.108,5.464l-0.105-0.127
								c1.002,0.206,2.105,0.434,3.235,0.667l0.083,0.017l0.023,0.081c0.301,1.055,0.77,2.176,1.41,3.231l0.046,0.075l-0.046,0.076
								c-0.529,0.876-1.113,1.842-1.708,2.826l-0.024-0.186c1.236,1.191,2.57,2.475,3.936,3.791l-0.194-0.018
								c0.86-0.565,1.804-1.185,2.76-1.813l0.081-0.053l0.085,0.047c0.964,0.537,2.09,0.996,3.276,1.286l0.096,0.023l0.023,0.096
								c0.247,1.005,0.517,2.101,0.789,3.208l-0.163-0.125c1.73-0.031,3.584-0.064,5.464-0.098l-0.16,0.133
								c0.212-1.022,0.441-2.124,0.672-3.234l0.021-0.1l0.098-0.028c1.076-0.304,2.191-0.775,3.224-1.401l0.003-0.002l0.088-0.052
								l0.086,0.052c0.948,0.575,1.89,1.146,2.823,1.712l-0.208,0.027c1.283-1.328,2.549-2.639,3.797-3.931l-0.02,0.207
								c-0.609-0.93-1.212-1.851-1.809-2.762l-0.055-0.084l0.049-0.087c0.58-1.04,1.012-2.146,1.29-3.274l0.024-0.096l0.096-0.023
								c1.085-0.265,2.154-0.526,3.209-0.784l-0.122,0.158c-0.031-1.865-0.061-3.688-0.09-5.464l0.123,0.149
								c-1.097-0.23-2.174-0.455-3.233-0.677l-0.09-0.019l-0.025-0.088c-0.327-1.159-0.805-2.247-1.4-3.234l-0.046-0.076
								l0.046-0.075c0.589-0.967,1.159-1.905,1.716-2.82l0.022,0.173c-1.38-1.338-2.683-2.602-3.924-3.804l0.16,0.015
								c-0.973,0.634-1.886,1.229-2.766,1.803l-0.061,0.04l-0.064-0.035c-1.101-0.616-2.204-1.032-3.283-1.303l-0.065-0.016
								l-0.016-0.065c-0.282-1.167-0.536-2.218-0.776-3.211l0.098,0.076c-2.117,0.028-3.921,0.051-5.465,0.072l0.072-0.06
								c-0.277,1.29-0.504,2.348-0.694,3.23l-0.007,0.032l-0.031,0.009c-1.156,0.323-1.97,0.7-2.499,0.961
								c-0.253,0.132-0.446,0.233-0.588,0.307C351.645,62.26,351.582,62.291,351.582,62.286c0-0.004,0.062-0.047,0.182-0.124
								c0.125-0.077,0.314-0.192,0.576-0.332c0.523-0.278,1.334-0.674,2.495-1.016l-0.038,0.041
								c0.178-0.884,0.392-1.945,0.652-3.239l0.012-0.059l0.061-0.001c1.544-0.034,3.347-0.073,5.464-0.12l0.079-0.002l0.019,0.077
								c0.246,0.991,0.507,2.041,0.797,3.205l-0.081-0.081c1.099,0.268,2.224,0.685,3.348,1.306l-0.125,0.005
								c0.878-0.578,1.788-1.178,2.757-1.817l0.086-0.056l0.074,0.072c1.245,1.197,2.553,2.455,3.939,3.788l0.08,0.077l-0.058,0.096
								c-0.554,0.918-1.122,1.857-1.707,2.826l0-0.15c0.61,1.007,1.102,2.118,1.44,3.302l-0.114-0.106
								c1.059,0.219,2.137,0.442,3.235,0.669l0.121,0.025l0.002,0.124c0.033,1.777,0.067,3.599,0.102,5.464l0.002,0.128l-0.124,0.03
								c-1.055,0.26-2.123,0.522-3.208,0.789l0.119-0.119c-0.284,1.156-0.725,2.29-1.318,3.357l-0.006-0.171
								c0.598,0.911,1.202,1.832,1.811,2.761l0.073,0.111l-0.092,0.096c-1.247,1.292-2.513,2.604-3.795,3.933l-0.093,0.096
								l-0.115-0.07c-0.934-0.566-1.876-1.137-2.824-1.711l0.174,0l-0.003,0.002c-1.06,0.642-2.203,1.124-3.306,1.436l0.118-0.127
								c-0.231,1.11-0.461,2.213-0.674,3.234l-0.027,0.131l-0.133,0.002c-1.88,0.032-3.734,0.064-5.464,0.094l-0.132,0.002
								l-0.031-0.128c-0.271-1.107-0.539-2.204-0.784-3.209l0.119,0.119c-1.215-0.299-2.368-0.771-3.354-1.323l0.165-0.006
								c-0.958,0.626-1.903,1.245-2.764,1.808l-0.105,0.069l-0.09-0.087c-1.363-1.32-2.694-2.607-3.927-3.801l-0.086-0.083
								l0.062-0.102c0.598-0.982,1.184-1.946,1.716-2.821l0,0.15c-0.652-1.08-1.127-2.227-1.43-3.305l0.105,0.098
								c-1.13-0.237-2.232-0.469-3.233-0.679l-0.104-0.022l-0.002-0.105c-0.029-1.917-0.057-3.744-0.083-5.464l-0.002-0.096
								l0.093-0.023c1.127-0.273,2.21-0.535,3.211-0.778l-0.081,0.081c0.308-1.233,0.773-2.354,1.325-3.337l0.004,0.102
								c-0.648-0.998-1.254-1.93-1.799-2.769l-0.037-0.058l0.047-0.049c1.555-1.592,2.841-2.909,3.819-3.91l0.03-0.031l0.036,0.022
								c0.902,0.562,1.598,0.994,2.08,1.294c0.228,0.145,0.404,0.256,0.535,0.34C351.521,62.24,351.582,62.282,351.582,62.286z"/>
						</g>
					</g>
				</g>
			</g>
		</g>
	</g>
	<g>
		<g>
			<g>
				<g>
					<g>
						<path style="fill:#E0E0E0;" d="M114.912,161.462c0,0,0.898-1.266,3.198-2.807c2.257-1.504,6.203-3.178,11.207-2.65
							c2.464,0.277,5.159,1.08,7.616,2.706c2.431,1.625,4.726,3.938,6.159,6.94c0.755,1.475,1.279,3.112,1.563,4.822
							c0.309,1.706,0.353,3.501,0.096,5.288c-0.435,3.589-2.132,7.125-4.768,9.904c-2.684,2.734-6.159,4.555-9.731,5.117
							c-1.777,0.32-3.573,0.339-5.289,0.09c-1.719-0.224-3.374-0.689-4.874-1.393c-3.051-1.327-5.443-3.54-7.153-5.912
							c-1.711-2.398-2.608-5.065-2.971-7.517c-0.703-4.982,0.831-8.984,2.255-11.292
							C113.678,162.404,114.912,161.462,114.912,161.462c0.093,0.079-1.037,1.127-2.36,3.485c-1.293,2.318-2.662,6.226-1.899,10.997
							c0.393,2.349,1.289,4.883,2.949,7.149c1.659,2.241,3.954,4.324,6.857,5.557c1.426,0.657,2.998,1.087,4.627,1.289
							c1.626,0.227,3.326,0.201,5.004-0.108c3.377-0.543,6.646-2.268,9.185-4.85c2.489-2.628,4.097-5.955,4.521-9.348
							c0.25-1.688,0.216-3.387-0.068-5.004c-0.259-1.62-0.744-3.175-1.45-4.578c-1.334-2.857-3.496-5.078-5.794-6.657
							c-2.322-1.579-4.887-2.385-7.248-2.696c-4.794-0.596-8.653,0.909-10.923,2.284
							C116.002,160.386,114.994,161.553,114.912,161.462z"/>
					</g>
				</g>
			</g>
		</g>
		<g>
			<g>
				<g>
					<g>
						<path style="fill:#E0E0E0;" d="M106.377,140.134c0,0.014-0.179-0.081-0.534-0.282c-0.389-0.225-0.911-0.526-1.586-0.917
							c-1.446-0.854-3.53-2.085-6.235-3.683l0.194-0.025c-2.83,2.966-6.552,6.866-11.055,11.584l0.03-0.31
							c1.617,2.445,3.413,5.162,5.336,8.07l0.096,0.145l-0.085,0.154c-1.572,2.848-2.893,6.09-3.76,9.65l-0.046,0.189l-0.191,0.048
							c-2.928,0.727-6.097,1.513-9.394,2.332l0.267-0.347c0.1,5.041,0.206,10.391,0.318,16.008l-0.308-0.372
							c2.934,0.605,6.166,1.27,9.479,1.953l0.241,0.05l0.068,0.237c0.88,3.09,2.255,6.377,4.132,9.466l0.133,0.219l-0.133,0.221
							c-1.551,2.566-3.261,5.396-5.003,8.279l-0.07-0.543c3.622,3.489,7.529,7.252,11.533,11.108l-0.57-0.053
							c2.519-1.655,5.285-3.471,8.086-5.312l0.237-0.155l0.247,0.138c2.824,1.574,6.123,2.918,9.599,3.768l0.28,0.068l0.069,0.281
							c0.724,2.944,1.513,6.156,2.311,9.399l-0.477-0.367c5.069-0.091,10.502-0.189,16.01-0.288l-0.47,0.39
							c0.622-2.993,1.293-6.223,1.97-9.476l0.061-0.292l0.286-0.081c3.153-0.892,6.419-2.27,9.446-4.104l0.008-0.005l0.258-0.153
							l0.252,0.153c2.777,1.684,5.538,3.358,8.272,5.016l-0.608,0.079c3.759-3.892,7.469-7.732,11.124-11.517l-0.057,0.606
							c-1.784-2.725-3.551-5.423-5.299-8.094l-0.161-0.245l0.143-0.255c1.701-3.046,2.964-6.286,3.78-9.592l0.07-0.281l0.28-0.068
							c3.179-0.777,6.31-1.542,9.402-2.297l-0.357,0.464c-0.09-5.465-0.179-10.804-0.265-16.009l0.361,0.435
							c-3.214-0.673-6.371-1.335-9.473-1.984l-0.262-0.055l-0.072-0.257c-0.959-3.395-2.359-6.583-4.1-9.475l-0.134-0.222
							l0.134-0.22c1.724-2.833,3.396-5.58,5.029-8.263l0.066,0.506c-4.044-3.921-7.862-7.622-11.497-11.145l0.468,0.044
							c-2.85,1.858-5.525,3.602-8.104,5.283l-0.18,0.117l-0.186-0.104c-3.225-1.804-6.457-3.024-9.62-3.816l-0.191-0.048
							l-0.046-0.189c-0.826-3.419-1.57-6.498-2.273-9.407l0.288,0.222c-6.203,0.081-11.487,0.151-16.011,0.21l0.212-0.176
							c-0.812,3.78-1.478,6.88-2.033,9.463l-0.021,0.095l-0.092,0.026c-3.388,0.945-5.771,2.051-7.321,2.816
							c-0.74,0.387-1.307,0.683-1.722,0.9C106.562,140.056,106.377,140.147,106.377,140.134c0.001-0.012,0.183-0.138,0.534-0.363
							c0.366-0.225,0.921-0.563,1.688-0.973c1.532-0.815,3.907-1.975,7.309-2.977l-0.111,0.12c0.521-2.59,1.147-5.699,1.91-9.489
							l0.035-0.172l0.178-0.004c4.523-0.099,9.807-0.215,16.009-0.351l0.231-0.005l0.057,0.227c0.722,2.904,1.486,5.979,2.335,9.392
							l-0.236-0.237c3.219,0.785,6.516,2.007,9.809,3.827l-0.365,0.013c2.572-1.694,5.237-3.451,8.078-5.323l0.251-0.165l0.218,0.21
							c3.649,3.508,7.482,7.194,11.542,11.098l0.235,0.227l-0.17,0.281c-1.624,2.688-3.286,5.44-5.001,8.28l0.001-0.441
							c1.789,2.95,3.23,6.206,4.22,9.675l-0.334-0.312c3.103,0.642,6.262,1.295,9.478,1.96l0.354,0.073l0.007,0.363
							c0.097,5.205,0.196,10.543,0.297,16.009l0.007,0.375l-0.365,0.089c-3.091,0.76-6.22,1.53-9.398,2.312l0.349-0.349
							c-0.832,3.388-2.123,6.71-3.862,9.835l-0.018-0.5c1.751,2.67,3.52,5.366,5.307,8.089l0.214,0.326l-0.27,0.281
							c-3.654,3.786-7.361,7.629-11.118,11.523l-0.273,0.283l-0.336-0.204c-2.735-1.658-5.495-3.331-8.273-5.014l0.509,0
							l-0.009,0.005c-3.105,1.881-6.454,3.294-9.686,4.207l0.347-0.373c-0.678,3.253-1.35,6.483-1.974,9.475l-0.08,0.383
							l-0.391,0.007c-5.508,0.094-10.941,0.187-16.01,0.274l-0.385,0.007l-0.091-0.374c-0.793-3.244-1.578-6.457-2.298-9.402
							l0.349,0.349c-3.56-0.875-6.938-2.257-9.827-3.875l0.484-0.017c-2.806,1.835-5.575,3.647-8.097,5.296l-0.307,0.201
							l-0.263-0.254c-3.995-3.866-7.892-7.639-11.506-11.136l-0.253-0.244l0.182-0.3c1.75-2.877,3.469-5.702,5.028-8.264l0,0.439
							c-1.91-3.163-3.302-6.525-4.189-9.683l0.308,0.286c-3.31-0.695-6.54-1.374-9.472-1.99l-0.304-0.064l-0.005-0.309
							c-0.086-5.617-0.167-10.968-0.244-16.01l-0.004-0.281l0.272-0.066c3.301-0.799,6.475-1.568,9.407-2.278l-0.236,0.237
							c0.902-3.613,2.266-6.898,3.883-9.776l0.01,0.299c-1.898-2.923-3.673-5.655-5.271-8.113l-0.109-0.169l0.139-0.142
							c4.556-4.665,8.323-8.522,11.188-11.455l0.089-0.091l0.105,0.066c2.644,1.645,4.68,2.912,6.094,3.792
							c0.668,0.424,1.183,0.751,1.567,0.995C106.199,139.998,106.378,140.12,106.377,140.134z"/>
					</g>
				</g>
			</g>
		</g>
	</g>
</g>
<g id="Background_Simple" style="display:none;">
	<g style="display:inline;">
		<path style="fill:#F5F5F5;" d="M402.318,92.634l-2.065-3.403c-17.41-28.69-48.887-45.984-82.074-43.886
			c-4.266,0.27-8.514,0.847-12.705,1.744c-30.174,6.459-56.429,29.277-67.312,58.5c-6.4,17.187-8.188,36.975-20.334,50.617
			c-15.807,17.754-42.643,18.312-66.238,17.576c-23.594-0.736-50.449-0.108-66.179,17.716
			c-9.852,11.163-12.982,27.038-12.188,41.987c2.103,39.58,29.683,74.97,64.757,92.561c35.075,17.591,76.371,19.166,114.758,11.428
			c53.776-10.84,104.916-40.61,135.655-86.59C419.133,204.905,426.912,142.262,402.318,92.634z"/>
	</g>
</g>
<g id="Plant">
	<g>
		<g>
			<path style="fill:#455A64;" d="M141.646,253.663c-11.516,5.965-20.346,16.235-26.695,27.543
				c-6.349,11.308-10.442,23.716-14.495,36.035l-3.547,63.533c13.399-22.795,24.154-49.592,27.059-75.873
				c-2.972-0.265-5.944-0.529-8.917-0.794c5.979-0.913,10.997-5.244,14.19-10.381c3.193-5.136,4.836-11.059,6.441-16.89
				c-3.626,0.539-7.253,1.078-10.879,1.617C133.323,272.768,139.499,263.677,141.646,253.663z"/>
		</g>
		<g style="opacity:0.3;">
			<g>
				<path d="M141.646,253.663c-11.516,5.965-20.346,16.235-26.695,27.543c-6.349,11.308-10.442,23.716-14.495,36.035l-3.547,63.533
					c13.399-22.795,24.154-49.592,27.059-75.873c-2.972-0.265-5.944-0.529-8.917-0.794c5.979-0.913,10.997-5.244,14.19-10.381
					c3.193-5.136,4.836-11.059,6.441-16.89c-3.626,0.539-7.253,1.078-10.879,1.617C133.323,272.768,139.499,263.677,141.646,253.663
					z"/>
			</g>
		</g>
		<g>
			<path style="fill:#455A64;" d="M94.926,395.661c0,0-29.083-34.81-28.747-68.041h11.748c0,0-12.761-8.392-11.751-13.091
				c1.01-4.699,1.345-22.49,1.345-22.49l10.741,2.685c0,0-8.056-4.028-9.063-10.406c-1.007-6.378,2.35-35.916,2.35-35.916
				s13.091,13.762,17.119,27.86c4.028,14.098,14.601,30.545,11.496,73.51C97.06,392.739,94.926,395.661,94.926,395.661z"/>
		</g>
		<g>
			<path style="fill:#455A64;" d="M109.67,398.947c0,0,31.509-20.99,38.509-47.78l-9.445-2.57c0,0,12.095-3.955,12.312-7.954
				c0.216-3.999,3.839-18.375,3.839-18.375l-9.223-0.191c0,0,7.358-1.476,9.563-6.383s5.969-29.389,5.969-29.389
				s-13.536,8.2-19.858,18.653c-6.323,10.453-18.422,21.363-25.326,56.585C109.105,396.764,109.67,398.947,109.67,398.947z"/>
		</g>
		<g>
			<g>
				<path style="fill:#263238;" d="M79.494,278.754c0.009-0.002,0.044,0.121,0.103,0.361c0.063,0.267,0.146,0.621,0.252,1.072
					c0.217,0.974,0.526,2.36,0.921,4.131c0.402,1.794,0.871,3.993,1.379,6.554c0.517,2.559,1.12,5.471,1.709,8.704
					c1.244,6.454,2.557,14.171,3.91,22.755c1.311,8.591,2.62,18.057,3.784,28.018c1.14,9.968,2.025,19.485,2.709,28.15
					c0.642,8.668,1.124,16.481,1.385,23.049c0.164,3.282,0.241,6.254,0.322,8.864c0.09,2.609,0.136,4.857,0.153,6.695
					c0.02,1.814,0.035,3.234,0.046,4.232c0,0.463-0.001,0.827-0.001,1.101c-0.003,0.248-0.009,0.375-0.018,0.375
					c-0.009,0-0.021-0.127-0.035-0.374c-0.013-0.274-0.029-0.637-0.051-1.099c-0.034-0.997-0.082-2.416-0.144-4.229
					c-0.049-1.836-0.124-4.083-0.241-6.69c-0.108-2.607-0.212-5.577-0.399-8.857c-0.308-6.562-0.828-14.368-1.495-23.029
					c-0.71-8.657-1.609-18.166-2.748-28.127c-1.163-9.955-2.457-19.416-3.741-28.006c-1.326-8.583-2.6-16.301-3.798-22.761
					c-0.566-3.236-1.143-6.151-1.632-8.714c-0.48-2.565-0.92-4.77-1.291-6.569c-0.353-1.779-0.63-3.172-0.825-4.151
					c-0.085-0.455-0.151-0.813-0.202-1.082C79.503,278.882,79.485,278.756,79.494,278.754z"/>
			</g>
		</g>
		<g>
			<path style="fill:#455A64;" d="M90.892,416.977c0,0-26.615-30.198-34.878-48.453l6.238-2.665
				c-4.522,0.746-9.155-1.197-12.661-4.149c-3.506-2.951-6.081-6.833-8.606-10.658l8.218-1.389
				c-7.473-2.097-14.058-7.197-17.956-13.909c9.698,1.595,18.472,6.922,25.701,13.579c5.855,5.392,10.813,11.651,15.574,18.045
				c2.323,3.12,4.355,6.443,6.048,9.944C83.043,386.569,90.907,405.887,90.892,416.977z"/>
		</g>
		<g>
			<g>
				<path style="fill:#263238;" d="M148.597,303.88c0.008,0.004-0.034,0.108-0.124,0.307c-0.104,0.223-0.24,0.512-0.41,0.877
					c-0.386,0.796-0.929,1.919-1.622,3.35c-1.428,2.898-3.451,7.115-5.897,12.348c-2.455,5.229-5.279,11.502-8.313,18.511
					c-3.009,7.02-6.213,14.782-9.401,22.998c-3.17,8.227-6.021,16.127-8.518,23.346c-2.47,7.228-4.601,13.769-6.302,19.29
					c-1.71,5.518-3.05,9.998-3.943,13.103c-0.45,1.525-0.803,2.72-1.053,3.569c-0.119,0.385-0.214,0.69-0.287,0.925
					c-0.067,0.208-0.106,0.313-0.115,0.31c-0.009-0.002,0.013-0.112,0.063-0.324c0.06-0.238,0.138-0.548,0.237-0.939
					c0.228-0.855,0.549-2.06,0.959-3.596c0.833-3.123,2.12-7.62,3.786-13.155c1.657-5.538,3.753-12.095,6.201-19.338
					c2.474-7.233,5.313-15.145,8.486-23.379c3.191-8.224,6.412-15.986,9.447-23.001c3.061-7.004,5.921-13.265,8.421-18.478
					c2.491-5.216,4.564-9.41,6.049-12.281c0.73-1.412,1.303-2.52,1.71-3.306c0.19-0.355,0.34-0.637,0.456-0.854
					C148.532,303.972,148.589,303.876,148.597,303.88z"/>
			</g>
		</g>
		<g>
			<g>
				<path style="fill:#263238;" d="M93.15,429.918c-0.018,0.002-0.061-0.189-0.125-0.555c-0.068-0.423-0.153-0.954-0.258-1.603
					c-0.101-0.697-0.23-1.549-0.414-2.533c-0.179-0.984-0.351-2.111-0.618-3.341c-0.477-2.472-1.16-5.392-2.031-8.602
					c-0.899-3.203-2.003-6.692-3.349-10.288c-1.367-3.589-2.845-6.938-4.287-9.936c-1.469-2.986-2.885-5.629-4.161-7.799
					c-0.612-1.1-1.228-2.059-1.744-2.916c-0.512-0.86-0.978-1.585-1.363-2.175c-0.351-0.556-0.637-1.011-0.866-1.373
					c-0.193-0.317-0.288-0.489-0.273-0.499c0.015-0.01,0.138,0.141,0.359,0.44c0.25,0.349,0.564,0.786,0.948,1.32
					c0.412,0.574,0.903,1.284,1.44,2.131c0.541,0.844,1.18,1.792,1.815,2.884c1.321,2.153,2.777,4.789,4.275,7.775
					c1.472,3,2.97,6.358,4.343,9.964c1.352,3.612,2.447,7.122,3.325,10.345c0.849,3.231,1.498,6.171,1.93,8.66
					c0.245,1.239,0.392,2.373,0.544,3.364c0.157,0.991,0.257,1.849,0.328,2.552c0.065,0.655,0.119,1.19,0.161,1.618
					C93.16,429.72,93.168,429.916,93.15,429.918z"/>
			</g>
		</g>
		<g>
			<rect x="70.018" y="422.814" style="fill:#FF725E;" width="58.25" height="11.882"/>
		</g>
		<g>
			<polygon style="fill:#FF725E;" points="75.569,434.697 81.869,474.663 117.068,474.663 122.94,434.697 			"/>
		</g>
		<g>
			<g>
				<path style="fill:#263238;" d="M124.695,434.697c0,0.144-11.019,0.26-24.609,0.26c-13.594,0-24.611-0.117-24.611-0.26
					c0-0.144,11.017-0.26,24.611-0.26C113.675,434.436,124.695,434.553,124.695,434.697z"/>
			</g>
		</g>
	</g>
</g>
<g id="Floor">
	<g>
		<g>
			<path style="fill:#263238;" d="M472.809,474.862c0,0.144-99.763,0.26-222.798,0.26c-123.078,0-222.82-0.116-222.82-0.26
				c0-0.144,99.742-0.26,222.82-0.26C373.046,474.601,472.809,474.718,472.809,474.862z"/>
		</g>
	</g>
</g>
<g id="Screen">
	<g>
		<g>
			<g>
				<g>
					<path style="fill:#FFFFFF;" d="M324.18,45.606l-30.42,0.016c-2.951,0.001-5.547,1.943-6.368,4.763l-2.483,8.528
						c-0.919,3.158-3.826,5.332-7.131,5.333l-67.397,0.036c-3.305,0.002-6.213-2.169-7.136-5.326l-2.492-8.525
						c-0.824-2.819-3.422-4.758-6.373-4.756l-30.42,0.016c-13.379,0.007-24.218,10.802-24.211,24.111l0.202,380.974
						c0.007,13.309,10.858,24.092,24.237,24.085l160.222-0.085c13.378-0.007,24.218-10.802,24.211-24.111l-0.202-380.974
						C348.41,56.382,337.559,45.599,324.18,45.606z"/>
				</g>
			</g>
			<g>
				<path style="fill:#EBEBEB;" d="M348.417,69.691c-0.007-13.309-10.858-24.092-24.237-24.085l-30.42,0.016
					c-2.952,0.001-5.547,1.943-6.368,4.763l-2.483,8.528c-0.919,3.158-3.826,5.331-7.13,5.333l-67.397,0.036
					c-3.305,0.002-6.213-2.169-7.136-5.326l-2.492-8.525c-0.824-2.819-3.422-4.758-6.373-4.756l-30.42,0.016
					c-13.379,0.007-24.218,10.802-24.211,24.111l0.202,53.204l208.67-0.001L348.417,69.691z"/>
			</g>
			<g>
				<path style="fill:#263238;" d="M202.408,102.866l0.526-1.181c0.654,0.526,1.695,0.9,2.7,0.9c1.274,0,1.811-0.456,1.811-1.063
					c0-1.765-4.862-0.608-4.862-3.647c0-1.321,1.052-2.443,3.296-2.443c0.982,0,2.011,0.257,2.724,0.725l-0.479,1.181
					c-0.736-0.433-1.543-0.643-2.256-0.643c-1.262,0-1.776,0.491-1.776,1.11c0,1.741,4.85,0.607,4.85,3.611
					c0,1.309-1.063,2.431-3.308,2.431C204.359,103.848,203.086,103.451,202.408,102.866z"/>
				<path style="fill:#263238;" d="M219.929,97.489l-2.303,6.242h-1.402l-1.613-4.301l-1.636,4.301h-1.402l-2.291-6.242h1.379
					l1.648,4.605l1.718-4.605h1.228l1.683,4.629l1.695-4.629H219.929z"/>
				<path style="fill:#263238;" d="M220.737,95.584c0-0.491,0.397-0.877,0.935-0.877c0.538,0,0.935,0.362,0.935,0.842
					c0,0.514-0.386,0.912-0.935,0.912C221.135,96.461,220.737,96.075,220.737,95.584z M220.936,97.489h1.461v6.242h-1.461V97.489z"
					/>
				<path style="fill:#263238;" d="M230.941,100.61c0,1.94-1.344,3.203-3.167,3.203c-0.794,0-1.496-0.269-1.999-0.842v3.027h-1.461
					v-8.509h1.391v0.818c0.491-0.596,1.216-0.888,2.069-0.888C229.597,97.419,230.941,98.682,230.941,100.61z M229.457,100.61
					c0-1.192-0.795-1.952-1.847-1.952c-1.052,0-1.858,0.76-1.858,1.952c0,1.192,0.807,1.952,1.858,1.952
					C228.662,102.562,229.457,101.802,229.457,100.61z"/>
				<path style="fill:#263238;" d="M238.177,101.077h-4.898c0.175,0.912,0.935,1.496,2.022,1.496c0.701,0,1.251-0.222,1.695-0.678
					l0.783,0.9c-0.561,0.666-1.438,1.017-2.513,1.017c-2.092,0-3.448-1.344-3.448-3.203s1.367-3.191,3.226-3.191
					c1.824,0,3.156,1.274,3.156,3.226C238.2,100.762,238.189,100.937,238.177,101.077z M233.268,100.107h3.542
					c-0.117-0.9-0.807-1.519-1.765-1.519C234.098,98.588,233.408,99.196,233.268,100.107z"/>
				<path style="fill:#263238;" d="M242.316,100.61c0-1.87,1.402-3.191,3.319-3.191c1.94,0,3.331,1.321,3.331,3.191
					s-1.391,3.203-3.331,3.203C243.718,103.813,242.316,102.48,242.316,100.61z M247.494,100.61c0-1.192-0.795-1.952-1.858-1.952
					c-1.052,0-1.847,0.76-1.847,1.952c0,1.192,0.794,1.952,1.847,1.952C246.699,102.562,247.494,101.802,247.494,100.61z"/>
				<path style="fill:#263238;" d="M256.998,100.61c0,1.94-1.344,3.203-3.167,3.203c-0.795,0-1.497-0.269-1.999-0.842v3.027h-1.461
					v-8.509h1.391v0.818c0.491-0.596,1.216-0.888,2.069-0.888C255.654,97.419,256.998,98.682,256.998,100.61z M255.513,100.61
					c0-1.192-0.795-1.952-1.847-1.952c-1.052,0-1.858,0.76-1.858,1.952c0,1.192,0.807,1.952,1.858,1.952
					C254.718,102.562,255.513,101.802,255.513,100.61z"/>
				<path style="fill:#263238;" d="M262.141,103.392c-0.351,0.28-0.876,0.421-1.402,0.421c-1.367,0-2.15-0.725-2.15-2.104v-3.004
					h-1.028v-1.169h1.028V96.11h1.461v1.426h1.672v1.169h-1.672v2.969c0,0.608,0.304,0.935,0.865,0.935
					c0.304,0,0.596-0.082,0.817-0.257L262.141,103.392z"/>
				<path style="fill:#263238;" d="M263.147,95.584c0-0.491,0.397-0.877,0.935-0.877c0.538,0,0.935,0.362,0.935,0.842
					c0,0.514-0.386,0.912-0.935,0.912C263.545,96.461,263.147,96.075,263.147,95.584z M263.345,97.489h1.462v6.242h-1.462V97.489z"
					/>
				<path style="fill:#263238;" d="M266.21,100.61c0-1.87,1.402-3.191,3.319-3.191c1.94,0,3.331,1.321,3.331,3.191
					s-1.391,3.203-3.331,3.203C267.612,103.813,266.21,102.48,266.21,100.61z M271.387,100.61c0-1.192-0.795-1.952-1.858-1.952
					c-1.052,0-1.847,0.76-1.847,1.952c0,1.192,0.795,1.952,1.847,1.952C270.592,102.562,271.387,101.802,271.387,100.61z"/>
				<path style="fill:#263238;" d="M280.412,100.154v3.577h-1.461v-3.39c0-1.11-0.55-1.648-1.484-1.648
					c-1.04,0-1.741,0.631-1.741,1.882v3.156h-1.462v-6.242h1.392v0.807c0.479-0.573,1.238-0.876,2.15-0.876
					C279.301,97.419,280.412,98.272,280.412,100.154z"/>
				<path style="fill:#263238;" d="M281.558,103.111l0.562-1.11c0.549,0.362,1.391,0.62,2.174,0.62c0.924,0,1.31-0.257,1.31-0.689
					c0-1.192-3.857-0.07-3.857-2.56c0-1.18,1.064-1.952,2.746-1.952c0.83,0,1.777,0.199,2.338,0.538l-0.56,1.11
					c-0.597-0.351-1.192-0.468-1.788-0.468c-0.889,0-1.31,0.292-1.31,0.702c0,1.262,3.857,0.14,3.857,2.583
					c0,1.169-1.075,1.929-2.829,1.929C283.16,103.813,282.12,103.509,281.558,103.111z"/>
			</g>
			<g>
				<path style="fill:#263238;" d="M156.579,162.651l0.436-0.919c0.612,0.554,1.661,0.954,2.721,0.954
					c1.425,0,2.038-0.554,2.038-1.272c0-2.014-4.995-0.742-4.995-3.805c0-1.272,0.99-2.355,3.157-2.355
					c0.966,0,1.967,0.259,2.65,0.73l-0.389,0.942c-0.719-0.46-1.531-0.671-2.262-0.671c-1.402,0-2.003,0.589-2.003,1.308
					c0,2.014,4.995,0.754,4.995,3.781c0,1.261-1.013,2.344-3.192,2.344C158.476,163.687,157.239,163.263,156.579,162.651z"/>
				<path style="fill:#263238;" d="M173.809,157.35l-2.333,6.243h-1.084l-1.802-4.735l-1.826,4.735h-1.084l-2.32-6.243h1.072
					l1.814,4.971l1.885-4.971h0.955l1.849,4.995l1.861-4.995H173.809z"/>
				<path style="fill:#263238;" d="M174.744,155.418c0-0.412,0.33-0.742,0.766-0.742c0.436,0,0.766,0.318,0.766,0.719
					c0,0.424-0.318,0.754-0.766,0.754C175.074,156.148,174.744,155.83,174.744,155.418z M174.944,157.35h1.131v6.243h-1.131V157.35z
					"/>
				<path style="fill:#263238;" d="M184.696,160.471c0,1.92-1.331,3.192-3.157,3.192c-0.883,0-1.661-0.342-2.179-1.013v3.228h-1.131
					v-8.528h1.084v0.989c0.506-0.695,1.308-1.048,2.226-1.048C183.365,157.291,184.696,158.563,184.696,160.471z M183.554,160.471
					c0-1.319-0.907-2.191-2.108-2.191c-1.19,0-2.097,0.872-2.097,2.191c0,1.331,0.907,2.203,2.097,2.203
					C182.647,162.674,183.554,161.803,183.554,160.471z"/>
				<path style="fill:#263238;" d="M191.877,160.848h-5.065c0.142,1.095,1.025,1.826,2.262,1.826c0.73,0,1.343-0.247,1.802-0.754
					l0.624,0.73c-0.565,0.66-1.425,1.013-2.462,1.013c-2.015,0-3.357-1.331-3.357-3.192c0-1.85,1.331-3.181,3.134-3.181
					c1.802,0,3.086,1.296,3.086,3.216C191.9,160.601,191.889,160.742,191.877,160.848z M186.812,160.036h4.005
					c-0.118-1.048-0.907-1.791-2.002-1.791C187.731,158.245,186.93,158.975,186.812,160.036z"/>
				<path style="fill:#263238;" d="M199.987,157.291v1.096c-0.094-0.012-0.177-0.012-0.259-0.012c-1.213,0-1.967,0.742-1.967,2.108
					v3.11h-1.131v-6.243h1.084v1.048C198.114,157.668,198.891,157.291,199.987,157.291z"/>
				<path style="fill:#263238;" d="M201.173,155.418c0-0.412,0.33-0.742,0.766-0.742c0.436,0,0.766,0.318,0.766,0.719
					c0,0.424-0.318,0.754-0.766,0.754C201.504,156.148,201.173,155.83,201.173,155.418z M201.374,157.35h1.131v6.243h-1.131V157.35z
					"/>
				<path style="fill:#263238;" d="M210.631,157.35v5.395c0,2.203-1.119,3.204-3.24,3.204c-1.143,0-2.297-0.318-2.98-0.931
					l0.542-0.872c0.577,0.495,1.484,0.813,2.403,0.813c1.473,0,2.144-0.683,2.144-2.097v-0.495c-0.542,0.648-1.355,0.966-2.25,0.966
					c-1.802,0-3.169-1.225-3.169-3.027c0-1.802,1.367-3.016,3.169-3.016c0.931,0,1.779,0.342,2.309,1.025v-0.966H210.631z
					 M209.524,160.307c0-1.213-0.895-2.026-2.144-2.026c-1.26,0-2.156,0.813-2.156,2.026c0,1.202,0.895,2.038,2.156,2.038
					C208.628,162.345,209.524,161.508,209.524,160.307z"/>
				<path style="fill:#263238;" d="M218.707,160v3.593h-1.131v-3.463c0-1.225-0.612-1.826-1.684-1.826
					c-1.201,0-1.979,0.719-1.979,2.073v3.216h-1.131v-8.741h1.131v3.381c0.471-0.601,1.249-0.942,2.203-0.942
					C217.635,157.291,218.707,158.162,218.707,160z"/>
				<path style="fill:#263238;" d="M224.309,163.228c-0.342,0.294-0.86,0.436-1.367,0.436c-1.26,0-1.979-0.695-1.979-1.956v-3.428
					h-1.06v-0.931h1.06v-1.367h1.131v1.367h1.79v0.931h-1.79v3.381c0,0.671,0.354,1.048,0.978,1.048c0.33,0,0.648-0.106,0.883-0.294
					L224.309,163.228z"/>
			</g>
			<g>
				<path style="fill:#E0E0E0;" d="M157.197,169.594h3.092c2.359,0,3.963,1.488,3.963,3.669c0,2.18-1.604,3.669-3.963,3.669h-3.092
					V169.594z M160.227,176.02c1.813,0,2.977-1.111,2.977-2.757s-1.164-2.757-2.977-2.757h-1.981v5.514H160.227z"/>
				<path style="fill:#E0E0E0;" d="M170.71,174.49h-4.507c0.126,0.975,0.912,1.625,2.013,1.625c0.65,0,1.195-0.22,1.604-0.671
					l0.556,0.65c-0.503,0.587-1.268,0.902-2.191,0.902c-1.792,0-2.987-1.185-2.987-2.841c0-1.646,1.185-2.831,2.788-2.831
					c1.604,0,2.747,1.153,2.747,2.862C170.731,174.269,170.721,174.395,170.71,174.49z M166.203,173.766h3.564
					c-0.105-0.933-0.807-1.593-1.782-1.593C167.02,172.173,166.307,172.823,166.203,173.766z"/>
				<path style="fill:#E0E0E0;" d="M172.126,169.154h1.006v7.778h-1.006V169.154z"/>
				<path style="fill:#E0E0E0;" d="M180.051,174.49h-4.507c0.126,0.975,0.912,1.625,2.013,1.625c0.65,0,1.195-0.22,1.604-0.671
					l0.556,0.65c-0.503,0.587-1.268,0.902-2.191,0.902c-1.792,0-2.987-1.185-2.987-2.841c0-1.646,1.185-2.831,2.788-2.831
					c1.604,0,2.747,1.153,2.747,2.862C180.072,174.269,180.062,174.395,180.051,174.49z M175.544,173.766h3.564
					c-0.105-0.933-0.807-1.593-1.782-1.593C176.361,172.173,175.649,172.823,175.544,173.766z"/>
				<path style="fill:#E0E0E0;" d="M184.591,176.607c-0.304,0.262-0.765,0.388-1.216,0.388c-1.121,0-1.761-0.619-1.761-1.74v-3.05
					h-0.943v-0.828h0.943v-1.216h1.006v1.216h1.593v0.828h-1.593v3.008c0,0.598,0.314,0.933,0.87,0.933
					c0.293,0,0.577-0.094,0.786-0.262L184.591,176.607z"/>
				<path style="fill:#E0E0E0;" d="M190.619,174.49h-4.507c0.126,0.975,0.912,1.625,2.013,1.625c0.65,0,1.195-0.22,1.604-0.671
					l0.556,0.65c-0.503,0.587-1.268,0.902-2.191,0.902c-1.792,0-2.987-1.185-2.987-2.841c0-1.646,1.185-2.831,2.788-2.831
					c1.604,0,2.747,1.153,2.747,2.862C190.64,174.269,190.63,174.395,190.619,174.49z M186.111,173.766h3.564
					c-0.105-0.933-0.807-1.593-1.782-1.593C186.929,172.173,186.216,172.823,186.111,173.766z"/>
			</g>
			<g>
				<path style="fill:#263238;" d="M156.579,313.316l0.436-0.919c0.612,0.554,1.661,0.954,2.721,0.954
					c1.425,0,2.038-0.554,2.038-1.272c0-2.014-4.995-0.742-4.995-3.805c0-1.272,0.99-2.355,3.157-2.355
					c0.966,0,1.967,0.259,2.65,0.73l-0.389,0.942c-0.719-0.46-1.531-0.672-2.262-0.672c-1.402,0-2.003,0.589-2.003,1.308
					c0,2.015,4.995,0.754,4.995,3.781c0,1.261-1.013,2.344-3.192,2.344C158.476,314.352,157.239,313.928,156.579,313.316z"/>
				<path style="fill:#263238;" d="M173.809,308.015l-2.333,6.243h-1.084l-1.802-4.735l-1.826,4.735h-1.084l-2.32-6.243h1.072
					l1.814,4.971l1.885-4.971h0.955l1.849,4.994l1.861-4.994H173.809z"/>
				<path style="fill:#263238;" d="M174.744,306.083c0-0.413,0.33-0.742,0.766-0.742c0.436,0,0.766,0.317,0.766,0.718
					c0,0.425-0.318,0.754-0.766,0.754C175.074,306.813,174.744,306.495,174.744,306.083z M174.944,308.015h1.131v6.243h-1.131
					V308.015z"/>
				<path style="fill:#263238;" d="M184.696,311.136c0,1.921-1.331,3.192-3.157,3.192c-0.883,0-1.661-0.341-2.179-1.013v3.228
					h-1.131v-8.528h1.084v0.989c0.506-0.695,1.308-1.048,2.226-1.048C183.365,307.956,184.696,309.228,184.696,311.136z
					 M183.554,311.136c0-1.319-0.907-2.191-2.108-2.191c-1.19,0-2.097,0.871-2.097,2.191c0,1.331,0.907,2.203,2.097,2.203
					C182.647,313.339,183.554,312.467,183.554,311.136z"/>
				<path style="fill:#263238;" d="M191.877,311.513h-5.065c0.142,1.096,1.025,1.826,2.262,1.826c0.73,0,1.343-0.247,1.802-0.754
					l0.624,0.73c-0.565,0.659-1.425,1.013-2.462,1.013c-2.015,0-3.357-1.331-3.357-3.192c0-1.849,1.331-3.18,3.134-3.18
					c1.802,0,3.086,1.295,3.086,3.216C191.9,311.266,191.889,311.408,191.877,311.513z M186.812,310.701h4.005
					c-0.118-1.048-0.907-1.79-2.002-1.79C187.731,308.91,186.93,309.641,186.812,310.701z"/>
				<path style="fill:#263238;" d="M196.795,306.012h1.178v7.222h4.464v1.024h-5.642V306.012z"/>
				<path style="fill:#263238;" d="M209.159,311.513h-5.065c0.142,1.096,1.025,1.826,2.262,1.826c0.73,0,1.343-0.247,1.802-0.754
					l0.624,0.73c-0.566,0.659-1.425,1.013-2.462,1.013c-2.015,0-3.357-1.331-3.357-3.192c0-1.849,1.331-3.18,3.134-3.18
					c1.802,0,3.086,1.295,3.086,3.216C209.183,311.266,209.171,311.408,209.159,311.513z M204.094,310.701h4.005
					c-0.118-1.048-0.907-1.79-2.003-1.79C205.013,308.91,204.212,309.641,204.094,310.701z"/>
				<path style="fill:#263238;" d="M212.017,307.473v0.542h1.814v0.931h-1.79v5.313h-1.131v-5.313h-1.06v-0.931h1.06v-0.554
					c0-1.213,0.73-2.015,2.062-2.015c0.483,0,0.954,0.118,1.272,0.365l-0.341,0.86c-0.236-0.177-0.542-0.295-0.872-0.295
					C212.358,306.377,212.017,306.754,212.017,307.473z"/>
				<path style="fill:#263238;" d="M218.411,313.893c-0.342,0.295-0.86,0.435-1.367,0.435c-1.26,0-1.979-0.694-1.979-1.955v-3.428
					h-1.06v-0.931h1.06v-1.366h1.131v1.366h1.791v0.931h-1.791v3.381c0,0.671,0.354,1.048,0.978,1.048
					c0.33,0,0.648-0.105,0.884-0.294L218.411,313.893z"/>
			</g>
			<g>
				<path style="fill:#E0E0E0;" d="M161.872,325.762h-3.899l-0.807,1.835h-1.08l3.323-7.338h1.038l3.333,7.338h-1.101
					L161.872,325.762z M161.505,324.924l-1.583-3.596l-1.583,3.596H161.505z"/>
				<path style="fill:#E0E0E0;" d="M167.712,321.989v0.975c-0.084-0.01-0.157-0.01-0.23-0.01c-1.08,0-1.751,0.66-1.751,1.876v2.768
					h-1.006v-5.556h0.964v0.933C166.046,322.324,166.737,321.989,167.712,321.989z"/>
				<path style="fill:#E0E0E0;" d="M168.383,324.819c0-1.656,1.227-2.83,2.935-2.83c0.996,0,1.824,0.409,2.264,1.185l-0.765,0.493
					c-0.356-0.546-0.901-0.797-1.51-0.797c-1.09,0-1.908,0.765-1.908,1.949c0,1.206,0.818,1.961,1.908,1.961
					c0.608,0,1.153-0.252,1.51-0.797l0.765,0.483c-0.44,0.775-1.269,1.194-2.264,1.194
					C169.61,327.659,168.383,326.475,168.383,324.819z"/>
				<path style="fill:#E0E0E0;" d="M180.083,324.4v3.197h-1.006v-3.082c0-1.09-0.545-1.625-1.499-1.625
					c-1.069,0-1.761,0.64-1.761,1.846v2.861h-1.006v-7.778h1.006v3.009c0.419-0.535,1.111-0.839,1.96-0.839
					C179.129,321.989,180.083,322.764,180.083,324.4z"/>
				<path style="fill:#E0E0E0;" d="M181.772,320.322c0-0.366,0.294-0.66,0.681-0.66c0.388,0,0.682,0.283,0.682,0.64
					c0,0.377-0.283,0.671-0.682,0.671C182.065,320.972,181.772,320.689,181.772,320.322z M181.95,322.041h1.006v5.556h-1.006
					V322.041z"/>
				<path style="fill:#E0E0E0;" d="M189.791,322.041l-2.432,5.556h-1.027l-2.432-5.556h1.048l1.908,4.455l1.95-4.455H189.791z"/>
				<path style="fill:#E0E0E0;" d="M195.578,325.155h-4.507c0.126,0.975,0.912,1.625,2.013,1.625c0.65,0,1.195-0.221,1.604-0.671
					l0.556,0.649c-0.503,0.587-1.268,0.901-2.191,0.901c-1.792,0-2.987-1.185-2.987-2.841c0-1.646,1.185-2.83,2.788-2.83
					c1.604,0,2.747,1.153,2.747,2.862C195.599,324.934,195.589,325.06,195.578,325.155z M191.07,324.431h3.564
					c-0.105-0.933-0.807-1.593-1.782-1.593C191.888,322.838,191.175,323.488,191.07,324.431z"/>
			</g>
			<g>
				<path style="fill:#263238;" d="M164.952,106.454c-0.115,0-0.23-0.039-0.325-0.12l-5.322-4.55
					c-0.11-0.094-0.174-0.231-0.175-0.377c-0.001-0.145,0.061-0.283,0.17-0.379l5.533-4.851c0.207-0.181,0.524-0.162,0.706,0.046
					c0.182,0.208,0.161,0.523-0.046,0.706l-5.099,4.47l4.883,4.175c0.21,0.179,0.235,0.495,0.055,0.705
					C165.233,106.395,165.093,106.454,164.952,106.454z"/>
			</g>
			<g>
				<rect x="151.628" y="198.584" style="fill:#F5F5F5;" width="183.436" height="55.035"/>
			</g>
			<g>
				<rect x="151.628" y="198.584" style="fill:#FF725E;" width="111.45" height="55.035"/>
			</g>
			<g>
				<g>
					<path style="fill:#E0E0E0;" d="M323.981,217.822c0,0.144-5.242,0.26-11.708,0.26c-6.467,0-11.709-0.117-11.709-0.26
						s5.241-0.26,11.709-0.26C318.739,217.562,323.981,217.678,323.981,217.822z"/>
				</g>
			</g>
			<g>
				<g>
					<path style="fill:#E0E0E0;" d="M323.981,226.101c0,0.144-5.242,0.26-11.708,0.26c-6.467,0-11.709-0.117-11.709-0.26
						s5.241-0.26,11.709-0.26C318.739,225.841,323.981,225.958,323.981,226.101z"/>
				</g>
			</g>
			<g>
				<g>
					<path style="fill:#E0E0E0;" d="M323.981,234.38c0,0.144-5.242,0.26-11.708,0.26c-6.467,0-11.709-0.117-11.709-0.26
						s5.241-0.26,11.709-0.26C318.739,234.12,323.981,234.236,323.981,234.38z"/>
				</g>
			</g>
			<g>
				<circle style="fill:#E0E0E0;" cx="281.822" cy="226.101" r="9.696"/>
			</g>
			<g style="opacity:0.3;">
				<rect x="260.12" y="198.584" width="2.958" height="55.035"/>
			</g>
			<g>
				<g>
					<path style="fill:#FFFFFF;" d="M193.201,240.486h-14.107c-1.49,0-2.698-1.208-2.698-2.698v-19.672h19.502v19.672
						C195.898,239.278,194.691,240.486,193.201,240.486z"/>
				</g>
				<g>
					<path style="fill:#FFFFFF;" d="M195.788,216.475h-19.286c-0.741,0-1.342-0.601-1.342-1.342v-0.491
						c0-0.741,0.601-1.342,1.342-1.342h19.286c0.741,0,1.342,0.601,1.342,1.342v0.491
						C197.13,215.874,196.529,216.475,195.788,216.475z"/>
				</g>
				<g>
					<path style="fill:#FFFFFF;" d="M190.377,215.655h-8.464v-2.35c0-0.877,0.711-1.588,1.588-1.588h5.288
						c0.877,0,1.588,0.711,1.588,1.588V215.655z"/>
				</g>
				<g>
					<path style="fill:#FF725E;" d="M181.126,236.75h-0.249c-0.377,0-0.683-0.306-0.683-0.682V220.75
						c0-0.377,0.306-0.682,0.683-0.682h0.249c0.377,0,0.682,0.306,0.682,0.682v15.318
						C181.809,236.444,181.503,236.75,181.126,236.75z"/>
				</g>
				<g>
					<path style="fill:#FF725E;" d="M186.27,236.75h-0.25c-0.377,0-0.682-0.306-0.682-0.682V220.75c0-0.377,0.306-0.682,0.682-0.682
						h0.25c0.377,0,0.683,0.306,0.683,0.682v15.318C186.953,236.444,186.647,236.75,186.27,236.75z"/>
				</g>
				<g>
					<path style="fill:#FF725E;" d="M191.414,236.75h-0.249c-0.377,0-0.683-0.306-0.683-0.682V220.75
						c0-0.377,0.306-0.682,0.683-0.682h0.249c0.377,0,0.683,0.306,0.683,0.682v15.318
						C192.096,236.444,191.791,236.75,191.414,236.75z"/>
				</g>
			</g>
			<g>
				<g>
					<path style="fill:#FFFFFF;" d="M241.204,226.247h-30.091c-0.276,0-0.5-0.224-0.5-0.5s0.224-0.5,0.5-0.5h30.091
						c0.276,0,0.5,0.224,0.5,0.5S241.481,226.247,241.204,226.247z"/>
				</g>
				<g>
					<path style="fill:#FFFFFF;" d="M238.109,230.11c-0.128,0-0.255-0.049-0.353-0.146c-0.196-0.195-0.196-0.512-0.001-0.707
						l3.505-3.515l-3.515-3.505c-0.196-0.195-0.196-0.512-0.001-0.707c0.195-0.196,0.512-0.195,0.707-0.001l3.869,3.858
						c0.196,0.195,0.196,0.512,0.001,0.707l-3.858,3.869C238.365,230.061,238.237,230.11,238.109,230.11z"/>
				</g>
			</g>
			<g>
				
					<rect x="151.628" y="340.51" transform="matrix(-1 -1.224647e-16 1.224647e-16 -1 486.6929 736.0549)" style="fill:#F5F5F5;" width="183.436" height="55.035"/>
			</g>
			<g>
				
					<rect x="223.614" y="340.51" transform="matrix(-1 -1.224647e-16 1.224647e-16 -1 558.6788 736.0549)" style="fill:#FF725E;" width="111.45" height="55.035"/>
			</g>
			<g>
				<g>
					<path style="fill:#E0E0E0;" d="M165.529,359.749c0-0.144,8.103-0.26,18.096-0.26c9.997,0,18.098,0.117,18.098,0.26
						c0,0.144-8.101,0.26-18.098,0.26C173.632,360.009,165.529,359.893,165.529,359.749z"/>
				</g>
			</g>
			<g>
				<g>
					<path style="fill:#E0E0E0;" d="M165.529,368.028c0-0.144,8.103-0.26,18.096-0.26c9.997,0,18.098,0.117,18.098,0.26
						c0,0.144-8.101,0.26-18.098,0.26C173.632,368.288,165.529,368.172,165.529,368.028z"/>
				</g>
			</g>
			<g>
				<g>
					<path style="fill:#E0E0E0;" d="M165.529,376.307c0-0.144,8.103-0.26,18.096-0.26c9.997,0,18.098,0.117,18.098,0.26
						s-8.101,0.26-18.098,0.26C173.632,376.567,165.529,376.451,165.529,376.307z"/>
				</g>
			</g>
			<g style="opacity:0.3;">
				<rect x="223.614" y="340.51" width="2.958" height="55.035"/>
			</g>
			<g>
				<g>
					<path style="fill:#FFFFFF;" d="M314.44,380.258h-22.837c-1.382,0-2.502-1.12-2.502-2.502v-21.281h27.841v21.281
						C316.942,379.138,315.822,380.258,314.44,380.258z"/>
				</g>
				<g>
					<path style="fill:#FF725E;" d="M308.936,363.422h-11.678c-0.658,0-1.192-0.534-1.192-1.192v-1.393
						c0-0.658,0.534-1.192,1.192-1.192h11.678c0.658,0,1.192,0.534,1.192,1.192v1.393
						C310.128,362.888,309.594,363.422,308.936,363.422z"/>
				</g>
				<g>
					<path style="fill:#FF725E;" d="M302.882,375.975c-0.276,0-0.5-0.224-0.5-0.5v-7.795c0-0.276,0.224-0.5,0.5-0.5
						s0.5,0.224,0.5,0.5v7.795C303.382,375.751,303.158,375.975,302.882,375.975z"/>
				</g>
				<g>
					<path style="fill:#FF725E;" d="M302.882,375.975L302.882,375.975c-0.139,0-0.271-0.058-0.365-0.158l-3.16-3.375
						c-0.188-0.201-0.178-0.518,0.023-0.707c0.202-0.188,0.519-0.179,0.707,0.023l2.796,2.985l2.804-2.985
						c0.19-0.203,0.507-0.212,0.706-0.022c0.202,0.188,0.212,0.505,0.023,0.706l-3.169,3.375
						C303.151,375.918,303.019,375.975,302.882,375.975z"/>
				</g>
			</g>
			<g>
				<g>
					<path style="fill:#FFFFFF;" d="M275.58,368.173h-30.091c-0.276,0-0.5-0.224-0.5-0.5c0-0.276,0.224-0.5,0.5-0.5h30.091
						c0.276,0,0.5,0.224,0.5,0.5C276.08,367.949,275.856,368.173,275.58,368.173z"/>
				</g>
				<g>
					<path style="fill:#FFFFFF;" d="M248.584,372.036c-0.128,0-0.256-0.049-0.354-0.146l-3.858-3.869
						c-0.094-0.095-0.146-0.222-0.146-0.355c0-0.133,0.053-0.26,0.147-0.353l3.869-3.857c0.196-0.193,0.512-0.194,0.707,0.001
						c0.195,0.196,0.195,0.513-0.001,0.708l-3.515,3.504l3.505,3.515c0.195,0.196,0.194,0.513-0.001,0.708
						C248.839,371.988,248.712,372.036,248.584,372.036z"/>
				</g>
			</g>
			<g>
				<g>
					<path style="fill:#E0E0E0;" d="M346.202,286.716c0,0.144-46.196,0.26-103.169,0.26c-56.992,0-103.178-0.117-103.178-0.26
						s46.186-0.26,103.178-0.26C300.006,286.456,346.202,286.573,346.202,286.716z"/>
				</g>
			</g>
			<g>
				<g>
					<path style="fill:#E0E0E0;" d="M350.252,436.234c0,0.144-46.299,0.26-103.398,0.26c-57.119,0-103.409-0.117-103.409-0.26
						c0-0.144,46.289-0.26,103.409-0.26C303.953,435.974,350.252,436.091,350.252,436.234z"/>
				</g>
			</g>
			<g>
				<g>
					<path style="fill:#E0E0E0;" d="M311.068,450.747c0,0.144-30.379,0.26-67.844,0.26c-37.478,0-67.85-0.117-67.85-0.26
						s30.372-0.26,67.85-0.26C280.689,450.487,311.068,450.603,311.068,450.747z"/>
				</g>
			</g>
		</g>
		<g>
			<g>
				<g>
					<path style="fill:#263238;" d="M324.18,45.606c0,0,0.274,0.005,0.817,0.027c0.273,0.012,0.611,0.026,1.014,0.044
						c0.202,0.009,0.421,0.019,0.656,0.03c0.233,0.034,0.482,0.071,0.748,0.11c2.114,0.245,5.334,0.909,8.969,3.026
						c0.449,0.27,0.911,0.549,1.387,0.835c0.446,0.33,0.905,0.67,1.376,1.018c0.487,0.329,0.916,0.754,1.377,1.162
						c0.461,0.41,0.937,0.827,1.357,1.321c1.78,1.87,3.461,4.209,4.667,7.037c1.215,2.815,1.978,6.104,1.959,9.644
						c0.006,3.522,0.012,7.273,0.018,11.246c0.036,31.786,0.089,77.773,0.154,134.597c0.046,56.827,0.101,124.491,0.162,199.623
						c0.007,9.392,0.013,18.9,0.02,28.518c-0.008,2.406,0.024,4.812-0.016,7.238c-0.016,2.447-0.487,4.877-1.219,7.217
						c-1.56,4.652-4.539,8.877-8.544,11.821c-1.978,1.496-4.191,2.708-6.559,3.501c-2.355,0.802-4.836,1.341-7.348,1.366
						c-4.98,0.079-9.963,0.028-14.982,0.048c-10.033,0.006-20.162,0.013-30.382,0.019c-20.44,0.012-41.241,0.025-62.352,0.037
						c-10.555,0.006-21.187,0.012-31.89,0.018c-5.352,0.003-10.721,0.006-16.107,0.009c-2.693-0.024-5.384,0.091-8.114-0.172
						c-2.72-0.279-5.371-1.105-7.836-2.282c-2.465-1.19-4.728-2.787-6.674-4.705c-1.928-1.937-3.518-4.197-4.704-6.645
						c-1.176-2.45-1.987-5.087-2.275-7.79c-0.253-2.716-0.143-5.388-0.17-8.066c-0.005-10.706-0.011-21.342-0.016-31.9
						c-0.01-21.116-0.02-41.923-0.029-62.368c-0.016-40.89-0.032-80.331-0.047-117.903c-0.011-37.572-0.022-73.275-0.033-106.688
						c-0.004-16.707-0.007-32.841-0.011-48.35c0-1.939-0.001-3.868-0.001-5.787c-0.008-1.912-0.025-3.839,0.216-5.742
						c0.494-3.797,1.882-7.427,3.976-10.535c4.25-6.187,11.25-10.172,18.416-10.588c1.792-0.13,3.551-0.081,5.307-0.091
						c1.755,0,3.498,0,5.232,0c3.466,0,6.889-0.001,10.268-0.001c3.379,0,6.714,0,10.004-0.001c0.818,0.014,1.644-0.045,2.481,0.086
						c0.828,0.128,1.625,0.42,2.345,0.835c1.448,0.824,2.548,2.201,3.05,3.762c0.904,3.068,1.794,6.093,2.672,9.073
						c0.496,1.437,1.459,2.692,2.688,3.547c1.227,0.862,2.711,1.318,4.188,1.318c6.028,0,11.866,0.001,17.509,0.001
						c11.286,0.002,21.789,0.003,31.457,0.005c4.834,0.001,9.459,0.003,13.869,0.004c1.102,0,2.191,0.001,3.267,0.001
						c1.078-0.002,2.137,0.043,3.138-0.238c2.002-0.521,3.704-1.891,4.609-3.629c0.478-0.857,0.686-1.819,0.969-2.744
						c0.271-0.926,0.538-1.84,0.801-2.739c0.552-1.795,0.976-3.552,1.59-5.226c0.704-1.647,2.077-2.898,3.617-3.52
						c1.564-0.678,3.223-0.462,4.73-0.497c6.115,0.007,11.291,0.012,15.475,0.017c4.18,0.009,7.368,0.016,9.516,0.021
						C323.082,45.589,324.18,45.606,324.18,45.606s-1.098,0.018-3.242,0.028c-2.148,0.007-5.336,0.017-9.516,0.031
						c-4.184,0.009-9.359,0.02-15.474,0.033c-1.52,0.038-3.153-0.168-4.667,0.497c-1.5,0.61-2.835,1.833-3.516,3.437
						c-0.594,1.632-1.026,3.421-1.571,5.208c-0.261,0.9-0.526,1.814-0.795,2.741c-0.279,0.917-0.487,1.894-0.979,2.784
						c-0.927,1.789-2.674,3.201-4.734,3.741c-1.032,0.292-2.126,0.248-3.192,0.251c-1.075,0.002-2.164,0.003-3.267,0.005
						c-4.41,0.006-9.035,0.012-13.869,0.019c-9.668,0.012-20.171,0.024-31.457,0.038c-5.643,0.006-11.482,0.013-17.509,0.019
						c-1.538,0.002-3.089-0.473-4.369-1.37c-1.284-0.891-2.29-2.2-2.81-3.701c-0.881-2.981-1.776-6.007-2.683-9.076
						c-0.479-1.484-1.525-2.792-2.903-3.574c-0.685-0.394-1.443-0.671-2.23-0.792c-0.781-0.123-1.605-0.067-2.429-0.079
						c-3.29,0.003-6.625,0.007-10.004,0.01c-3.379,0.003-6.802,0.007-10.268,0.01c-1.733,0.002-3.477,0.003-5.232,0.005
						c-1.753,0.011-3.526-0.035-5.28,0.094c-7.058,0.414-13.945,4.346-18.124,10.437c-2.058,3.061-3.42,6.632-3.904,10.368
						c-0.236,1.865-0.219,3.77-0.209,5.692c0.002,1.919,0.003,3.848,0.005,5.787c0.013,15.509,0.027,31.643,0.041,48.35
						c0.025,33.414,0.052,69.116,0.081,106.688c0.025,37.572,0.051,77.013,0.078,117.903c0.012,20.445,0.025,41.252,0.037,62.368
						c0.006,10.558,0.012,21.194,0.018,31.9c0.026,2.672-0.08,5.374,0.167,8.008c0.281,2.645,1.076,5.224,2.226,7.621
						c1.161,2.395,2.716,4.607,4.604,6.503c1.905,1.877,4.12,3.44,6.533,4.605c2.413,1.151,5.006,1.961,7.669,2.233
						c2.649,0.257,5.366,0.146,8.055,0.169c5.386-0.003,10.755-0.006,16.107-0.008c10.703-0.005,21.335-0.011,31.891-0.016
						c21.11-0.01,41.912-0.02,62.352-0.029c10.22-0.004,20.349-0.009,30.382-0.013c5.013-0.019,10.017,0.034,14.967-0.044
						c2.462-0.023,4.891-0.551,7.198-1.336c2.32-0.776,4.489-1.963,6.426-3.428c3.926-2.883,6.844-7.023,8.374-11.578
						c0.717-2.292,1.181-4.672,1.197-7.07c0.041-2.409,0.01-4.827,0.018-7.23c-0.004-9.618-0.007-19.127-0.01-28.518
						c-0.019-75.132-0.036-142.796-0.05-199.624c0.005-56.824,0.009-102.811,0.011-134.597c0.002-3.973,0.004-7.723,0.006-11.246
						c0.027-3.517-0.723-6.783-1.922-9.583c-1.191-2.813-2.854-5.143-4.62-7.009c-0.417-0.493-0.888-0.909-1.346-1.318
						c-0.458-0.408-0.883-0.832-1.366-1.161c-0.467-0.349-0.923-0.688-1.366-1.019c-0.472-0.287-0.931-0.566-1.377-0.837
						c-3.611-2.123-6.817-2.802-8.923-3.064c-0.264-0.041-0.513-0.08-0.745-0.116c-0.234-0.013-0.453-0.025-0.655-0.037
						c-0.403-0.023-0.74-0.042-1.012-0.057C324.455,45.629,324.18,45.606,324.18,45.606z"/>
				</g>
			</g>
		</g>
	</g>
</g>
<g id="Character">
	<g>
		<g>
			<g>
				<g>
					<g>
						<g>
							<path style="fill:#FFBE9D;" d="M335.102,215.169c0,0-3.829-3.374-9.111-4.579c-5.281-1.205-16.179-0.755-16.179-0.755
								s-12.389,2.809-12.647,3.94c-0.258,1.132,0.458,2.168,2.272,1.868c1.815-0.3,10.034-0.489,10.034-0.489
								s-0.76,2.287,0.443,3.276c1.203,0.989,2.09,1.046,2.09,1.046s-0.539,2.245,0.067,3.415c0.606,1.17,1.408,1.83,1.408,1.83
								s-0.635,1.046,0.458,2.168c1.093,1.123,2.382,1.734,2.382,1.734s5.759-0.194,7.149-1.067c1.39-0.873,3.173-2.095,3.173-2.095
								l2.271,0.105l3.854,3.168L335.102,215.169z"/>
						</g>
					</g>
				</g>
			</g>
		</g>
		<g>
			<g>
				<g>
					<g>
						<g>
							<g>
								<g>
									<path style="fill:#455A64;" d="M376.248,440.6l1.483,22.387c0,0-22.282,7.394-22.411,11.558l43.536,0.315l-0.879-34.978
										L376.248,440.6z"/>
								</g>
							</g>
						</g>
					</g>
				</g>
				<g style="opacity:0.6;">
					<g>
						<g>
							<g>
								<g>
									<g>
										<path style="fill:#FFFFFF;" d="M391.128,460.696c0.849,0.205,1.46,1.134,1.29,1.991c-0.17,0.857-1.109,1.486-1.962,1.296
											c-0.852-0.19-1.62-1.283-1.355-2.115c0.264-0.832,1.408-1.511,2.19-1.122"/>
									</g>
								</g>
							</g>
						</g>
					</g>
				</g>
				<g style="opacity:0.6;">
					<g>
						<g>
							<g>
								<g>
									<path style="fill:#FFFFFF;" d="M398.855,474.862l-0.089-3.526l-41.495,0.719c0,0-1.73,0.73-1.952,2.491L398.855,474.862z"
										/>
								</g>
							</g>
						</g>
					</g>
				</g>
				<g>
					<g>
						<g>
							<g>
								<g>
									<g>
										<path style="fill:#263238;" d="M377.018,462.788c0.013,0.212,1.079,0.276,2.145,0.928c1.083,0.624,1.65,1.528,1.843,1.438
											c0.195-0.047-0.161-1.308-1.465-2.074C378.243,462.302,376.967,462.594,377.018,462.788z"/>
									</g>
								</g>
							</g>
						</g>
					</g>
				</g>
				<g>
					<g>
						<g>
							<g>
								<g>
									<g>
										<path style="fill:#263238;" d="M372.512,464.814c-0.043,0.207,0.889,0.541,1.637,1.418
											c0.775,0.855,0.986,1.821,1.197,1.805c0.201,0.027,0.31-1.222-0.642-2.294
											C373.763,464.662,372.51,464.611,372.512,464.814z"/>
									</g>
								</g>
							</g>
						</g>
					</g>
				</g>
				<g>
					<g>
						<g>
							<g>
								<g>
									<g>
										<path style="fill:#263238;" d="M370.085,470.354c0.195,0.039,0.458-1.031-0.123-2.178c-0.573-1.151-1.588-1.58-1.673-1.4
											c-0.115,0.178,0.549,0.783,1.012,1.732C369.785,469.445,369.874,470.339,370.085,470.354z"/>
									</g>
								</g>
							</g>
						</g>
					</g>
				</g>
				<g>
					<g>
						<g>
							<g>
								<g>
									<g>
										<path style="fill:#263238;" d="M377.247,457.648c0.095,0.191,1.061-0.132,2.264-0.087c1.204,0.021,2.151,0.396,2.256,0.21
											c0.118-0.157-0.818-0.916-2.236-0.949C378.114,456.778,377.137,457.485,377.247,457.648z"/>
									</g>
								</g>
							</g>
						</g>
					</g>
				</g>
			</g>
			<g style="opacity:0.3;">
				<g>
					<g>
						<g>
							<g>
								<polygon points="376.547,445.034 376.806,449.024 398.185,448.182 398.103,444.583 								"/>
							</g>
						</g>
					</g>
				</g>
			</g>
			<g>
				<g>
					<g>
						<g>
							<g>
								<g>
									<path style="fill:#263238;" d="M377.031,453.126c0,0.088,0.844,0.194,2.179-0.077c0.664-0.136,1.444-0.378,2.259-0.769
										c0.407-0.196,0.821-0.429,1.231-0.702c0.197-0.135,0.43-0.272,0.643-0.532c0.229-0.229,0.345-0.796,0.063-1.133
										c-0.233-0.327-0.632-0.46-0.946-0.458c-0.321-0.001-0.579,0.072-0.814,0.138c-0.481,0.132-0.93,0.307-1.341,0.506
										c-0.82,0.403-1.481,0.902-1.969,1.379c-0.981,0.965-1.302,1.769-1.228,1.809c0.098,0.067,0.569-0.613,1.573-1.416
										c0.501-0.399,1.143-0.816,1.91-1.154c0.385-0.167,0.8-0.313,1.24-0.424c0.457-0.135,0.849-0.15,0.974,0.051
										c0.045,0.077,0.052,0.108-0.04,0.245c-0.096,0.128-0.279,0.255-0.473,0.389c-0.377,0.263-0.758,0.492-1.131,0.693
										c-0.748,0.4-1.466,0.678-2.082,0.871C377.842,452.928,377.024,453.011,377.031,453.126z"/>
								</g>
							</g>
						</g>
					</g>
				</g>
			</g>
			<g>
				<g>
					<g>
						<g>
							<g>
								<g>
									<path style="fill:#263238;" d="M377.317,453.422c0.076,0.031,0.475-0.744,0.511-2.122c0.016-0.683-0.08-1.508-0.369-2.377
										c-0.147-0.433-0.342-0.875-0.595-1.307c-0.268-0.422-0.596-0.988-1.423-1.058c-0.431-0.003-0.779,0.344-0.892,0.635
										c-0.135,0.299-0.156,0.552-0.2,0.806c-0.065,0.511-0.04,1.009,0.043,1.468c0.165,0.922,0.567,1.681,0.999,2.223
										c0.885,1.102,1.779,1.329,1.794,1.256c0.068-0.109-0.685-0.497-1.369-1.561c-0.337-0.525-0.643-1.22-0.751-2.027
										c-0.055-0.402-0.062-0.829,0.002-1.26c0.054-0.465,0.216-0.843,0.391-0.801c0.216-0.01,0.595,0.327,0.784,0.691
										c0.235,0.383,0.425,0.777,0.575,1.165c0.296,0.778,0.438,1.527,0.488,2.162C377.403,452.591,377.2,453.394,377.317,453.422
										z"/>
								</g>
							</g>
						</g>
					</g>
				</g>
			</g>
		</g>
		<g>
			<g>
				<g>
					<g>
						<g>
							<g>
								<g>
									<path style="fill:#455A64;" d="M433.25,441.523l8.079,20.932c0,0-19.072,13.691-17.955,17.705l41.656-12.656
										l-11.249-33.131L433.25,441.523z"/>
								</g>
							</g>
						</g>
					</g>
				</g>
				<g style="opacity:0.6;">
					<g>
						<g>
							<g>
								<g>
									<g>
										<path style="fill:#FFFFFF;" d="M453.436,456.279c0.872-0.057,1.731,0.648,1.824,1.517
											c0.093,0.868-0.617,1.749-1.487,1.821c-0.87,0.073-1.928-0.743-1.923-1.616c0.005-0.873,0.895-1.861,1.757-1.723"/>
									</g>
								</g>
							</g>
						</g>
					</g>
				</g>
				<g style="opacity:0.6;">
					<g>
						<g>
							<g>
								<g>
									<path style="fill:#FFFFFF;" d="M465.03,467.504l-1.134-3.34l-39.797,13.623c0,0-1.155,0.993-0.843,2.74L465.03,467.504z"/>
								</g>
							</g>
						</g>
					</g>
				</g>
				<g>
					<g>
						<g>
							<g>
								<g>
									<g>
										<path style="fill:#263238;" d="M440.589,462.476c0.076,0.199,1.112-0.057,2.324,0.248c1.22,0.273,2.03,0.967,2.187,0.824
											c0.172-0.103-0.543-1.201-2.016-1.544C441.614,461.647,440.482,462.306,440.589,462.476z"/>
									</g>
								</g>
							</g>
						</g>
					</g>
				</g>
				<g>
					<g>
						<g>
							<g>
								<g>
									<g>
										<path style="fill:#263238;" d="M436.89,465.751c0.021,0.211,1.009,0.252,1.985,0.866c0.994,0.585,1.483,1.445,1.68,1.367
											c0.2-0.034-0.067-1.259-1.295-1.999C438.039,465.234,436.828,465.558,436.89,465.751z"/>
									</g>
								</g>
							</g>
						</g>
					</g>
				</g>
				<g>
					<g>
						<g>
							<g>
								<g>
									<g>
										<path style="fill:#263238;" d="M436.222,471.763c0.197-0.02,0.13-1.121-0.766-2.043c-0.889-0.929-1.987-1.036-2.014-0.839
											c-0.056,0.204,0.757,0.584,1.481,1.353C435.665,470.984,436.015,471.812,436.222,471.763z"/>
									</g>
								</g>
							</g>
						</g>
					</g>
				</g>
				<g>
					<g>
						<g>
							<g>
								<g>
									<g>
										<path style="fill:#263238;" d="M439.277,457.501c0.147,0.154,0.973-0.441,2.136-0.757
											c1.156-0.339,2.171-0.262,2.216-0.471c0.066-0.185-1.053-0.631-2.417-0.241
											C439.846,456.413,439.124,457.378,439.277,457.501z"/>
									</g>
								</g>
							</g>
						</g>
					</g>
				</g>
			</g>
			<g style="opacity:0.3;">
				<g>
					<g>
						<g>
							<g>
								<polygon points="434.854,445.667 436.289,449.399 456.449,442.233 455.3,438.821 								"/>
							</g>
						</g>
					</g>
				</g>
			</g>
			<g>
				<g>
					<g>
						<g>
							<g>
								<g>
									<path style="fill:#263238;" d="M437.725,453.248c0.026,0.084,0.863-0.066,2.057-0.722c0.594-0.327,1.266-0.791,1.927-1.407
										c0.33-0.308,0.657-0.654,0.966-1.037c0.148-0.188,0.33-0.388,0.455-0.699c0.15-0.286,0.093-0.863-0.277-1.101
										c-0.32-0.243-0.74-0.251-1.039-0.155c-0.307,0.095-0.531,0.241-0.736,0.374c-0.42,0.269-0.797,0.57-1.129,0.882
										c-0.663,0.629-1.145,1.302-1.47,1.903c-0.65,1.214-0.716,2.077-0.634,2.092c0.114,0.035,0.361-0.755,1.081-1.82
										c0.359-0.53,0.848-1.119,1.48-1.67c0.318-0.274,0.67-0.537,1.057-0.773c0.396-0.265,0.766-0.396,0.945-0.241
										c0.066,0.06,0.081,0.087,0.034,0.246c-0.054,0.15-0.19,0.326-0.335,0.512c-0.282,0.363-0.577,0.696-0.874,0.998
										c-0.595,0.604-1.197,1.084-1.728,1.451C438.441,452.818,437.684,453.141,437.725,453.248z"/>
								</g>
							</g>
						</g>
					</g>
				</g>
			</g>
			<g>
				<g>
					<g>
						<g>
							<g>
								<g>
									<path style="fill:#263238;" d="M438.086,453.446c0.082,0.007,0.232-0.851-0.144-2.178c-0.188-0.657-0.525-1.416-1.06-2.159
										c-0.269-0.37-0.587-0.733-0.957-1.07c-0.382-0.323-0.864-0.766-1.674-0.587c-0.412,0.125-0.641,0.56-0.662,0.872
										c-0.04,0.325,0.016,0.574,0.049,0.829c0.09,0.507,0.262,0.975,0.478,1.389c0.432,0.831,1.042,1.436,1.615,1.825
										c1.172,0.789,2.094,0.739,2.087,0.665c0.032-0.124-0.802-0.27-1.771-1.082c-0.478-0.4-0.977-0.973-1.321-1.711
										c-0.172-0.367-0.305-0.773-0.373-1.204c-0.087-0.459-0.045-0.869,0.135-0.881c0.203-0.074,0.665,0.135,0.954,0.426
										c0.339,0.296,0.637,0.615,0.896,0.941c0.515,0.654,0.873,1.328,1.109,1.919
										C437.921,452.627,437.966,453.453,438.086,453.446z"/>
								</g>
							</g>
						</g>
					</g>
				</g>
			</g>
		</g>
		<g>
			<g>
				<g>
					<g>
						<g>
							<path style="fill:#263238;" d="M364.881,109.101c-1.761-2.917-0.859-6.939,1.526-9.373c2.385-2.434,5.925-3.452,9.333-3.468
								c3.408-0.016,6.749,0.862,10.042,1.735c2.328-3.253,6.557-5.03,10.51-4.416c3.952,0.613,7.444,3.589,8.677,7.394
								c2.293-0.997,5.123-0.62,7.075,0.943c1.952,1.563,2.939,4.242,2.468,6.697l-14.182,7.738l-11.718,31.58
								c-4.135,4.883-12.009,6.053-17.385,2.583c-5.376-3.47-7.553-11.127-4.807-16.906c-1.061-0.66-1.982-1.515-2.773-2.478
								c-2.867-1.185-5.314-3.364-6.478-6.254C354.702,118.756,358.536,110.914,364.881,109.101z"/>
						</g>
					</g>
					<g>
						<g>
							<g>
								<g>
									<g>
										<g>
											<g>
												<g>
													<g>
														<g>
															<g>
																<g>
																	<g>
																		<g>
																			<g>
																				<g>
																					<g>
																						<g>
																							<g>
																								<path style="fill:#FFBE9D;" d="M384.665,167.736c0.167-4.857,0.293-8.185,0.289-8.15
																									c0,0-9.434-2.008-10.842-14.498c-0.7-6.211,0.066-16.309,0.961-24.551
																									c0.805-7.419,6.147-16.324,13.524-15.204l22.883,6.896c2.241,0.34,2.94,2.279,2.793,4.541l0.139,1.069
																									l-2.684,35.466l-0.997,15.818c-0.484,6.74-6.031,11.997-12.788,12.117l0,0
																									C390.466,181.373,384.408,175.21,384.665,167.736z"/>
																							</g>
																						</g>
																					</g>
																				</g>
																			</g>
																		</g>
																	</g>
																</g>
															</g>
															<g>
																<g>
																	<g>
																		<g>
																			<g>
																				<g>
																					<g>
																						<g>
																							<g>
																								<g>
																									<path style="fill:#263238;" d="M377.803,131.766c-0.068,0.839,0.587,1.587,1.461,1.674
																										c0.873,0.086,1.637-0.521,1.704-1.36c0.068-0.839-0.586-1.588-1.459-1.675
																										C378.635,130.319,377.871,130.928,377.803,131.766z"/>
																								</g>
																							</g>
																						</g>
																					</g>
																				</g>
																			</g>
																		</g>
																	</g>
																</g>
																<g>
																	<g>
																		<g>
																			<g>
																				<g>
																					<g>
																						<g>
																							<g>
																								<g>
																									<g>
																										<path style="fill:#263238;" d="M377.368,127.142c0.188,0.216,1.433-0.621,3.144-0.539
																											c1.711,0.057,2.927,0.994,3.122,0.793c0.095-0.089-0.089-0.472-0.618-0.895
																											c-0.52-0.421-1.421-0.848-2.488-0.892c-1.066-0.042-1.981,0.31-2.514,0.688
																											C377.47,126.677,377.275,127.044,377.368,127.142z"/>
																									</g>
																								</g>
																							</g>
																						</g>
																					</g>
																				</g>
																			</g>
																		</g>
																	</g>
																</g>
															</g>
															<g>
																<g>
																	<g>
																		<g>
																			<g>
																				<g>
																					<g>
																						<g>
																							<g>
																								<g>
																									<path style="fill:#263238;" d="M392.542,132.142c-0.068,0.839,0.587,1.587,1.461,1.674
																										c0.873,0.086,1.637-0.521,1.704-1.36c0.068-0.838-0.587-1.588-1.46-1.675
																										C393.373,130.695,392.609,131.304,392.542,132.142z"/>
																								</g>
																							</g>
																						</g>
																					</g>
																				</g>
																			</g>
																		</g>
																	</g>
																</g>
																<g>
																	<g>
																		<g>
																			<g>
																				<g>
																					<g>
																						<g>
																							<g>
																								<g>
																									<g>
																										<path style="fill:#263238;" d="M393.725,127.553c0.188,0.216,1.435-0.621,3.145-0.539
																											c1.71,0.057,2.927,0.994,3.122,0.793c0.095-0.089-0.087-0.472-0.618-0.895
																											c-0.52-0.421-1.421-0.848-2.487-0.892c-1.066-0.042-1.981,0.31-2.514,0.688
																											C393.829,127.089,393.633,127.456,393.725,127.553z"/>
																									</g>
																								</g>
																							</g>
																						</g>
																					</g>
																				</g>
																			</g>
																		</g>
																	</g>
																</g>
															</g>
															<g>
																<g>
																	<g>
																		<g>
																			<g>
																				<g>
																					<g>
																						<g>
																							<g>
																								<g>
																									<path style="fill:#263238;" d="M387.051,139.388c0.012-0.097-1.043-0.329-2.757-0.627
																										c-0.435-0.065-0.845-0.17-0.905-0.472c-0.089-0.321,0.115-0.783,0.35-1.282
																										c0.459-1.039,0.939-2.128,1.443-3.269c2.009-4.657,3.484-8.494,3.296-8.573
																										c-0.188-0.079-1.97,3.631-3.978,8.288c-0.484,1.149-0.948,2.244-1.389,3.292
																										c-0.188,0.489-0.498,1.04-0.304,1.705c0.103,0.332,0.413,0.583,0.69,0.671
																										c0.276,0.098,0.522,0.114,0.737,0.137C385.964,139.428,387.04,139.485,387.051,139.388z"/>
																								</g>
																							</g>
																						</g>
																					</g>
																				</g>
																			</g>
																		</g>
																	</g>
																</g>
															</g>
															<g>
																<g>
																	<g>
																		<g>
																			<g>
																				<g>
																					<g>
																						<g>
																							<g>
																								<path style="fill:#EB996E;" d="M384.953,159.586c0,0,8.319,0.915,16.808-3.68c0,0-4.585,8.563-16.944,6.842
																									L384.953,159.586z"/>
																							</g>
																						</g>
																					</g>
																				</g>
																			</g>
																		</g>
																	</g>
																</g>
															</g>
														</g>
													</g>
												</g>
												<g>
													<g>
														<g>
															<g>
																<g>
																	<g>
																		<g>
																			<g>
																				<g>
																					<path style="fill:#263238;" d="M393.922,122.909c0.188,0.459,1.888,0.169,3.906,0.33
																						c2.021,0.12,3.665,0.643,3.914,0.215c0.111-0.205-0.189-0.631-0.862-1.055
																						c-0.667-0.424-1.72-0.809-2.931-0.895c-1.211-0.083-2.307,0.153-3.027,0.48
																						C394.197,122.31,393.84,122.691,393.922,122.909z"/>
																				</g>
																			</g>
																		</g>
																	</g>
																</g>
															</g>
														</g>
													</g>
												</g>
												<g>
													<g>
														<g>
															<g>
																<g>
																	<g>
																		<g>
																			<g>
																				<g>
																					<path style="fill:#263238;" d="M377.541,122.145c0.339,0.405,1.752,0.064,3.43,0.121
																						c1.679,0.007,3.086,0.401,3.431,0.009c0.152-0.191-0.054-0.59-0.658-0.986
																						c-0.595-0.394-1.604-0.74-2.758-0.763c-1.154-0.021-2.168,0.286-2.77,0.658
																						C377.606,121.557,377.393,121.948,377.541,122.145z"/>
																				</g>
																			</g>
																		</g>
																	</g>
																</g>
															</g>
														</g>
													</g>
												</g>
											</g>
										</g>
									</g>
								</g>
								<g>
									<g>
										<g>
											<path style="fill:#263238;" d="M404.965,105.107c-0.097,2.483-1.348,4.897-3.32,6.408
												c-1.972,1.512-4.628,2.092-7.051,1.54c-1.88-0.428-3.915-1.475-5.599-0.536c-1.771,0.988-1.954,3.585-3.541,4.847
												c-2.268,1.804-5.668-0.126-8.479,0.578c-2.171,0.544-3.598,2.535-5.096,4.197c-1.498,1.662-3.702,3.209-5.818,2.481
												c0.219-1.921,0.444-3.862,1.096-5.682c0.653-1.82,1.784-3.535,3.448-4.52c0.912-0.54,1.957-0.848,2.81-1.477
												c1.841-1.36,2.361-3.842,3.545-5.8c1.527-2.524,4.341-4.222,7.286-4.395c2.451-0.145,4.933,0.696,7.337,0.198
												c1.777-0.368,3.361-1.443,5.157-1.705c3.497-0.51,6.614,2.117,9.022,4.704"/>
										</g>
									</g>
								</g>
							</g>
						</g>
						<g>
							<g>
								<path style="fill:#263238;" d="M393.652,109.566c1.574-0.378,4.799-1.248,5.691-2.561c1.937-2.852,5.216-4.714,8.471-4.396
									c3.255,0.319,6.276,3.03,6.796,6.504c3.946,0.199,7.692,2.844,9.426,6.657c1.734,3.813,1.387,8.639-0.874,12.145
									c-0.592,0.918-1.396,2.943-1.396,2.943s1.723,1.553,2.47,2.679c3.461,5.216-3.091,8.499-3.091,8.499
									c0.598,3.788-2.893,4.339-5.134,4.693c-2.154,0.34-2.506,6.524-4.285,6.576l-1.236-18.722
									c-0.201,0.121-0.456,0.22-0.792,0.281c-4.207,0.764-4.407-7.398-3.378-9.685c-1.45-1.403-2.916-2.826-3.992-4.576
									c-1.077-1.75-1.89-6.43-1.556-8.507C399.268,112.12,392.961,109.732,393.652,109.566z"/>
							</g>
						</g>
						<g>
							<g>
								<g>
									<g>
										<g>
											<g>
												<g>
													<g>
														<g>
															<g>
																<g>
																	<g>
																		<g>
																			<path style="fill:#FFBE9D;" d="M410.02,135.663c0.245-2.633,3.195-4.271,5.426-2.85
																				c1.225,0.78,2.122,2.28,1.887,5.077c-0.629,7.458-7.986,5.288-7.981,5.073
																				C409.355,142.829,409.733,138.746,410.02,135.663z"/>
																		</g>
																	</g>
																</g>
															</g>
														</g>
													</g>
												</g>
											</g>
										</g>
									</g>
								</g>
							</g>
							<g>
								<g>
									<g>
										<g>
											<g>
												<g>
													<g>
														<g>
															<g>
																<g>
																	<g>
																		<g>
																			<g>
																				<path style="fill:#EB996E;" d="M411.868,140.329c0.035-0.021,0.122,0.102,0.334,0.221
																					c0.206,0.116,0.568,0.215,0.969,0.102c0.812-0.223,1.581-1.418,1.73-2.759c0.076-0.677-0.011-1.335-0.207-1.891
																					c-0.181-0.565-0.502-0.976-0.893-1.079c-0.387-0.124-0.688,0.089-0.797,0.291
																					c-0.118,0.2-0.083,0.353-0.123,0.363c-0.023,0.017-0.15-0.139-0.064-0.441c0.043-0.145,0.146-0.314,0.333-0.443
																					c0.191-0.13,0.46-0.182,0.734-0.129c0.572,0.088,1.045,0.661,1.26,1.27c0.246,0.615,0.361,1.356,0.275,2.117
																					c-0.174,1.499-1.062,2.84-2.167,3.061c-0.536,0.093-0.96-0.102-1.171-0.298
																					C411.866,140.51,411.841,140.341,411.868,140.329z"/>
																			</g>
																		</g>
																	</g>
																</g>
															</g>
														</g>
													</g>
												</g>
											</g>
										</g>
									</g>
								</g>
							</g>
						</g>
					</g>
					<g>
						<g>
							<g>
								<path style="fill:#455A64;" d="M369.958,131.92c0.035-0.061-0.73-0.394-1.827-1.363c-1.076-0.963-2.473-2.673-3.144-5.201
									c-0.33-1.249-0.5-2.69-0.274-4.192c0.227-1.493,0.815-3.054,1.9-4.368c2.104-2.648,6.025-4.355,9.906-3.66
									c0.353,0.053,0.69,0.17,1.029,0.249c0.33,0.11,0.646,0.242,0.956,0.355l0.482,0.176l-0.074-0.492
									c-0.13-0.865,0.058-1.753,0.519-2.486c0.455-0.736,1.1-1.343,1.816-1.804c1.451-0.943,3.129-1.228,4.721-1.128
									c3.186,0.197,6.021,1.176,8.528,1.058c2.488-0.086,4.414-1.021,5.369-2.021c0.499-0.485,0.744-0.974,0.907-1.291
									c0.129-0.338,0.187-0.515,0.168-0.521c-0.065-0.038-0.246,0.742-1.227,1.654c-0.959,0.907-2.825,1.746-5.229,1.778
									c-1.194,0.018-2.507-0.196-3.913-0.47c-1.407-0.268-2.923-0.619-4.577-0.715c-0.825-0.04-1.684-0.029-2.557,0.159
									c-0.865,0.188-1.713,0.53-2.496,1.02c-0.777,0.495-1.489,1.152-2.006,1.982c-0.523,0.822-0.758,1.872-0.602,2.882
									l0.408-0.315c-0.33-0.123-0.668-0.264-1.02-0.38c-0.361-0.086-0.721-0.209-1.096-0.266
									c-4.128-0.734-8.226,1.079-10.435,3.899c-1.136,1.401-1.745,3.07-1.96,4.64c-0.216,1.582-0.012,3.08,0.356,4.37
									c0.75,2.608,2.248,4.331,3.396,5.263c0.581,0.47,1.074,0.783,1.429,0.949C369.762,131.856,369.949,131.939,369.958,131.92z"
									/>
							</g>
						</g>
					</g>
					<g>
						<g>
							<g>
								<path style="fill:#455A64;" d="M367.312,106.523c0.054,0.074,0.669-0.688,2.177-1.168c0.745-0.223,1.708-0.376,2.78-0.199
									c1.065,0.15,2.244,0.647,3.155,1.591l0.337,0.349l0.095-0.473c0.509-2.548,2.766-5.259,5.967-6.148
									c2.402-0.68,4.809,0.059,6.834,0.822c2.043,0.788,3.92,1.578,5.609,1.833c1.677,0.299,3.092,0.131,3.991-0.178
									c0.45-0.156,0.781-0.323,0.992-0.455c0.21-0.135,0.314-0.213,0.304-0.231c-0.027-0.049-0.473,0.229-1.361,0.466
									c-0.886,0.231-2.236,0.329-3.85-0.011c-1.626-0.298-3.429-1.102-5.492-1.93c-1.036-0.399-2.149-0.8-3.367-1.014
									c-1.209-0.225-2.538-0.219-3.816,0.131c-3.436,0.956-5.809,3.869-6.309,6.612l0.431-0.124
									c-1.029-1.029-2.324-1.527-3.465-1.652c-1.149-0.152-2.163,0.053-2.932,0.329c-0.773,0.286-1.307,0.666-1.636,0.951
									C367.438,106.324,367.295,106.508,367.312,106.523z"/>
							</g>
						</g>
					</g>
					<g>
						<g>
							<path style="fill:#FF725E;" d="M388.242,142.958c0.425-0.57,1.153-0.852,1.863-0.886c0.667-0.032,1.568,0.421,2.099,1.063
								c0.013,0.012,0.023,0.025,0.035,0.037c0.023,0.029,0.056,0.052,0.077,0.081l-0.03-0.014c0.193,0.227,0.33,0.509,0.346,0.807
								c0.036,0.669-0.374,1.302-0.917,1.695c-0.863,0.624-2.132,0.691-2.985,0.053
								C387.876,145.156,387.605,143.812,388.242,142.958z"/>
						</g>
					</g>
					<g>
						<g>
							<g>
								<path style="fill:#263238;" d="M392.612,141.417c-0.099-0.022-0.234,0.374-0.587,0.902c-0.345,0.526-0.958,1.181-1.821,1.55
									c-0.865,0.367-1.762,0.354-2.38,0.239c-0.626-0.111-1.005-0.288-1.058-0.202c-0.047,0.066,0.258,0.404,0.933,0.657
									c0.659,0.253,1.723,0.362,2.766-0.08c1.041-0.446,1.699-1.288,1.974-1.939C392.724,141.883,392.692,141.429,392.612,141.417
									z"/>
							</g>
						</g>
					</g>
				</g>
				<g>
					<g>
						<g>
							<path style="fill:#263238;" d="M420.559,119.966c0.009,0.01,0.119-0.078,0.321-0.256c0.194-0.185,0.483-0.459,0.808-0.854
								c0.64-0.781,1.524-2.049,1.883-3.88c0.17-0.907,0.179-1.952-0.105-3.012c-0.279-1.054-0.843-2.137-1.764-2.979
								c-0.904-0.849-2.22-1.383-3.58-1.312c-1.345,0.042-2.784,0.647-3.629,1.866l0.349,0.169c0.008-0.025,0.016-0.053,0.024-0.081
								c0.83-2.689,0.732-5.594-0.465-7.783c-1.163-2.194-3.264-3.519-5.138-3.663c-1.891-0.152-3.337,0.625-4.091,1.305
								c-0.394,0.34-0.621,0.678-0.774,0.9c-0.133,0.237-0.197,0.363-0.185,0.37c0.04,0.029,0.276-0.512,1.058-1.153
								c0.759-0.624,2.172-1.325,3.966-1.145c1.769,0.17,3.752,1.452,4.846,3.557c1.122,2.09,1.215,4.883,0.408,7.498
								c-0.008,0.027-0.016,0.054-0.023,0.079l-0.34,1.165l0.689-0.996c0.756-1.093,2.07-1.66,3.321-1.704
								c1.266-0.068,2.468,0.41,3.322,1.195c0.866,0.778,1.414,1.797,1.693,2.798c0.283,1.007,0.292,1.999,0.146,2.877
								c-0.31,1.769-1.135,3.035-1.73,3.833C420.956,119.563,420.533,119.939,420.559,119.966z"/>
						</g>
					</g>
				</g>
			</g>
		</g>
		<g>
			<g>
				<g>
					<g>
						<g>
							<path style="fill:#263238;" d="M370.933,259.973c0,0-9.604,20.473-9.604,33.546s9.941,152.295,9.941,152.295l34.031-1.231
								l-9.58-184.396L370.933,259.973z"/>
						</g>
					</g>
				</g>
				<g>
					<g>
						<g>
							<path style="fill:#263238;" d="M387.897,288.659c0,2.329,10.288,96.672,10.288,96.672l28.531,64.123l31.79-10.711
								l-26.927-62.9c0,0,1.527-45.594,2.757-62.411c0.925-12.652,2.114-24.522,1.514-29.726
								c-0.842-7.299-3.999-12.589-5.717-14.842c-3.071-4.029-3.9-3.142-7.064-7.4c-4.386-5.901-35.171-1.493-35.171-1.493V288.659z
								"/>
						</g>
					</g>
				</g>
			</g>
			<g>
				<g>
					<path style="fill:#455A64;" d="M426.716,449.455c-0.007,0.003-0.063-0.102-0.164-0.31c-0.109-0.23-0.254-0.537-0.439-0.93
						c-0.388-0.847-0.943-2.057-1.655-3.612c-1.434-3.178-3.499-7.756-6.073-13.46c-5.133-11.482-12.291-27.492-20.434-45.707
						l-0.018-0.039l-0.004-0.044c-0.413-4.901-0.865-10.002-1.388-15.207c-1.164-11.742-2.443-22.912-3.506-33.083
						c-1.076-10.17-1.918-19.344-2.472-27.059c-0.569-7.715-0.817-13.971-0.976-18.293c-0.046-2.142-0.082-3.815-0.107-4.979
						c-0.006-0.55-0.01-0.98-0.014-1.295c0-0.292,0.004-0.441,0.013-0.442c0.009,0,0.022,0.149,0.04,0.44
						c0.016,0.315,0.038,0.744,0.065,1.293c0.048,1.164,0.117,2.835,0.204,4.975c0.222,4.318,0.525,10.567,1.141,18.273
						c0.6,7.707,1.48,16.871,2.582,27.036c1.089,10.166,2.383,21.335,3.547,33.083c0.523,5.207,0.973,10.312,1.381,15.217
						l-0.021-0.083c8.079,18.243,15.18,34.278,20.272,45.779c2.514,5.731,4.532,10.33,5.933,13.523
						c0.678,1.57,1.206,2.793,1.575,3.648c0.168,0.401,0.299,0.715,0.397,0.949C426.683,449.34,426.723,449.451,426.716,449.455z"/>
				</g>
			</g>
		</g>
		<g>
			<g>
				<path style="fill:#FF725E;" d="M383.769,174.142c0,0-18.939,31.787-19.06,37.31c-0.121,5.522,6.111,23.611,6.111,23.611
					s-4.209,23.226-3.902,26.702c0.135,1.528,0.592,3.297,1.099,3.845c2.514,2.723,6.781,2.694,10.406,3.468l32.353,5.399
					c4.228,0.902,14.341-0.064,18.165-2.082c2.116-1.117,4.062-2.58,3.545-4.722c-0.6-2.487-10.477-25.455-10.477-25.455
					s2.713-43.348,3.805-51.433c1.092-8.085-11.276-22.155-11.276-22.155l-30.719,5.971"/>
			</g>
			<g style="opacity:0.3;">
				<g>
					<path d="M369.002,249.66c5.708,8.281,17.742,10.741,25.965,5.307c7.755-5.125,11.049-15.151,13.254-24.525
						c2.065-8.774,5.199-22.156,6.316-31.12c0,0-18.319,44.835-20.681,47.707c-2.362,2.871-6.674,9.657-18.596,5.05
						C369.002,249.66,369.002,249.66,369.002,249.66z"/>
				</g>
			</g>
			<g>
				<g>
					<g>
						<path style="fill:#FF725E;" d="M383.595,172.535l0.224,2.066l30.719-5.971l-0.543-8.608c0,0,0-2.404-2.902-2.404
							c-1.438,0-26.306,6.249-27.274,6.89C381.397,166.109,383.595,172.535,383.595,172.535z"/>
					</g>
				</g>
				<g>
					<g>
						<g>
							<g>
								<g>
									<g>
										<path style="fill:#FF725E;" d="M333.963,213.079c0,0,41.262,12.514,41.931,11.988s10.812-34.376,10.812-34.376
											s4.843-17.166,12.689-17.131c15.768,0.072,17.449,19.977,17.449,19.977s-15.88,49.986-25.663,59.116
											c-9.782,9.13-56.276-22.176-56.276-22.176l-3.67-0.994L333.963,213.079z"/>
									</g>
								</g>
							</g>
						</g>
						<g>
							<g>
								<g>
									<g>
										<g>
											<path style="fill:#263238;" d="M377.689,237.674c-0.114,0.098-1.802-2.451-2.276-6.106
												c-0.493-3.644,0.347-6.553,0.481-6.502c0.201,0.028-0.34,2.91,0.139,6.418
												C376.484,235.001,377.868,237.59,377.689,237.674z"/>
										</g>
									</g>
								</g>
							</g>
						</g>
					</g>
				</g>
			</g>
			<g>
				<g>
					<g>
						<g>
							<g>
								<path style="fill:#263238;" d="M399.395,173.56c0.002,0.036-0.362,0.018-1.021,0.158c-0.658,0.129-1.614,0.472-2.645,1.234
									c-2.104,1.485-4.314,4.609-6.209,8.794c-1.984,4.166-3.299,9.526-5.104,15.366c-1.764,5.85-3.711,12.28-5.842,19.004
									c-0.536,1.681-1.068,3.341-1.627,4.969l-0.432,1.216c-0.078,0.202-0.15,0.402-0.244,0.608
									c-0.042,0.083-0.08,0.241-0.269,0.387c-0.228,0.079-0.206,0.026-0.301,0.039l-0.173-0.021
									c-0.866-0.145-1.668-0.361-2.48-0.564c-3.225-0.838-6.306-1.728-9.244-2.574c-5.871-1.701-11.142-3.283-15.565-4.623
									c-4.387-1.35-7.951-2.446-10.462-3.219c-1.201-0.384-2.148-0.687-2.835-0.907c-0.298-0.101-0.539-0.183-0.733-0.249
									c-0.164-0.059-0.247-0.093-0.245-0.102c0.003-0.009,0.091,0.009,0.26,0.051c0.198,0.053,0.444,0.118,0.748,0.199
									c0.693,0.197,1.65,0.469,2.863,0.813c2.522,0.734,6.102,1.777,10.509,3.06c4.451,1.289,9.732,2.818,15.593,4.514
									c2.938,0.832,6.024,1.713,9.238,2.541c0.8,0.199,1.623,0.416,2.425,0.548l0.142,0.017l0.054,0.001
									c0,0,0.029,0.002,0.015,0.001c-0.027-0.029-0.028,0.073,0.009,0.138c-0.002,0.01,0.081,0.116,0.026,0.037
									c-0.031-0.049-0.134-0.172-0.109-0.145l0.002-0.015c0.002-0.009,0.005-0.017,0.009-0.024
									c0.01-0.011,0.037-0.083,0.055-0.121c0.082-0.18,0.154-0.38,0.229-0.576l0.426-1.203c0.554-1.62,1.085-3.28,1.621-4.959
									c2.13-6.719,4.091-13.143,5.88-18.985c1.826-5.815,3.184-11.191,5.229-15.381c1.952-4.196,4.236-7.335,6.426-8.805
									c1.072-0.753,2.067-1.074,2.743-1.171C399.033,173.507,399.395,173.56,399.395,173.56z"/>
							</g>
						</g>
						<g>
							<g>
								<path style="fill:#263238;" d="M367.278,248.851c0.004-0.008,0.079,0.016,0.223,0.07c0.172,0.068,0.38,0.151,0.634,0.252
									c0.595,0.243,1.404,0.574,2.425,0.992c2.114,0.827,5.177,2.066,9.109,3.061c1.963,0.469,4.161,0.925,6.522,0.868
									c1.175-0.028,2.394-0.231,3.508-0.745c1.112-0.507,1.993-1.487,2.81-2.536c1.65-2.092,3.07-4.538,4.441-7.112
									c1.365-2.581,2.665-5.316,3.935-8.145c5.044-11.34,8.84-21.937,11.589-29.592c1.331-3.808,2.413-6.904,3.18-9.097
									c0.362-1.042,0.65-1.867,0.861-2.475c0.094-0.257,0.17-0.467,0.234-0.641c0.055-0.143,0.087-0.216,0.096-0.213
									c0.009,0.003-0.007,0.08-0.045,0.229c-0.05,0.178-0.111,0.394-0.185,0.657c-0.189,0.615-0.445,1.451-0.768,2.507
									c-0.686,2.171-1.704,5.304-3.025,9.155c-2.662,7.691-6.404,18.315-11.461,29.684c-1.273,2.836-2.58,5.579-3.959,8.171
									c-1.386,2.586-2.823,5.043-4.517,7.172c-0.827,1.052-1.764,2.096-2.988,2.65c-1.203,0.547-2.482,0.743-3.693,0.763
									c-2.434,0.039-4.648-0.448-6.625-0.943c-3.954-1.049-7.001-2.344-9.097-3.23c-1.046-0.451-1.85-0.821-2.389-1.083
									c-0.246-0.12-0.447-0.219-0.613-0.3C367.342,248.899,367.274,248.859,367.278,248.851z"/>
							</g>
						</g>
					</g>
				</g>
			</g>
			<g>
				<g>
					<path style="fill:#263238;" d="M415.26,247.028c0.025,0.025-0.208,0.296-0.654,0.764c-0.441,0.473-1.12,1.117-1.993,1.876
						c-1.741,1.52-4.332,3.429-7.456,5.09c-3.129,1.654-6.164,2.726-8.399,3.314c-1.118,0.296-2.032,0.496-2.671,0.596
						c-0.638,0.106-0.992,0.148-0.999,0.113c-0.017-0.086,1.376-0.386,3.568-1.062c2.191-0.673,5.166-1.786,8.258-3.42
						c3.087-1.641,5.677-3.478,7.465-4.913C414.168,247.951,415.199,246.966,415.26,247.028z"/>
				</g>
			</g>
			<g style="opacity:0.3;">
				<g>
					<path d="M385.393,172.389c9.005-0.969,17.926-2.72,26.629-5.226c-8.228,4.555-17.896,6.462-27.237,5.372"/>
				</g>
			</g>
		</g>
	</g>
</g>
</svg>
