<svg version="1.1" id="Layer_1" xmlns="http://www.w3.org/2000/svg" xmlns:xlink="http://www.w3.org/1999/xlink" x="0px" y="0px"
	 width="100%" viewBox="0 0 4676 4675" enable-background="new 0 0 4676 4675" xml:space="preserve">
<path fill="#E6F5FA" opacity="1.000000" stroke="none" 
	d="
M2756.000000,4680.000000 
	C1837.333374,4680.000000 920.666687,4680.000000 4.000000,4680.000000 
	C4.000000,3121.333252 4.000000,1562.666626 4.000000,4.000001 
	C1562.666626,4.000000 3121.333252,4.000000 4680.000000,4.000000 
	C4680.000000,1562.666626 4680.000000,3121.333252 4680.000000,4680.000000 
	C4039.333252,4680.000000 3398.666748,4680.000000 2756.000000,4680.000000 
z"/>
<path fill="#FFFFF5" opacity="1.000000" stroke="none" 
	d="
M2754.676270,4054.625000 
	C2755.856201,4059.983154 2756.669434,4064.402344 2755.218994,4067.876953 
	C2747.269287,4086.922607 2738.766357,4105.803711 2724.647217,4121.276367 
	C2697.891357,4150.597168 2664.751465,4169.445312 2626.573730,4179.547363 
	C2615.691895,4182.426758 2604.385254,4183.024414 2593.230225,4184.458984 
	C2535.475342,4191.887207 2477.566650,4187.455566 2419.771729,4187.728516 
	C2256.549805,4188.498535 2093.321533,4187.997559 1930.095825,4187.954102 
	C1920.152710,4187.951172 1910.332642,4188.099609 1900.431885,4185.200195 
	C1893.624268,4183.206055 1885.907715,4184.075684 1878.597412,4184.073730 
	C1696.717285,4184.028809 1514.837158,4184.039062 1332.957031,4184.039062 
	C1169.731323,4184.039062 1006.505554,4184.046387 843.279785,4184.031250 
	C814.134888,4184.028320 816.001526,4186.240723 816.000000,4157.311523 
	C815.987732,3922.133301 815.975586,3686.955078 815.949585,3449.904297 
	C807.130127,3437.918457 808.848877,3425.511963 808.830444,3413.673340 
	C808.679138,3316.379639 808.749329,3219.086182 808.748962,3121.792480 
	C808.747253,2688.635986 808.732544,2255.479248 808.817993,1822.322754 
	C808.820618,1809.083496 807.163452,1795.601440 813.406372,1781.080811 
	C821.599548,1773.164795 830.413635,1772.976318 839.043518,1772.976318 
	C1131.447144,1772.977783 1423.851318,1772.105835 1717.963135,1773.621338 
	C1724.212402,1774.563599 1729.446533,1774.826904 1732.442627,1778.222778 
	C1742.957397,1790.140503 1751.556274,1784.164673 1761.798584,1775.503662 
	C1764.483154,1774.611450 1765.610840,1774.317993 1768.524414,1773.741699 
	C1908.050293,1772.111572 2045.793335,1773.082886 2183.534912,1772.988892 
	C2190.866211,1772.983887 2198.193359,1773.428467 2206.629395,1777.798828 
	C2215.546631,1787.192749 2214.905518,1797.453369 2215.000977,1807.359375 
	C2215.321289,1840.652710 2214.937744,1873.949829 2215.187012,1907.243530 
	C2215.396729,1935.276978 2216.614258,1936.728638 2244.465820,1936.777222 
	C2370.986816,1936.997803 2497.508545,1936.842773 2624.029785,1936.878784 
	C2661.986084,1936.889526 2699.942871,1936.743530 2737.898682,1936.977173 
	C2745.891846,1937.026367 2753.918457,1937.205200 2762.948730,1942.037842 
	C2769.773438,1949.054932 2770.745605,1956.342651 2770.814697,1963.653320 
	C2771.390625,2024.596558 2771.448730,2085.541504 2770.802734,2146.485107 
	C2770.753418,2151.141357 2769.887695,2155.708740 2767.267090,2161.776855 
	C2758.445068,2171.578369 2748.073975,2170.509766 2738.210205,2170.757080 
	C2722.893066,2171.141846 2707.562256,2170.709473 2692.240479,2170.931396 
	C2668.413330,2171.276123 2667.683838,2172.379883 2666.799316,2195.620117 
	C2666.146484,2212.773438 2669.839355,2230.332031 2661.392822,2248.435059 
	C2657.963623,2251.443359 2655.593994,2252.676025 2652.983887,2253.306152 
	C2623.267334,2260.478271 2623.195557,2260.470459 2623.194580,2291.896484 
	C2623.177246,2865.603516 2623.175049,3439.310791 2623.198242,4013.017822 
	C2623.199707,4048.757080 2623.293701,4048.760254 2660.007324,4048.816162 
	C2682.662354,4048.850342 2705.318359,4048.692139 2727.972412,4048.902344 
	C2736.607422,4048.982422 2745.377197,4048.654053 2754.676270,4054.625000 
z"/>
<path fill="#EFF9FB" opacity="1.000000" stroke="none" 
	d="
M2765.496094,2165.489746 
	C2764.026123,2092.011963 2764.006348,2019.897705 2765.237549,1944.606445 
	C2777.057861,1935.776489 2788.578857,1937.489014 2799.761475,1937.478638 
	C2942.074707,1937.347900 3084.388672,1937.210571 3226.701172,1937.501587 
	C3275.425781,1937.601318 3316.601074,1921.843018 3348.102783,1883.763916 
	C3364.111572,1864.412354 3375.187500,1842.897095 3375.903809,1815.300537 
	C3393.200928,1766.099609 3389.083008,1716.747437 3389.071045,1667.814087 
	C3389.049316,1579.565552 3389.499756,1491.316162 3388.793457,1401.433105 
	C3387.633301,1391.516846 3383.189209,1384.997437 3377.543701,1379.221802 
	C3319.682617,1320.031006 3264.975342,1257.827515 3206.024902,1199.684082 
	C3200.101074,1193.841309 3195.138184,1185.737915 3183.125488,1186.969727 
	C2888.204102,1187.320679 2594.973877,1187.059204 2301.743896,1187.155518 
	C2263.193115,1187.168213 2263.175537,1187.199707 2263.154053,1225.075439 
	C2263.127930,1271.059204 2263.208984,1317.043213 2263.103027,1363.026733 
	C2263.080078,1372.987549 2263.768555,1383.073486 2258.935059,1394.313965 
	C2252.938965,1401.206055 2246.251953,1401.771118 2239.629150,1402.660522 
	C2215.556152,1405.893066 2215.184814,1405.984009 2215.075195,1431.218384 
	C2214.794678,1495.801636 2215.064453,1560.386108 2214.913330,1624.969849 
	C2214.886963,1636.211548 2216.054688,1647.706055 2209.278564,1659.777344 
	C2199.355225,1667.691528 2189.176025,1667.108032 2179.275635,1667.120239 
	C2049.036377,1667.281006 1918.796997,1667.247437 1788.557739,1667.158203 
	C1779.932129,1667.152344 1771.237061,1667.317871 1761.351318,1662.788574 
	C1753.271851,1654.714233 1753.150513,1645.892456 1753.074707,1637.255981 
	C1752.752930,1600.609863 1752.243042,1563.949097 1753.209106,1527.318237 
	C1754.272217,1487.011230 1760.714111,1481.019775 1800.311646,1480.918823 
	C1858.948364,1480.769287 1917.586548,1481.115601 1976.222046,1480.761719 
	C2002.452271,1480.603394 2004.748535,1478.406982 2004.765137,1451.944214 
	C2004.957886,1146.765137 2004.949097,841.585938 2004.774414,536.406860 
	C2004.758545,508.652496 2002.991089,507.183075 1974.294800,503.161896 
	C1969.008057,502.421112 1963.697876,501.892273 1957.395508,498.026489 
	C1956.465820,492.547211 1957.998047,489.168396 1962.824097,488.350311 
	C1994.151245,483.039886 2025.199341,476.293213 2056.629639,471.377289 
	C2081.458008,467.493988 2106.713867,466.498718 2131.220459,460.373718 
	C2135.627441,459.272339 2140.510254,460.058197 2145.173584,460.004333 
	C2151.822021,459.927551 2158.419189,460.102631 2164.919678,457.838989 
	C2168.601318,456.556976 2172.729248,456.213226 2176.675537,456.096344 
	C2191.260986,455.664276 2205.689941,455.788788 2220.277588,452.663361 
	C2231.757568,450.203705 2244.164795,452.178986 2256.156494,451.968994 
	C2270.067627,451.725342 2284.113037,453.417450 2297.728027,448.614014 
	C2300.733398,447.553741 2304.328613,448.033905 2307.652588,448.028839 
	C2332.976074,447.990173 2358.299805,447.949219 2383.622803,448.059357 
	C2388.252930,448.079498 2393.187012,447.897278 2397.441895,449.367493 
	C2405.256104,452.067596 2413.141846,451.990417 2421.124023,451.996704 
	C2433.119385,452.006134 2445.114990,451.965088 2457.110107,452.013214 
	C2465.742676,452.047821 2474.317383,451.693268 2482.781250,454.706604 
	C2487.007568,456.211304 2491.971680,455.853546 2496.610107,455.952637 
	C2509.214355,456.221924 2521.937256,454.893951 2534.155029,459.521851 
	C2535.938721,460.197418 2538.116943,460.000244 2540.104736,459.940948 
	C2562.145020,459.283539 2583.518311,464.130951 2605.168213,467.101318 
	C2623.550049,469.623291 2641.760742,473.010254 2660.091064,475.638367 
	C2689.625244,479.872803 2718.853760,485.478119 2747.951416,491.957062 
	C2767.352539,496.276947 2786.885498,500.012482 2806.249268,504.486877 
	C2817.232178,507.024719 2828.001221,510.496582 2838.852539,513.596924 
	C2886.791260,527.293457 2934.374512,542.114685 2981.446045,558.567139 
	C3017.841797,571.288330 3053.637695,585.478516 3089.242676,600.298340 
	C3132.927002,618.480957 3175.283203,639.338196 3217.383057,660.763977 
	C3246.999268,675.836365 3275.510742,692.941895 3304.367432,709.424133 
	C3346.573975,733.531555 3386.962158,760.343079 3427.044678,787.663696 
	C3449.510742,802.976929 3471.475098,819.074646 3493.103516,835.556274 
	C3518.937256,855.242981 3545.038330,874.734192 3569.359863,896.195374 
	C3585.764160,910.670349 3602.295410,925.139709 3618.549805,939.814026 
	C3650.688965,968.830017 3681.237549,999.381409 3711.877930,1029.887817 
	C3734.485107,1052.396362 3755.044678,1076.726196 3775.532471,1101.139160 
	C3786.621826,1114.353149 3798.830566,1126.636353 3809.757324,1139.975952 
	C3826.562256,1160.491821 3843.063721,1181.280273 3859.019531,1202.461426 
	C3876.183350,1225.245728 3893.322510,1248.115479 3909.107422,1271.855591 
	C3930.047119,1303.348389 3949.859863,1335.599609 3969.778564,1367.759155 
	C3982.367920,1388.085083 3994.305908,1408.815430 4006.443115,1429.419067 
	C4008.805420,1433.429077 4010.779541,1437.671265 4012.866211,1441.839600 
	C4031.324463,1478.710083 4050.494873,1515.247192 4067.990234,1552.569336 
	C4082.362793,1583.230469 4094.963867,1614.734253 4107.950195,1646.030273 
	C4127.849609,1693.983643 4144.445801,1743.202026 4159.212402,1792.869507 
	C4171.671875,1834.777222 4185.087891,1876.551758 4192.851562,1919.808472 
	C4196.708984,1941.297119 4203.993652,1962.250122 4206.791016,1983.826294 
	C4209.435547,2004.214233 4215.907715,2023.879150 4216.535156,2044.655762 
	C4216.870117,2055.756348 4220.185059,2066.824219 4222.686035,2077.785889 
	C4225.351074,2089.466064 4221.966797,2101.918213 4227.455078,2113.179199 
	C4226.159668,2131.237793 4232.701172,2148.625977 4232.029785,2166.638672 
	C4231.905762,2169.961914 4231.350586,2173.565430 4232.357910,2176.584717 
	C4237.781250,2192.839355 4235.528320,2209.568359 4235.997559,2226.127441 
	C4236.091797,2229.457520 4235.373047,2233.023682 4236.320312,2236.081299 
	C4242.182129,2255.002686 4239.764648,2274.409668 4239.905273,2293.616943 
	C4240.211426,2335.598389 4240.024414,2377.583496 4239.981445,2419.567139 
	C4239.971680,2428.856445 4240.894043,2438.264404 4236.992676,2447.161865 
	C4236.473145,2448.346924 4236.263184,2449.770020 4236.287109,2451.076172 
	C4236.692871,2473.025146 4234.142090,2494.757080 4232.416016,2516.590332 
	C4230.742676,2537.754150 4228.160156,2558.687744 4224.878418,2579.611816 
	C4223.032715,2591.373535 4222.256348,2603.287842 4220.712891,2615.104980 
	C4214.268066,2664.436768 4204.152344,2712.979980 4193.734375,2761.560791 
	C4186.074219,2797.280518 4177.532715,2832.775879 4167.048340,2867.674316 
	C4155.586426,2905.825195 4144.286621,2944.050781 4129.979980,2981.385986 
	C4118.808594,3010.538818 4108.063965,3039.868164 4096.301758,3068.802490 
	C4091.049316,3081.724365 4086.107178,3094.805908 4080.150635,3107.401855 
	C4062.509521,3144.705811 4044.958496,3182.069580 4026.335693,3218.885742 
	C4014.646484,3241.994141 4001.084473,3264.154541 3988.384277,3286.752686 
	C3987.013184,3289.192383 3985.079102,3290.845703 3981.005371,3291.844482 
	C3968.085938,3273.430176 3973.080078,3251.914062 3969.362305,3231.904785 
	C3967.433105,3221.522461 3968.791260,3210.634766 3968.791016,3199.974854 
	C3968.783203,2870.156250 3968.789307,2540.337891 3968.779541,2210.519287 
	C3968.778320,2171.256348 3968.746826,2171.222168 3929.633789,2171.220947 
	C3555.173096,2171.209717 3180.712646,2171.239014 2806.251953,2171.122803 
	C2793.068359,2171.118896 2779.501221,2173.239014 2765.496094,2165.489746 
z"/>
<path fill="#B4D1E3" opacity="1.000000" stroke="none" 
	d="
M2762.167969,2164.207031 
	C2772.040771,2164.169434 2780.035400,2164.249756 2788.030273,2164.250000 
	C3174.469238,2164.256104 3560.908447,2164.247803 3947.347412,2164.269775 
	C3979.327881,2164.271484 3976.194824,2161.632812 3976.198242,2193.365234 
	C3976.235596,2535.830078 3976.218262,2878.295166 3976.236816,3220.760010 
	C3976.237549,3231.385254 3976.808105,3241.857178 3978.616211,3252.489746 
	C3980.602051,3264.168945 3979.430664,3276.385254 3979.625244,3290.215332 
	C3975.205811,3300.101807 3976.186279,3308.877930 3976.184326,3317.502197 
	C3976.167480,3396.822266 3976.176025,3476.142090 3976.174561,3555.462158 
	C3976.172852,3646.780029 3976.077881,3738.098389 3976.209717,3829.416016 
	C3976.264404,3867.283936 3963.043945,3899.197266 3936.379639,3926.281006 
	C3923.165527,3939.702637 3908.114746,3950.381836 3892.376465,3962.451660 
	C3872.320068,3981.020020 3847.701660,3981.240967 3824.157715,3982.585693 
	C3792.329834,3984.403320 3760.356445,3983.163818 3728.446045,3983.092529 
	C3585.518799,3982.773438 3442.589600,3983.869629 3297.704590,3982.332031 
	C3119.817871,3984.139404 2943.888672,3983.477539 2765.973389,3982.373779 
	C2736.025879,3984.251221 2708.021240,3983.605469 2680.064453,3982.788086 
	C2659.771973,3982.195312 2654.636719,3976.327637 2653.108887,3955.915039 
	C2652.461914,3947.271973 2652.751221,3938.593018 2652.750977,3929.929443 
	C2652.744385,3384.062256 2652.725586,2838.194824 2652.855469,2292.327637 
	C2652.858887,2278.514404 2650.317627,2264.226318 2658.670166,2249.544434 
	C2660.011719,2226.658691 2660.099854,2205.350342 2660.221924,2184.042236 
	C2660.244873,2180.049316 2660.230225,2176.042725 2660.548584,2172.067627 
	C2660.923340,2167.383545 2663.885498,2164.956055 2668.400879,2164.672363 
	C2673.047119,2164.380127 2677.716064,2164.385254 2682.375488,2164.376465 
	C2708.347168,2164.327393 2734.318604,2164.313477 2762.167969,2164.207031 
z"/>
<path fill="#CDDBA6" opacity="1.000000" stroke="none" 
	d="
M1954.230469,496.839050 
	C1970.493164,496.984558 1985.153809,495.928436 1999.537476,499.827515 
	C2008.479004,502.251404 2010.927856,504.424591 2011.547729,513.003540 
	C2011.883057,517.642151 2011.703979,522.320068 2011.704102,526.980286 
	C2011.708984,837.246948 2011.711426,1147.513672 2011.686890,1457.780273 
	C2011.686401,1463.764404 2011.869507,1469.817627 2011.066284,1475.715820 
	C2009.993530,1483.593262 2005.575806,1487.345703 1997.751587,1487.805908 
	C1992.441772,1488.118164 1987.102905,1487.963745 1981.776978,1487.964355 
	C1918.525269,1487.971802 1855.273438,1487.969116 1792.021729,1487.969360 
	C1788.026855,1487.969360 1784.031982,1487.984253 1780.037109,1487.972534 
	C1766.839355,1487.934082 1764.139160,1488.177979 1762.764282,1503.247559 
	C1762.045532,1511.126953 1760.328369,1518.933472 1760.322388,1526.960693 
	C1760.290405,1570.238037 1760.134399,1613.515381 1760.112183,1658.703857 
	C1765.404907,1665.574463 1766.498047,1672.115112 1766.520508,1678.741211 
	C1766.622925,1708.978516 1768.155396,1739.234619 1765.051025,1771.295654 
	C1763.872070,1774.265747 1763.239380,1775.385376 1761.310791,1777.934326 
	C1756.748901,1782.140991 1756.928467,1786.547485 1755.032349,1789.924438 
	C1751.245239,1796.669922 1743.974609,1797.366211 1738.654053,1791.517090 
	C1735.568115,1788.124390 1732.924316,1784.329590 1728.906372,1779.915283 
	C1709.937622,1766.314697 1700.739746,1746.570312 1688.323730,1729.534424 
	C1671.905762,1707.007446 1656.338745,1683.854370 1638.356201,1660.514160 
	C1601.800781,1611.936157 1567.918457,1563.354126 1533.903809,1514.892334 
	C1523.086304,1499.480103 1510.674805,1493.910156 1492.238770,1493.965942 
	C1327.875244,1494.464478 1163.509644,1494.321655 999.144592,1494.237305 
	C890.826660,1494.181763 811.936707,1442.871216 755.077271,1353.503174 
	C751.501770,1347.883423 748.194824,1342.031860 748.676147,1333.267944 
	C745.235901,1323.554199 742.528076,1315.353149 739.193726,1307.415161 
	C722.734375,1268.230957 715.852417,1227.324951 715.875671,1184.953125 
	C715.996094,965.766357 715.927429,746.579468 715.954224,527.392639 
	C715.954956,521.406860 715.954712,515.386353 716.570374,509.445740 
	C717.107361,504.264038 720.538818,500.896118 725.738098,500.457275 
	C732.357605,499.898499 739.034851,499.876221 745.687195,499.875031 
	C902.915466,499.847260 1060.143677,499.849304 1217.371948,499.854370 
	C1451.881836,499.861908 1686.391724,499.849609 1920.901611,499.972260 
	C1931.615723,499.977875 1942.149780,499.323425 1954.230469,496.839050 
z"/>
<path fill="#EFF9FB" opacity="1.000000" stroke="none" 
	d="
M747.440063,1332.760010 
	C756.190369,1343.860229 763.875610,1356.274658 772.156128,1368.278198 
	C799.088867,1407.320190 833.453430,1438.143188 875.727051,1459.752197 
	C912.390564,1478.493286 951.302917,1488.088989 992.708618,1488.041260 
	C1161.150757,1487.846924 1329.594482,1488.248901 1498.033936,1487.556519 
	C1516.066895,1487.482544 1526.555298,1493.042603 1536.735474,1508.005493 
	C1571.125122,1558.551270 1607.331055,1607.861328 1643.383301,1658.888428 
	C1632.597412,1670.227539 1618.642944,1667.003784 1605.671509,1667.014648 
	C1361.035767,1667.220459 1116.399902,1667.161865 871.764038,1667.165405 
	C864.431702,1667.165527 857.097839,1667.069336 849.767212,1667.219727 
	C824.884644,1667.729980 823.590637,1668.898682 823.234924,1693.200562 
	C822.951965,1712.528442 823.312866,1731.862671 823.082275,1751.191895 
	C822.979309,1759.817749 823.481445,1768.612061 817.489136,1777.961914 
	C816.131958,1789.431885 816.008423,1799.424072 816.008179,1809.416382 
	C815.993347,2354.369385 815.988770,2899.322510 815.959473,3446.153564 
	C809.210876,3447.794189 805.042847,3443.632812 801.500244,3438.565430 
	C777.139099,3403.716553 754.040649,3368.071289 731.491882,3332.002686 
	C715.271362,3306.056396 701.014282,3279.020508 684.845886,3253.072021 
	C677.126221,3240.682861 671.466919,3227.007568 664.912048,3213.895752 
	C656.271790,3196.612549 647.843811,3179.221191 639.012756,3162.036133 
	C620.140564,3125.311768 604.279114,3087.244873 588.930725,3048.985352 
	C571.854248,3006.418213 555.460632,2963.561035 541.954712,2919.692383 
	C534.335510,2894.944824 527.209351,2870.040283 520.197937,2845.111816 
	C515.527100,2828.504639 510.947601,2811.842285 507.211639,2795.008301 
	C499.175293,2758.796387 491.225128,2722.551758 484.161041,2686.141602 
	C478.240112,2655.624023 472.213867,2625.000488 468.991699,2594.135742 
	C467.209137,2577.061035 462.399597,2560.179688 463.851227,2542.710693 
	C464.227051,2538.187988 463.552246,2533.299805 462.149628,2528.972168 
	C460.031677,2522.437012 460.064850,2515.871338 459.997955,2509.220703 
	C459.897797,2499.260986 460.202209,2489.408447 456.973694,2479.581787 
	C455.176605,2474.112061 456.228577,2467.705322 456.001038,2461.720947 
	C455.270874,2442.517822 458.135376,2423.134033 452.382477,2404.163330 
	C451.081604,2399.873779 452.013275,2394.890625 452.010376,2390.226562 
	C451.992493,2361.568359 451.930725,2332.909912 452.033722,2304.251953 
	C452.079010,2291.656006 452.278778,2279.240967 454.973511,2266.614746 
	C457.428284,2255.113281 455.794067,2242.744141 456.006866,2230.758301 
	C456.218719,2218.827148 454.718231,2206.737793 459.333801,2195.200684 
	C459.811127,2194.007568 459.948486,2192.545898 459.805603,2191.257324 
	C457.577606,2171.161621 463.724213,2151.708252 464.366608,2131.773682 
	C464.853455,2116.665039 467.943909,2101.583008 470.612457,2086.620361 
	C472.590027,2075.532227 473.881744,2064.234863 475.149719,2053.199219 
	C478.259399,2026.135254 483.919678,1999.564941 488.944733,1972.944214 
	C495.825684,1936.491943 504.884888,1900.416382 513.988464,1864.426636 
	C526.214111,1816.094238 541.421204,1768.627808 557.382935,1721.399292 
	C572.507507,1676.647583 590.500793,1633.052368 609.005188,1589.625610 
	C625.968933,1549.814697 643.842590,1510.429321 664.070312,1472.193237 
	C683.335571,1435.776611 703.115906,1399.611572 725.023682,1364.672852 
	C731.696228,1354.031372 736.189514,1341.866333 747.440063,1332.760010 
z"/>
<path fill="#F1F2EC" opacity="1.000000" stroke="none" 
	d="
M2658.074707,2247.976562 
	C2659.984619,2256.623047 2660.120361,2265.279053 2660.120361,2273.935303 
	C2660.130371,2830.675537 2660.128662,3387.415527 2660.136230,3944.155762 
	C2660.136230,3951.479980 2660.012939,3958.814697 2660.359863,3966.125000 
	C2660.700928,3973.308350 2662.815674,3975.229736 2670.329590,3975.690430 
	C2674.975830,3975.975830 2679.648438,3975.854980 2684.309326,3975.861816 
	C2709.615479,3975.897705 2734.921875,3975.916748 2762.100098,3976.004883 
	C2775.466553,4001.950439 2773.699951,4027.593018 2761.332764,4054.509766 
	C2759.421143,4055.964600 2758.754150,4055.976318 2757.087402,4055.994141 
	C2715.457031,4055.996094 2674.825684,4056.078125 2634.195312,4055.948486 
	C2616.478516,4055.892090 2616.298584,4055.530762 2616.012939,4038.173096 
	C2615.947266,4034.177734 2616.000244,4030.180420 2616.000244,4026.183838 
	C2616.000000,3443.362549 2615.999512,2860.541504 2616.007568,2277.720215 
	C2616.007568,2271.060791 2615.887207,2264.389160 2616.241699,2257.745605 
	C2616.618164,2250.683594 2618.840820,2248.468506 2626.269043,2248.207031 
	C2636.248535,2247.855225 2646.246826,2248.034912 2658.074707,2247.976562 
z"/>
<path fill="#D8EAEE" opacity="1.000000" stroke="none" 
	d="
M3294.888672,3977.006348 
	C3466.128906,3975.995850 3636.268311,3975.778564 3806.406006,3976.159180 
	C3831.900391,3976.216064 3856.495605,3972.686279 3880.787842,3965.606201 
	C3883.322021,3964.867920 3885.951660,3964.456055 3890.106201,3963.747314 
	C3892.883545,3971.970947 3889.399170,3979.499268 3886.284668,3986.637939 
	C3872.231445,4018.852295 3848.588867,4041.029053 3814.397217,4050.300781 
	C3800.427979,4054.088623 3786.012695,4056.192871 3771.182617,4056.172607 
	C3572.707764,4055.904053 3374.232910,4055.987549 3173.883789,4055.977051 
	C3166.023926,4042.762451 3177.455566,4039.526855 3184.892578,4035.881836 
	C3221.836426,4017.774414 3257.367920,3997.054688 3294.888672,3977.006348 
z"/>
<path fill="#E1ECF0" opacity="1.000000" stroke="none" 
	d="
M3294.116699,3975.988281 
	C3294.939697,3978.365234 3294.512695,3981.514404 3292.720703,3982.904541 
	C3287.527832,3986.932861 3282.025635,3990.706787 3276.220215,3993.778076 
	C3246.432617,4009.536377 3216.484863,4024.992188 3186.659424,4040.679932 
	C3180.967285,4043.674072 3173.928223,4045.360107 3172.181152,4054.569580 
	C3035.945557,4055.971924 2899.881104,4055.973145 2761.952393,4055.963379 
	C2760.076172,4054.642334 2759.794922,4053.267334 2760.091797,4052.031006 
	C2765.820801,4028.184814 2763.674072,4003.922119 2763.980225,3977.929199 
	C2940.062500,3976.030518 3116.152832,3975.993652 3294.116699,3975.988281 
z"/>
<path fill="#A36754" opacity="1.000000" stroke="none" 
	d="
M2223.318359,2343.774902 
	C2218.940918,2564.406006 2073.545898,2740.000732 1882.743286,2797.859375 
	C1842.349854,2810.108154 1801.009155,2816.229248 1758.996948,2818.548828 
	C1756.340698,2818.695557 1753.669067,2818.660645 1751.007568,2818.593994 
	C1746.333740,2818.476807 1743.507202,2816.089355 1743.211670,2811.388672 
	C1742.919434,2806.741455 1742.961426,2802.069092 1742.961060,2797.407959 
	C1742.950195,2650.855225 1742.945679,2504.302246 1742.959839,2357.749512 
	C1742.961792,2337.303711 1741.476196,2337.957520 1763.274292,2334.992676 
	C1827.233521,2326.293701 1891.083740,2316.789307 1954.963989,2307.513916 
	C2024.772827,2297.377441 2094.562012,2287.106445 2164.373047,2276.984619 
	C2178.862793,2274.883545 2193.389404,2272.996582 2207.937988,2271.356689 
	C2217.498535,2270.279297 2218.822266,2271.322510 2219.628174,2280.076172 
	C2221.519775,2300.624268 2224.221191,2321.132568 2223.318359,2343.774902 
z"/>
<path fill="#CDDBA6" opacity="1.000000" stroke="none" 
	d="
M1347.574219,2029.267822 
	C1347.680298,2022.042480 1351.686768,2018.417969 1355.308228,2014.497192 
	C1384.818726,1982.546265 1417.644287,1954.497314 1454.731567,1931.746094 
	C1503.914185,1901.574829 1556.863770,1880.394653 1613.380493,1868.757690 
	C1656.581299,1859.862671 1700.522949,1857.313110 1744.362793,1860.700195 
	C1776.706421,1863.198975 1808.880981,1868.780762 1840.190918,1878.102173 
	C1868.937256,1886.660278 1897.172241,1896.756592 1923.829956,1910.440430 
	C1952.244995,1925.026123 1979.011841,1942.369751 2004.406372,1961.943481 
	C2025.632935,1978.304810 2043.907349,1997.602173 2062.582520,2016.546387 
	C2070.193359,2024.266846 2069.778809,2026.360107 2060.956543,2034.009766 
	C2030.826050,2060.135986 2000.541382,2086.084473 1970.470093,2112.277832 
	C1954.925415,2125.818115 1939.838501,2139.883057 1924.301758,2153.432373 
	C1910.282837,2165.658447 1895.879639,2177.442871 1881.743896,2189.536621 
	C1869.115601,2200.340576 1856.565430,2211.237793 1844.079224,2222.206299 
	C1819.104248,2244.145752 1794.281982,2266.259521 1769.232544,2288.113037 
	C1751.204956,2303.840820 1732.911499,2319.263672 1713.613037,2335.512695 
	C1703.480103,2339.518555 1699.246460,2331.997559 1694.008301,2327.605713 
	C1585.552612,2236.674072 1477.909546,2144.777588 1369.258545,2054.076172 
	C1361.157593,2047.313599 1352.950806,2040.336060 1347.574219,2029.267822 
z"/>
<path fill="#B4D1E3" opacity="1.000000" stroke="none" 
	d="
M1346.178711,2028.553711 
	C1352.405029,2029.920654 1355.826660,2034.114014 1359.613892,2037.810547 
	C1374.355347,2052.198486 1390.577026,2064.823730 1406.589355,2077.718506 
	C1417.948853,2086.866455 1428.298950,2097.158691 1439.743896,2106.304688 
	C1460.968628,2123.265869 1480.899292,2141.834717 1501.727905,2159.305908 
	C1530.669556,2183.582520 1560.089722,2207.288574 1589.024048,2231.573730 
	C1610.356079,2249.478271 1631.173706,2267.993896 1652.339722,2286.098145 
	C1671.484863,2302.473633 1690.791626,2318.659912 1711.258301,2335.566406 
	C1712.361328,2336.953125 1712.232910,2337.703125 1711.801758,2339.553711 
	C1707.426147,2357.984131 1696.188599,2371.520264 1686.944824,2385.990723 
	C1611.003906,2504.870361 1534.444824,2623.353760 1457.160645,2743.015625 
	C1439.558716,2731.703369 1422.482544,2720.145508 1406.729736,2707.001953 
	C1392.458496,2695.093994 1379.517944,2681.571777 1366.185913,2668.561035 
	C1321.617798,2625.066650 1290.919556,2572.646973 1267.057739,2515.627686 
	C1252.329346,2480.433594 1242.985718,2443.769531 1237.021851,2406.404053 
	C1231.786987,2373.605469 1229.743896,2340.171387 1232.569214,2307.004639 
	C1237.040405,2254.516602 1248.536377,2203.529541 1268.426514,2154.445801 
	C1285.055542,2113.409912 1307.762573,2076.109131 1334.148193,2040.848755 
	C1337.312378,2036.620361 1341.412598,2033.092407 1346.178711,2028.553711 
z"/>
<path fill="#B4D1E3" opacity="1.000000" stroke="none" 
	d="
M1464.323975,3701.122559 
	C1459.380981,3695.234863 1460.320068,3689.769775 1460.320190,3684.514160 
	C1460.321045,3522.625977 1460.364258,3360.738037 1460.412354,3198.849854 
	C1460.413330,3195.520752 1460.366943,3192.175293 1460.661987,3188.865967 
	C1461.197144,3182.863525 1463.453613,3180.513428 1469.293091,3180.029297 
	C1473.267090,3179.699951 1477.278687,3179.758301 1481.273560,3179.757080 
	C1531.239014,3179.741943 1581.204590,3179.734375 1631.170044,3179.769775 
	C1635.822632,3179.773193 1640.497070,3179.859375 1645.120483,3180.319336 
	C1648.791382,3180.684326 1651.273071,3183.119141 1651.513794,3186.793457 
	C1651.948486,3193.427002 1652.054810,3200.091064 1652.056763,3206.742432 
	C1652.105713,3369.963135 1652.122559,3533.183594 1651.984375,3698.283447 
	C1644.990967,3706.701660 1636.294800,3706.994629 1627.684326,3707.044678 
	C1580.762939,3707.318848 1533.840576,3707.341309 1486.919312,3707.031738 
	C1479.646240,3706.983643 1472.324219,3706.644775 1464.323975,3701.122559 
z"/>
<path fill="#96B0C0" opacity="1.000000" stroke="none" 
	d="
M818.054626,1779.503174 
	C816.060181,1744.791626 815.914490,1710.143555 815.800171,1675.495605 
	C815.791443,1672.834473 815.785889,1670.140747 816.167786,1667.518799 
	C816.694519,1663.901855 818.830811,1661.296387 822.601257,1661.069336 
	C829.239441,1660.669067 835.901611,1660.522949 842.553772,1660.522217 
	C1099.106445,1660.497437 1355.659058,1660.502563 1612.211670,1660.494629 
	C1621.540283,1660.494385 1630.868896,1660.399902 1642.060791,1660.241211 
	C1656.748169,1672.870117 1665.539551,1688.684448 1676.178223,1703.059082 
	C1693.929443,1727.044067 1710.386353,1751.986572 1727.559692,1777.820312 
	C1723.072144,1779.287231 1718.413086,1779.610229 1713.754028,1779.610229 
	C1415.806396,1779.612427 1117.858887,1779.588501 818.054626,1779.503174 
z"/>
<path fill="#B4D1E3" opacity="1.000000" stroke="none" 
	d="
M2298.394043,3673.969727 
	C2296.579834,3665.387451 2296.002197,3658.074707 2296.001221,3650.761719 
	C2295.984619,3524.797852 2296.046387,3398.833740 2296.070801,3272.869873 
	C2296.076172,3246.400391 2294.673096,3248.130371 2321.192139,3248.130371 
	C2368.511963,3248.130615 2415.831787,3248.123047 2463.151611,3248.140869 
	C2468.481201,3248.143066 2473.827637,3248.053955 2479.136230,3248.429688 
	C2485.032471,3248.847168 2487.027344,3251.115479 2487.525635,3257.411865 
	C2487.787842,3260.726562 2487.737061,3264.070557 2487.737549,3267.401367 
	C2487.761719,3398.030762 2487.779297,3528.659912 2487.767334,3659.289307 
	C2487.767090,3662.614014 2487.426025,3665.938965 2486.831055,3671.163330 
	C2481.171387,3677.957031 2474.517578,3678.690918 2467.902832,3678.757080 
	C2417.008789,3679.266602 2366.113037,3679.294678 2315.218994,3678.751953 
	C2309.913574,3678.695312 2304.672607,3677.859375 2298.394043,3673.969727 
z"/>
<path fill="#689AC5" opacity="1.000000" stroke="none" 
	d="
M2296.637695,3674.505859 
	C2358.912598,3672.668701 2420.936279,3672.636963 2484.688965,3672.834229 
	C2486.704834,3679.711182 2487.239014,3686.359131 2487.241455,3693.007324 
	C2487.291260,3818.336914 2487.278320,3943.666748 2487.277344,4068.996338 
	C2487.277344,4072.329590 2487.346680,4075.665283 2487.242920,4078.995605 
	C2486.854736,4091.458252 2486.056396,4092.538818 2473.312500,4092.568115 
	C2418.647949,4092.693848 2363.982666,4092.614746 2309.317627,4092.604248 
	C2307.985352,4092.604004 2306.649170,4092.578369 2305.321533,4092.477051 
	C2298.876221,4091.985840 2296.814453,4090.160400 2296.334229,4084.288330 
	C2296.117432,4081.635986 2296.147949,4078.959229 2296.149414,4076.293701 
	C2296.222656,3942.966064 2296.304688,3809.638672 2296.637695,3674.505859 
z"/>
<path fill="#699BC6" opacity="1.000000" stroke="none" 
	d="
M1233.635742,3651.379395 
	C1235.215698,3660.117188 1235.562134,3667.440674 1235.564087,3674.764160 
	C1235.597412,3798.719727 1235.587891,3922.675537 1235.587769,4046.631104 
	C1235.587769,4049.296875 1235.614258,4051.962646 1235.580566,4054.628174 
	C1235.359131,4072.106934 1235.355103,4072.280518 1217.800415,4072.311279 
	C1165.819214,4072.402100 1113.837646,4072.358398 1061.856323,4072.313721 
	C1057.879517,4072.310303 1053.879395,4072.077637 1049.934082,4071.593506 
	C1047.012695,4071.235107 1045.223633,4069.180908 1044.974365,4066.241455 
	C1044.637451,4062.269043 1044.425659,4058.272461 1044.426758,4054.286377 
	C1044.464966,3921.668213 1044.535156,3789.050293 1044.791870,3654.619141 
	C1050.666748,3645.924561 1058.677368,3645.199219 1066.645264,3645.126953 
	C1115.547119,3644.683105 1164.450928,3644.707520 1213.353027,3645.110840 
	C1219.977783,3645.165283 1226.596558,3645.822754 1233.635742,3651.379395 
z"/>
<path fill="#689AC5" opacity="1.000000" stroke="none" 
	d="
M1462.654175,3701.904785 
	C1524.465698,3699.969971 1586.290039,3699.907715 1649.968994,3700.003906 
	C1651.927368,3750.755371 1652.083496,3801.348389 1652.122192,3851.941162 
	C1652.173950,3919.845459 1652.145142,3987.750000 1652.117188,4055.654297 
	C1652.114746,4061.637207 1652.021729,4067.629639 1651.668457,4073.599609 
	C1651.442871,4077.411621 1648.900024,4079.506348 1645.203125,4079.800293 
	C1641.230591,4080.115967 1637.229370,4080.170654 1633.240723,4080.172363 
	C1582.645264,4080.194580 1532.049805,4080.197510 1481.454346,4080.166504 
	C1477.469727,4080.164062 1473.475464,4079.995605 1469.503906,4079.676025 
	C1465.656616,4079.366943 1463.411743,4076.873535 1463.190796,4073.236084 
	C1462.787720,4066.600830 1462.744385,4059.936768 1462.741943,4053.284912 
	C1462.699829,3936.782227 1462.686646,3820.279785 1462.654175,3701.904785 
z"/>
<path fill="#F5D244" opacity="1.000000" stroke="none" 
	d="
M2224.325928,2163.672852 
	C2232.292236,2188.003906 2238.132812,2211.208008 2241.264160,2235.044922 
	C2242.166504,2241.914062 2241.551025,2243.012695 2234.387695,2244.276123 
	C2219.980957,2246.817139 2205.531006,2249.143799 2191.054199,2251.250488 
	C2127.216553,2260.541016 2063.377197,2269.825928 1999.510498,2278.913086 
	C1938.919189,2287.533691 1878.287964,2295.871582 1817.685303,2304.412354 
	C1802.605225,2306.537598 1787.567627,2308.963867 1772.579346,2311.241211 
	C1771.430176,2306.356445 1774.516113,2304.512451 1776.883179,2302.465088 
	C1831.277222,2255.416260 1885.746704,2208.454590 1940.119019,2161.380615 
	C1983.920532,2123.458008 2027.593262,2085.386719 2071.363770,2047.428101 
	C2087.964355,2033.031616 2104.548584,2018.610596 2121.396240,2004.506348 
	C2129.471436,1997.746094 2131.495117,1998.049072 2137.716553,2005.585693 
	C2154.708008,2026.168945 2169.882324,2048.024414 2183.308838,2071.107178 
	C2200.114746,2100.000488 2213.582275,2130.363525 2224.325928,2163.672852 
z"/>
<path fill="#689BC5" opacity="1.000000" stroke="none" 
	d="
M1457.234741,2744.645996 
	C1455.243774,2738.329346 1457.427734,2733.801758 1460.452515,2729.129150 
	C1480.297852,2698.472168 1499.863403,2667.634521 1519.573975,2636.890137 
	C1565.086914,2565.898682 1610.571045,2494.888916 1656.190308,2423.965820 
	C1673.791626,2396.601562 1691.727905,2369.452637 1710.505371,2341.429688 
	C1711.755249,2347.959473 1712.232544,2355.264648 1712.234741,2362.570068 
	C1712.279053,2506.932129 1712.269653,2651.293945 1712.265503,2795.656006 
	C1712.265381,2800.312256 1712.374512,2804.977539 1712.132935,2809.622803 
	C1711.774048,2816.522217 1709.174927,2818.666992 1701.885742,2818.393311 
	C1614.407471,2815.110352 1532.820190,2792.185303 1457.234741,2744.645996 
z"/>
<path fill="#B4D1E3" opacity="1.000000" stroke="none" 
	d="
M1881.885132,3877.580078 
	C1880.152954,3870.995361 1879.790649,3865.673828 1879.790039,3860.352051 
	C1879.778564,3766.415039 1879.838013,3672.478027 1879.815674,3578.541016 
	C1879.810059,3554.968262 1879.336548,3555.909424 1903.116211,3555.928467 
	C1950.417847,3555.966309 1997.719360,3555.933838 2045.020996,3555.948486 
	C2049.682861,3555.949951 2054.359131,3555.867432 2059.002686,3556.195312 
	C2065.283203,3556.638916 2067.465820,3558.701416 2067.983887,3564.604980 
	C2068.332520,3568.576904 2068.283447,3572.590332 2068.282471,3576.585205 
	C2068.257812,3675.185303 2068.215820,3773.785156 2068.015137,3874.263184 
	C2062.761475,3881.075684 2056.332031,3882.655029 2049.605469,3882.733887 
	C1998.623291,3883.331787 1947.639038,3883.593018 1896.658203,3882.598633 
	C1891.987671,3882.507324 1887.479126,3881.348145 1881.885132,3877.580078 
z"/>
<path fill="#96B0C0" opacity="1.000000" stroke="none" 
	d="
M1760.772461,1776.935303 
	C1760.054810,1738.796875 1760.054199,1701.517334 1760.128296,1662.426514 
	C1892.278442,1660.577026 2024.353638,1660.541504 2156.428955,1660.497437 
	C2172.357422,1660.492065 2188.285889,1660.441406 2207.426025,1661.589966 
	C2218.217529,1699.794800 2215.176514,1736.992676 2210.251953,1777.207520 
	C2200.100342,1780.031860 2192.131104,1779.664551 2184.161865,1779.662354 
	C2053.188721,1779.626465 1922.215454,1779.643188 1791.242188,1779.621704 
	C1783.267456,1779.620483 1775.292603,1779.400024 1765.446167,1778.944580 
	C1762.879517,1778.336792 1762.184448,1778.065674 1760.772461,1776.935303 
z"/>
<path fill="#B4D1E3" opacity="1.000000" stroke="none" 
	d="
M1235.325684,3650.875000 
	C1226.442383,3652.540283 1217.854980,3652.062988 1209.267944,3652.070068 
	C1155.695068,3652.113281 1102.122192,3652.265137 1046.766113,3652.593506 
	C1044.689331,3646.164795 1044.146240,3639.523682 1044.141235,3632.882324 
	C1044.097168,3574.949219 1044.137451,3517.016113 1044.193481,3459.083008 
	C1044.198608,3453.765869 1044.263794,3448.430176 1044.718872,3443.138916 
	C1045.035034,3439.465332 1047.527100,3437.114990 1051.187622,3436.718262 
	C1055.143188,3436.289795 1059.152832,3436.239014 1063.139160,3436.236572 
	C1114.413330,3436.208008 1165.687378,3436.207520 1216.961548,3436.238037 
	C1220.946411,3436.240479 1224.955322,3436.310059 1228.908691,3436.748291 
	C1232.589600,3437.156250 1234.875977,3439.584717 1235.335083,3443.233887 
	C1235.748535,3446.520752 1235.809692,3449.867920 1235.807495,3453.188477 
	C1235.764771,3518.444336 1235.690063,3583.700439 1235.325684,3650.875000 
z"/>
<path fill="#699BC6" opacity="1.000000" stroke="none" 
	d="
M1880.086914,3878.151367 
	C1941.608032,3876.281006 2002.869141,3876.245117 2065.991943,3876.175293 
	C2068.193604,3882.105469 2068.821289,3888.069092 2068.829346,3894.033936 
	C2068.905273,3949.916016 2068.875000,4005.798096 2068.875488,4061.680176 
	C2068.875488,4063.676025 2068.910645,4065.672607 2068.865967,4067.667480 
	C2068.528076,4082.750977 2068.258301,4083.266846 2052.948486,4083.301758 
	C2000.392822,4083.421387 1947.836792,4083.356934 1895.281006,4083.319580 
	C1891.968628,4083.317383 1888.635010,4083.115234 1885.350708,4082.697266 
	C1882.442871,4082.326904 1880.596802,4080.332275 1880.206299,4077.500244 
	C1879.755127,4074.227539 1879.586304,4070.892090 1879.589111,4067.584229 
	C1879.642334,4005.051514 1879.739380,3942.518555 1880.086914,3878.151367 
z"/>
<path fill="#F1F2EC" opacity="1.000000" stroke="none" 
	d="
M2763.987305,1944.014648 
	C2588.985352,1944.024414 2413.999756,1944.011108 2239.014404,1943.989502 
	C2233.027100,1943.988770 2227.020020,1944.193848 2221.056885,1943.791992 
	C2212.336670,1943.204834 2208.912598,1939.940674 2208.250732,1931.637207 
	C2207.828857,1926.344727 2208.027832,1920.999023 2208.026855,1915.677246 
	C2208.018555,1871.764526 2208.028809,1827.851807 2208.051758,1782.084106 
	C2208.069580,1780.229126 2207.818604,1779.390137 2207.754150,1778.957031 
	C2220.971924,1770.936646 2234.790283,1772.399902 2250.380371,1776.994385 
	C2261.706787,1788.420776 2261.804688,1801.745483 2262.435059,1814.756958 
	C2263.416016,1835.000854 2261.779053,1855.296753 2263.763184,1877.070312 
	C2265.034668,1880.588745 2266.392090,1882.137817 2269.877197,1883.667603 
	C2313.481689,1885.896606 2355.464844,1884.708252 2397.436768,1884.788940 
	C2507.399170,1885.000488 2617.362549,1884.822021 2727.325439,1884.911377 
	C2738.596924,1884.920532 2750.047363,1883.827393 2762.614258,1889.317383 
	C2774.154053,1906.767212 2772.773438,1923.670776 2765.293945,1942.367432 
	C2764.029297,1943.946289 2764.004150,1943.990356 2763.987305,1944.014648 
z"/>
<path fill="#9CB5C3" opacity="1.000000" stroke="none" 
	d="
M1712.000000,2991.426270 
	C1582.017212,2991.426270 1454.034424,2991.428223 1326.051636,2991.421875 
	C1320.719727,2991.421631 1315.387329,2991.375732 1310.056030,2991.295410 
	C1305.216431,2991.222412 1300.967896,2989.582275 1297.256470,2986.439209 
	C1288.703247,2979.195557 1290.644775,2966.188477 1301.078003,2962.195557 
	C1304.121582,2961.030762 1307.506226,2960.456543 1310.774902,2960.248779 
	C1316.087891,2959.912109 1321.434204,2960.071533 1326.766357,2960.071289 
	C1642.057251,2960.066406 1957.348267,2960.065918 2272.639160,2960.076904 
	C2278.636719,2960.076904 2284.636475,2960.142822 2290.631104,2960.315918 
	C2295.531982,2960.457275 2299.629395,2962.595215 2303.033447,2966.021240 
	C2309.302246,2972.330566 2308.376709,2981.871094 2300.975342,2986.690430 
	C2296.429932,2989.650146 2291.431641,2991.365723 2285.922852,2991.363525 
	C2279.923828,2991.361084 2273.925049,2991.424316 2267.926025,2991.424561 
	C2083.283936,2991.428223 1898.641968,2991.427002 1712.000000,2991.426270 
z"/>
<path fill="#97AFB8" opacity="1.000000" stroke="none" 
	d="
M1760.036133,1776.897949 
	C1761.039429,1776.318726 1761.904541,1776.782471 1763.112671,1778.037842 
	C1763.574463,1778.607788 1761.854004,1779.255127 1760.934570,1779.309326 
	C1760.015137,1779.363403 1760.016602,1777.719604 1760.036133,1776.897949 
z"/>
<path fill="#6B8779" opacity="1.000000" stroke="none" 
	d="
M2256.758789,1889.135742 
	C2255.354248,1870.461304 2255.141357,1852.519043 2254.772461,1834.579712 
	C2254.417480,1817.296875 2253.901367,1800.017334 2253.073242,1781.038574 
	C2245.922363,1765.415527 2249.540283,1750.573608 2249.355713,1736.186523 
	C2249.040771,1711.643433 2248.254639,1687.067017 2249.818359,1660.598145 
	C2247.788818,1576.107300 2249.042480,1493.534668 2249.173828,1410.965088 
	C2249.180176,1406.957642 2250.032715,1403.024170 2252.487793,1397.509155 
	C2255.685791,1388.541260 2254.688965,1381.144531 2254.699707,1373.861694 
	C2254.782227,1317.218140 2254.732910,1260.574463 2254.763916,1203.930786 
	C2254.767334,1197.941040 2254.871094,1191.942505 2255.218750,1185.965088 
	C2255.437988,1182.193726 2257.812744,1179.981934 2261.588379,1179.707520 
	C2265.567627,1179.418579 2269.567871,1179.297363 2273.558838,1179.297363 
	C2577.435547,1179.297241 2881.312012,1179.316040 3185.188721,1179.342163 
	C3186.519775,1179.342285 3187.850830,1179.469482 3191.085938,1179.927002 
	C3198.399170,1190.712402 3199.019287,1201.904297 3198.997803,1213.354614 
	C3198.902100,1264.656860 3198.742920,1315.960327 3199.048096,1367.261475 
	C3199.192139,1391.445801 3201.240479,1394.762451 3225.555664,1392.605103 
	C3272.793213,1388.413818 3320.040039,1389.366333 3367.305664,1389.018555 
	C3374.616943,1388.964722 3381.972900,1388.248169 3391.037354,1390.370361 
	C3396.447021,1395.203735 3395.683838,1400.674683 3395.685059,1405.930542 
	C3395.709717,1519.744507 3395.693848,1633.558472 3395.672119,1747.372437 
	C3395.667969,1770.449463 3388.987305,1791.948364 3379.803223,1814.370361 
	C3369.753906,1849.909668 3343.699463,1868.644165 3314.386719,1883.814453 
	C3304.427490,1888.968628 3293.286133,1891.824829 3280.433105,1893.723755 
	C3274.248779,1894.132324 3270.045654,1895.978882 3263.827148,1897.333984 
	C3251.434082,1899.436646 3240.755127,1899.151123 3230.099365,1899.153809 
	C3087.482178,1899.188965 2944.865234,1899.221802 2802.248047,1899.089722 
	C2790.393311,1899.078857 2778.134766,1900.942993 2765.502441,1893.267700 
	C2755.301758,1891.775146 2746.653809,1891.269775 2738.005859,1891.265381 
	C2580.017822,1891.184814 2422.030029,1891.164429 2262.193359,1891.032959 
	C2259.523926,1890.579346 2258.703125,1890.224121 2256.758789,1889.135742 
z"/>
<path fill="#E1ECF0" opacity="1.000000" stroke="none" 
	d="
M2763.964844,1893.896240 
	C2771.900391,1891.780640 2779.851074,1891.284058 2787.801758,1891.281494 
	C2937.221924,1891.235107 3086.642090,1891.253784 3236.062256,1891.232422 
	C3245.357178,1891.231079 3254.652100,1891.012573 3265.787598,1890.724121 
	C3271.065186,1889.930542 3274.573486,1890.193237 3279.135010,1889.031494 
	C3317.561523,1882.400146 3345.686523,1862.066284 3367.698242,1832.290405 
	C3371.216553,1827.531128 3374.169922,1822.354126 3378.465576,1816.602417 
	C3382.542969,1817.906006 3383.940674,1820.645386 3383.191895,1824.339233 
	C3372.060791,1879.248291 3338.227295,1915.042358 3287.450195,1935.260498 
	C3270.337646,1942.074341 3251.533447,1944.017822 3232.834229,1944.012329 
	C3116.402344,1943.978027 2999.970459,1943.996216 2883.538574,1943.994507 
	C2844.949707,1943.993896 2806.360840,1943.986084 2765.900635,1943.963867 
	C2764.012695,1927.879272 2763.996338,1911.812134 2763.964844,1893.896240 
z"/>
<path fill="#F1D045" opacity="1.000000" stroke="none" 
	d="
M3392.356934,1389.383057 
	C3387.766846,1396.613525 3380.657471,1394.865601 3374.220459,1394.986206 
	C3344.238281,1395.547241 3314.245117,1395.587646 3284.267334,1396.297363 
	C3261.642090,1396.833008 3239.035156,1398.123535 3216.417969,1399.019165 
	C3211.759521,1399.203735 3207.083984,1399.308838 3202.428223,1399.130859 
	C3194.583740,1398.831055 3192.872559,1397.172363 3192.340576,1389.892456 
	C3192.195312,1387.901733 3192.204346,1385.896851 3192.207275,1383.898560 
	C3192.303711,1317.260986 3192.407471,1250.623535 3192.750000,1182.151367 
	C3198.215088,1182.260254 3201.306641,1186.758911 3204.902344,1190.549438 
	C3251.372070,1239.535034 3297.777100,1288.582031 3344.175049,1337.635498 
	C3360.090088,1354.461304 3375.941406,1371.347656 3392.356934,1389.383057 
z"/>
<path fill="#E1ECF0" opacity="1.000000" stroke="none" 
	d="
M2251.585693,1395.785156 
	C2255.344971,1400.765381 2254.848145,1406.147339 2254.846680,1411.449097 
	C2254.823730,1492.700439 2254.765869,1573.951660 2254.585449,1656.990479 
	C2241.200928,1671.114868 2226.130371,1667.136108 2209.396484,1662.739014 
	C2207.683350,1661.873657 2207.721191,1660.984741 2207.834961,1660.555420 
	C2207.972412,1581.811890 2207.993652,1503.497681 2208.024414,1425.183472 
	C2208.026611,1419.874634 2207.828125,1414.546509 2208.203369,1409.261353 
	C2208.876221,1399.782959 2212.123779,1396.615234 2222.094727,1396.175293 
	C2231.370605,1395.765991 2240.672852,1395.965454 2251.585693,1395.785156 
z"/>
<path fill="#F3F3F3" opacity="1.000000" stroke="none" 
	d="
M2800.114990,2548.000000 
	C2800.114990,2475.361572 2800.095703,2404.723145 2800.124756,2334.084717 
	C2800.135498,2308.400879 2800.188477,2308.318115 2825.473145,2308.316650 
	C3164.670654,2308.297852 3503.868408,2308.297119 3843.065918,2308.318604 
	C3867.320312,2308.320068 3867.773193,2308.764404 3867.776367,2332.731689 
	C3867.803955,2542.647705 3867.792480,2752.563721 3867.789551,2962.479736 
	C3867.789551,2965.811523 3867.884521,2969.150879 3867.703857,2972.473877 
	C3867.188965,2981.940186 3865.524902,2983.541992 3855.406738,2983.963623 
	C3850.084229,2984.185303 3844.746094,2984.049316 3839.415039,2984.049316 
	C3502.216553,2984.051514 3165.018311,2984.053223 2827.819824,2984.037842 
	C2821.159180,2984.037598 2814.488281,2984.023682 2807.841064,2983.665771 
	C2803.159668,2983.413330 2800.675293,2980.341064 2800.445557,2975.818848 
	C2800.141846,2969.834717 2800.127441,2963.831543 2800.126709,2957.836670 
	C2800.111328,2821.891113 2800.114746,2685.945557 2800.114990,2548.000000 
z"/>
<path fill="#FFFFF5" opacity="1.000000" stroke="none" 
	d="
M3280.299805,3728.000000 
	C3280.298096,3767.309326 3280.388428,3804.618896 3280.253174,3841.927734 
	C3280.189453,3859.534180 3279.940186,3859.822021 3262.322754,3859.835205 
	C3156.390869,3859.914307 3050.459229,3859.876465 2944.527344,3859.877197 
	C2913.880371,3859.877441 2883.233398,3859.882080 2852.586426,3859.872803 
	C2847.923340,3859.871338 2843.249023,3860.000488 2838.599609,3859.728271 
	C2830.288574,3859.241943 2828.680176,3857.437988 2828.208740,3848.483154 
	C2828.033691,3845.160400 2828.127441,3841.822510 2828.127197,3838.491455 
	C2828.124268,3732.559570 2828.100098,3626.627686 2828.145752,3520.695801 
	C2828.154785,3499.839355 2828.279785,3499.710938 2849.037842,3499.704834 
	C2985.616699,3499.664062 3122.195557,3499.682617 3258.774414,3499.685791 
	C3262.105469,3499.685791 3265.444092,3499.590332 3268.766113,3499.776367 
	C3278.169189,3500.303223 3279.782959,3501.995605 3280.211182,3512.139160 
	C3280.435547,3517.460205 3280.297119,3522.797363 3280.297363,3528.127197 
	C3280.300781,3594.084717 3280.299561,3660.042480 3280.299805,3728.000000 
z"/>
<path fill="#FEFEF5" opacity="1.000000" stroke="none" 
	d="
M3420.006836,3500.369629 
	C3554.627686,3500.369629 3687.250000,3500.426270 3819.872070,3500.321777 
	C3846.891113,3500.300293 3847.825195,3499.768311 3847.605713,3527.746094 
	C3847.339355,3561.732422 3847.544434,3595.722656 3847.539795,3629.711182 
	C3847.539307,3633.709717 3847.693359,3637.719971 3847.449219,3641.704590 
	C3846.519531,3656.863281 3843.565430,3659.767822 3827.762207,3659.802979 
	C3775.779785,3659.919189 3723.797119,3659.850098 3671.814453,3659.850342 
	C3573.180908,3659.850830 3474.547363,3659.841553 3375.913818,3659.855469 
	C3350.645264,3659.859131 3351.765869,3661.066406 3351.782715,3636.067383 
	C3351.807617,3598.746582 3351.788330,3561.425781 3351.790283,3524.104980 
	C3351.790283,3520.772949 3351.711182,3517.437256 3351.833008,3514.109375 
	C3352.281982,3501.859375 3353.336670,3500.625732 3366.026367,3500.449951 
	C3383.350586,3500.209961 3400.680420,3500.376709 3420.006836,3500.369629 
z"/>
<path fill="#FEFFF5" opacity="1.000000" stroke="none" 
	d="
M3480.000000,3700.114990 
	C3593.257080,3700.114990 3704.514404,3700.125732 3815.771484,3700.107422 
	C3841.458008,3700.103271 3840.136719,3698.999268 3840.130859,3723.623535 
	C3840.122314,3760.265137 3840.150879,3796.906738 3840.103760,3833.548340 
	C3840.096924,3838.864258 3839.965820,3844.198242 3839.499756,3849.489258 
	C3839.171875,3853.213623 3836.570312,3855.479492 3832.952148,3855.831055 
	C3828.326172,3856.280518 3823.649170,3856.337646 3818.994141,3856.338379 
	C3667.764404,3856.361816 3516.534424,3856.374756 3365.304688,3856.337402 
	C3344.510986,3856.332275 3344.414795,3856.206299 3344.372559,3835.307373 
	C3344.297363,3797.999512 3344.344727,3760.691895 3344.360352,3723.384033 
	C3344.362061,3719.389160 3344.240234,3715.369385 3344.623779,3711.404541 
	C3345.357422,3703.825439 3348.386230,3700.881348 3356.089355,3700.311279 
	C3360.730469,3699.968262 3365.411133,3700.123047 3370.073975,3700.121582 
	C3406.049316,3700.109863 3442.024658,3700.114990 3480.000000,3700.114990 
z"/>
<path fill="#F9FCF4" opacity="1.000000" stroke="none" 
	d="
M3080.000000,3420.301758 
	C3327.098633,3420.302002 3572.197021,3420.301025 3817.295654,3420.306641 
	C3823.289551,3420.306641 3829.300537,3420.104980 3835.272949,3420.484131 
	C3843.959229,3421.035400 3846.951660,3424.259033 3847.445312,3433.025635 
	C3847.594238,3435.670166 3847.510498,3438.370605 3847.144531,3440.991211 
	C3846.639648,3444.607910 3844.515137,3447.293701 3840.774170,3447.544189 
	C3834.145020,3447.988037 3827.483398,3448.095459 3820.835449,3448.096191 
	C3567.078613,3448.120605 3313.321533,3448.116699 3059.564697,3448.116699 
	C2992.295654,3448.116699 2925.026855,3448.116943 2857.757812,3448.116211 
	C2853.095703,3448.116211 2848.431396,3448.195801 2843.771484,3448.092041 
	C2829.249756,3447.768799 2827.645020,3446.086426 2828.134033,3431.992920 
	C2828.459717,3422.605957 2830.277588,3420.766846 2840.229492,3420.378906 
	C2845.550049,3420.171143 2850.884277,3420.303467 2856.212402,3420.303223 
	C2930.141602,3420.300537 3004.070801,3420.301514 3080.000000,3420.301758 
z"/>
<path fill="#CDDBA7" opacity="1.000000" stroke="none" 
	d="
M2899.830566,3108.858154 
	C2899.811523,3126.005127 2899.980713,3141.255127 2899.700439,3156.496826 
	C2899.538818,3165.295654 2897.542969,3167.572510 2889.354492,3167.669434 
	C2868.147461,3167.921387 2846.932861,3167.873535 2825.725830,3167.604248 
	C2818.809082,3167.516357 2816.533936,3165.033203 2816.435303,3157.498047 
	C2816.176270,3137.615967 2816.089355,3117.724121 2816.426270,3097.844482 
	C2816.592041,3088.071289 2819.986084,3084.685059 2829.783447,3084.490234 
	C2848.336426,3084.120605 2866.906494,3084.108398 2885.459961,3084.455322 
	C2896.387451,3084.659180 2898.646973,3087.366943 2899.749268,3099.006348 
	C2899.998291,3101.635742 2899.814941,3104.306152 2899.830566,3108.858154 
z"/>
<path fill="#699BC6" opacity="1.000000" stroke="none" 
	d="
M2856.050537,3204.210938 
	C2868.641846,3204.260010 2879.288574,3204.094727 2889.919189,3204.431641 
	C2897.148682,3204.660645 2899.363525,3206.825684 2899.460205,3214.299072 
	C2899.718018,3234.246826 2899.772705,3254.201904 2899.498047,3274.148682 
	C2899.371582,3283.315186 2896.234619,3287.011719 2888.014160,3287.168945 
	C2868.071045,3287.550049 2848.112061,3287.516357 2828.166992,3287.187500 
	C2820.506836,3287.061523 2816.852295,3283.569824 2816.747070,3276.186768 
	C2816.443359,3254.913330 2816.548096,3233.630127 2816.818359,3212.354736 
	C2816.888916,3206.806885 2819.666504,3204.640381 2826.172119,3204.423828 
	C2835.473389,3204.114258 2844.789307,3204.259521 2856.050537,3204.210938 
z"/>
<path fill="#FEFEF5" opacity="1.000000" stroke="none" 
	d="
M3139.968262,3240.043457 
	C3155.953125,3240.060547 3169.950195,3239.891113 3183.938477,3240.158691 
	C3193.456299,3240.341064 3195.623047,3242.855957 3195.595947,3252.123291 
	C3195.568848,3261.403564 3193.443359,3263.643555 3183.845215,3264.052734 
	C3179.188477,3264.251221 3174.517822,3264.131348 3169.853516,3264.131592 
	C3108.549561,3264.134766 3047.245605,3264.135010 2985.941650,3264.131592 
	C2981.277344,3264.131348 2976.605957,3264.252686 2971.949951,3264.049072 
	C2962.450928,3263.633545 2960.319580,3261.344727 2960.317871,3252.022217 
	C2960.316162,3242.769531 2962.440674,3240.403320 2972.057617,3240.147461 
	C2982.046143,3239.881348 2992.046631,3240.046387 3002.041748,3240.045410 
	C3047.353271,3240.040283 3092.665039,3240.043457 3139.968262,3240.043457 
z"/>
<path fill="#FEFEF5" opacity="1.000000" stroke="none" 
	d="
M3182.828613,3111.813477 
	C3187.325684,3111.959229 3189.998535,3111.940918 3192.624268,3112.283936 
	C3196.330811,3112.768311 3198.653564,3115.073975 3199.115967,3118.729248 
	C3200.661865,3130.949707 3196.207275,3136.051514 3185.893799,3135.899414 
	C3181.902588,3135.840576 3177.909180,3135.952881 3173.916748,3135.953369 
	C3112.030762,3135.957520 3050.145020,3135.957031 2988.259033,3135.954102 
	C2984.266357,3135.953857 2980.268311,3136.056396 2976.282227,3135.885010 
	C2965.926758,3135.439941 2963.750000,3132.947510 2964.191406,3122.361328 
	C2964.499512,3114.973145 2966.537598,3112.484131 2973.373535,3112.046631 
	C2978.677734,3111.706787 2984.014160,3111.818604 2989.336426,3111.817627 
	C3053.218750,3111.805908 3117.100830,3111.810303 3182.828613,3111.813477 
z"/>
<path fill="#FBFCEF" opacity="1.000000" stroke="none" 
	d="
M1628.000000,912.372864 
	C1689.940674,912.373108 1749.881348,912.418945 1809.822021,912.349609 
	C1833.168091,912.322571 1832.272339,911.938416 1831.877686,936.046143 
	C1831.715332,945.957703 1830.011841,947.416199 1820.004028,947.813721 
	C1814.683838,948.025208 1809.349365,947.890381 1804.021362,947.890381 
	C1506.315918,947.892395 1208.610474,947.892700 910.905029,947.887695 
	C904.911377,947.887573 898.904175,948.063293 892.927307,947.728577 
	C884.271179,947.243896 881.532532,944.241821 880.764282,935.229614 
	C880.707764,934.566589 880.693237,933.899658 880.670654,933.234070 
	C880.054260,915.053833 882.957825,911.697205 900.718323,912.348633 
	C905.374023,912.519409 910.041443,912.372070 914.703491,912.372070 
	C1151.802368,912.372131 1388.901123,912.372314 1628.000000,912.372864 
z"/>
<path fill="#FEFFF5" opacity="1.000000" stroke="none" 
	d="
M1152.000000,1200.016968 
	C1070.684814,1200.016968 991.369690,1200.017334 912.054565,1200.015991 
	C907.388977,1200.015991 902.720093,1200.114624 898.058472,1199.974243 
	C884.791565,1199.575195 883.832886,1198.493652 883.755127,1184.468384 
	C883.669006,1168.940796 884.610046,1167.884155 900.852539,1167.721191 
	C917.513733,1167.554077 934.177917,1167.678345 950.840759,1167.678345 
	C1234.109131,1167.677979 1517.377441,1167.678101 1800.645874,1167.678711 
	C1805.978027,1167.678711 1811.312622,1167.581299 1816.641724,1167.709839 
	C1830.638916,1168.047363 1831.689087,1169.087891 1831.919434,1182.273804 
	C1831.942749,1183.606445 1831.941284,1184.940308 1831.912231,1186.272705 
	C1831.646851,1198.445679 1830.525269,1199.591064 1817.847046,1199.967285 
	C1812.519409,1200.125488 1807.183594,1200.015747 1801.851562,1200.015869 
	C1585.901001,1200.017090 1369.950562,1200.016968 1152.000000,1200.016968 
z"/>
<path fill="#FBFCEF" opacity="1.000000" stroke="none" 
	d="
M1580.000000,695.742920 
	C1355.399902,695.742920 1132.799683,695.746399 910.199524,695.727722 
	C903.540771,695.727173 896.860535,695.778320 890.230042,695.278381 
	C884.924316,694.878296 881.606262,691.664307 881.219238,686.309875 
	C880.790283,680.374146 880.839233,674.328308 881.476746,668.416321 
	C881.939209,664.127869 885.117432,661.252563 889.531494,660.788757 
	C894.154175,660.303162 898.838379,660.266907 903.495728,660.266541 
	C1155.420410,660.244568 1407.345215,660.235596 1659.269897,660.268433 
	C1679.982666,660.271179 1680.330444,660.772217 1679.715210,681.642578 
	C1679.656372,683.639954 1679.628052,685.643372 1679.441895,687.630615 
	C1679.016357,692.178650 1676.614136,695.084351 1671.961548,695.414001 
	C1667.315552,695.743042 1662.639893,695.726013 1657.977051,695.730835 
	C1632.651367,695.757141 1607.325684,695.743225 1580.000000,695.742920 
z"/>
<path fill="#D8EAEE" opacity="1.000000" stroke="none" 
	d="
M1025.025146,1716.941406 
	C1026.773926,1704.132080 1036.235962,1703.539307 1045.750854,1703.757446 
	C1058.185791,1704.042847 1065.554321,1709.993774 1068.853760,1721.589355 
	C1071.806519,1731.966919 1067.856079,1743.437500 1059.185669,1749.661743 
	C1048.927856,1757.025391 1038.189453,1756.761230 1028.037476,1749.051880 
	C1023.014465,1745.237305 1020.801819,1739.987183 1018.877380,1734.164795 
	C1016.760132,1727.759277 1018.329346,1722.526489 1022.904236,1716.641113 
	C1029.795776,1721.020264 1029.251953,1729.435303 1034.130249,1734.965210 
	C1038.530518,1739.953369 1043.706543,1741.963379 1049.906006,1738.416504 
	C1054.210693,1735.953491 1057.062622,1732.186646 1056.154297,1727.065674 
	C1054.961426,1720.340088 1050.261230,1717.104492 1043.624023,1716.577515 
	C1037.733398,1716.109497 1032.146240,1720.087036 1025.025146,1716.941406 
z"/>
<path fill="#D8EAEE" opacity="1.000000" stroke="none" 
	d="
M873.439453,1742.445190 
	C864.312927,1740.005127 863.775635,1732.945190 864.076172,1725.451294 
	C864.332581,1719.057983 867.696777,1714.435425 871.918152,1710.073242 
	C876.888489,1704.937500 882.963623,1703.490234 889.837402,1703.609131 
	C897.331787,1703.739014 904.419434,1704.331787 907.586792,1714.715454 
	C880.586060,1714.738037 880.586060,1714.738037 873.439453,1742.445190 
z"/>
<path fill="#D8EAEE" opacity="1.000000" stroke="none" 
	d="
M906.074890,1742.647705 
	C893.744568,1758.006714 890.436951,1758.239746 872.295715,1745.634521 
	C871.587341,1744.459106 872.233948,1743.785034 872.561218,1743.451904 
	C882.881958,1737.999756 893.472717,1741.500610 906.074890,1742.647705 
z"/>
<path fill="#D8EAEE" opacity="1.000000" stroke="none" 
	d="
M982.784668,1713.539551 
	C991.101929,1715.404663 992.305054,1721.700195 992.204285,1728.706543 
	C992.092957,1736.440186 990.002747,1743.127075 980.836914,1747.188232 
	C976.632385,1736.106689 982.194397,1726.119629 982.784668,1713.539551 
z"/>
<path fill="#D8EAEE" opacity="1.000000" stroke="none" 
	d="
M980.122864,1748.166260 
	C963.933289,1757.865723 960.632446,1757.356445 948.492554,1741.142822 
	C959.049316,1738.479614 967.949280,1742.078857 978.051819,1746.207520 
	C979.165466,1747.116577 979.806824,1747.813599 980.122864,1748.166260 
z"/>
<path fill="#D8EAEE" opacity="1.000000" stroke="none" 
	d="
M947.470581,1740.444824 
	C937.688843,1728.051392 937.775757,1726.170898 949.715088,1711.561768 
	C951.812744,1711.595703 952.607666,1712.124023 953.981995,1713.964844 
	C955.252930,1723.037109 953.699524,1730.402954 949.646484,1738.514282 
	C948.632507,1739.520386 947.855469,1740.133667 947.470581,1740.444824 
z"/>
<path fill="#D8EAEE" opacity="1.000000" stroke="none" 
	d="
M951.415161,1711.448486 
	C952.609436,1709.144897 953.877686,1706.040039 955.847717,1705.501343 
	C965.172180,1702.951782 974.685913,1701.121704 983.596191,1710.262695 
	C984.431519,1711.516968 983.815491,1712.165649 983.503296,1712.485840 
	C974.040344,1718.076904 964.464050,1714.535767 953.818665,1713.384277 
	C952.596497,1712.603027 951.812500,1711.829712 951.415161,1711.448486 
z"/>
<path fill="#D8EAEE" opacity="1.000000" stroke="none" 
	d="
M908.594482,1715.493652 
	C918.501526,1723.797485 918.371399,1733.024048 909.536682,1743.521484 
	C908.365112,1744.317871 907.787170,1743.775879 907.501831,1743.501099 
	C901.049500,1735.699951 901.535034,1727.571167 906.245361,1717.798096 
	C907.452393,1716.426880 908.216248,1715.807739 908.594482,1715.493652 
z"/>
<path fill="#97AFB8" opacity="1.000000" stroke="none" 
	d="
M2207.805664,1663.579102 
	C2222.019043,1658.401733 2236.706543,1661.797729 2252.782471,1659.213623 
	C2256.684082,1672.683716 2255.368896,1686.689941 2255.541260,1700.647583 
	C2255.771729,1719.292847 2255.647461,1737.943359 2255.571533,1756.591187 
	C2255.544678,1763.217041 2256.340820,1769.941650 2253.265625,1777.851196 
	C2238.912109,1779.344116 2225.133789,1779.347534 2209.522705,1778.937378 
	C2207.769043,1740.777466 2207.848389,1703.030884 2207.805664,1663.579102 
z"/>
<path fill="#97AFB8" opacity="1.000000" stroke="none" 
	d="
M2256.059082,1889.343750 
	C2256.918457,1888.411621 2258.069092,1888.806152 2259.716309,1890.260254 
	C2259.057373,1890.718018 2257.770020,1890.501465 2256.059082,1889.343750 
z"/>
<path fill="#F3F3F3" opacity="1.000000" stroke="none" 
	d="
M2448.546387,1541.148438 
	C2442.626953,1541.009521 2438.617676,1541.084717 2434.659912,1540.668457 
	C2430.956787,1540.278931 2428.641846,1537.930664 2428.502197,1534.147339 
	C2428.306152,1528.836304 2428.302734,1523.507935 2428.488770,1518.196533 
	C2428.621826,1514.395630 2430.928711,1512.070068 2434.678711,1511.781616 
	C2439.314941,1511.424683 2443.982666,1511.375854 2448.636963,1511.375488 
	C2681.716064,1511.358154 2914.795410,1511.360352 3147.874512,1511.360596 
	C3149.872314,1511.360596 3151.870850,1511.329224 3153.867676,1511.373779 
	C3168.768311,1511.706177 3169.605957,1512.566284 3169.434814,1527.261230 
	C3169.290283,1539.674683 3168.312988,1540.727905 3155.709229,1541.091431 
	C3149.720459,1541.264282 3143.722900,1541.146484 3137.729492,1541.146484 
	C2908.645996,1541.147949 2679.562500,1541.147949 2448.546387,1541.148438 
z"/>
<path fill="#F3F3F3" opacity="1.000000" stroke="none" 
	d="
M2844.000000,1688.579834 
	C2713.482910,1688.579956 2584.966064,1688.579956 2456.448975,1688.578247 
	C2451.121826,1688.578247 2445.790771,1688.692139 2440.468506,1688.525879 
	C2429.168213,1688.172852 2428.343018,1687.241333 2428.165039,1675.615112 
	C2427.919678,1659.602661 2428.441406,1658.827148 2444.775146,1658.817871 
	C2571.960449,1658.745728 2699.145508,1658.775269 2826.330811,1658.774414 
	C2930.875732,1658.773682 3035.420654,1658.774170 3139.965576,1658.774780 
	C3144.626709,1658.774902 3149.290039,1658.693115 3153.948730,1658.801880 
	C3168.565186,1659.143188 3169.596680,1660.247192 3169.433838,1674.921997 
	C3169.296631,1687.292480 3168.431885,1688.404175 3155.638672,1688.504639 
	C3131.002197,1688.698242 3106.363281,1688.577759 3081.725342,1688.578491 
	C3003.150146,1688.581055 2924.575195,1688.579590 2844.000000,1688.579834 
z"/>
<path fill="#EBEDEC" opacity="1.000000" stroke="none" 
	d="
M2764.000000,1395.122559 
	C2690.739746,1395.122437 2619.479492,1395.154053 2548.219238,1395.103271 
	C2528.534668,1395.089355 2528.022461,1394.446533 2528.844727,1375.054199 
	C2529.256836,1365.338745 2530.485596,1364.132812 2540.943848,1363.773804 
	C2545.600342,1363.614014 2550.266602,1363.722534 2554.928467,1363.722412 
	C2751.393555,1363.721069 2947.858887,1363.721191 3144.323975,1363.721436 
	C3148.319824,1363.721436 3152.317383,1363.652954 3156.311523,1363.739258 
	C3169.944092,1364.034058 3170.628906,1364.769897 3170.736084,1378.769531 
	C3170.855469,1394.386719 3170.312256,1395.086670 3153.602539,1395.093384 
	C3024.401611,1395.145874 2895.200928,1395.122803 2764.000000,1395.122559 
z"/>
<path fill="#97AFB8" opacity="1.000000" stroke="none" 
	d="
M3278.927246,1888.125488 
	C3277.462646,1891.177246 3274.001709,1891.776367 3268.935059,1890.970825 
	C3270.496826,1887.948730 3274.015869,1887.790649 3278.927246,1888.125488 
z"/>
<path fill="#689AC5" opacity="1.000000" stroke="none" 
	d="
M3771.404785,2428.646973 
	C3791.259033,2432.608398 3799.309082,2444.270264 3801.053711,2462.515137 
	C3802.771240,2480.480225 3803.006104,2498.225342 3801.745361,2516.252441 
	C3800.121338,2539.473877 3800.931396,2562.854004 3799.844971,2586.126221 
	C3794.626465,2697.916992 3797.477783,2809.779297 3796.536621,2921.606445 
	C3796.289795,2950.938721 3799.240479,2947.924805 3769.311035,2947.874512 
	C3702.721924,2947.762207 3636.094238,2948.723145 3569.552490,2946.810303 
	C3438.414795,2943.041260 3307.221436,2946.137451 3176.121582,2942.756836 
	C3077.596436,2940.216064 2979.078613,2941.020020 2880.565674,2939.638428 
	C2859.365723,2939.341064 2860.245850,2939.971436 2860.256592,2918.303955 
	C2860.283691,2865.031982 2860.739746,2811.753662 2860.064697,2758.490234 
	C2859.729980,2732.087158 2867.620605,2708.812988 2881.767090,2687.149902 
	C2884.676514,2682.694580 2887.886719,2678.435547 2891.569336,2672.843506 
	C2928.109863,2614.452148 3016.073730,2590.241211 3080.064453,2619.803467 
	C3095.855713,2627.098389 3109.795898,2637.387939 3124.423340,2646.578369 
	C3194.770020,2690.776611 3274.426025,2671.569580 3317.465088,2600.741455 
	C3333.378418,2574.553711 3342.676758,2545.022705 3360.303955,2519.731689 
	C3380.370117,2490.940918 3403.100342,2466.876953 3443.117432,2467.108887 
	C3453.226807,2467.742188 3461.918457,2467.363525 3470.460693,2468.320557 
	C3487.088135,2470.182373 3503.196289,2474.351562 3517.056152,2484.227539 
	C3529.476318,2493.076904 3541.514160,2502.474121 3553.544678,2511.855225 
	C3563.497314,2519.615967 3573.261719,2527.599121 3586.618164,2532.488281 
	C3621.637939,2536.558594 3643.201904,2519.193604 3659.753418,2492.460938 
	C3677.252930,2464.197754 3703.089600,2446.083008 3733.296631,2433.644043 
	C3745.015137,2428.818848 3756.914795,2424.316406 3771.404785,2428.646973 
z"/>
<path fill="#CDDBA7" opacity="1.000000" stroke="none" 
	d="
M3443.754395,2466.293701 
	C3441.522461,2468.745117 3438.543945,2470.553711 3435.346924,2471.111084 
	C3402.657959,2476.810547 3380.853271,2497.242432 3364.151611,2524.122559 
	C3354.346680,2539.902344 3345.822021,2556.378906 3338.411377,2573.541260 
	C3329.722168,2593.666504 3319.057373,2613.056152 3304.323242,2629.490479 
	C3263.522217,2674.998779 3189.781982,2694.862061 3124.728516,2653.621826 
	C3115.191895,2647.575928 3105.936035,2641.087891 3096.410889,2635.023682 
	C3070.413574,2618.473145 3041.831055,2609.901367 3011.210205,2612.677002 
	C2971.922119,2616.238525 2936.347412,2629.975586 2907.347656,2657.950684 
	C2903.043213,2662.102783 2898.766357,2666.283447 2893.328613,2671.025879 
	C2895.122559,2645.628418 2904.166260,2622.473877 2924.868896,2605.493164 
	C2946.532959,2587.723389 2971.805176,2578.205566 2999.682129,2576.080078 
	C3009.612305,2575.322998 3019.674072,2575.379395 3029.619629,2575.985840 
	C3040.561035,2576.653564 3051.088623,2574.265381 3060.879150,2570.666504 
	C3081.755615,2562.993164 3093.760254,2546.496094 3099.611328,2525.565918 
	C3104.444336,2508.277588 3106.000488,2490.358887 3107.796875,2472.579102 
	C3109.204590,2458.649170 3111.262695,2444.882812 3115.586426,2431.633057 
	C3127.551758,2394.965088 3154.789551,2375.701660 3191.150391,2368.695557 
	C3209.026123,2365.251221 3225.547363,2372.442383 3239.826660,2382.686279 
	C3250.004639,2389.987793 3258.842041,2399.250732 3265.265625,2410.470459 
	C3273.848145,2425.461670 3282.643066,2440.338379 3291.704834,2455.043701 
	C3294.456543,2459.509277 3297.872803,2463.867920 3301.878174,2467.202881 
	C3316.045410,2479.000977 3331.710693,2483.543213 3350.099121,2477.328613 
	C3363.459961,2472.812744 3375.164795,2464.837891 3388.272461,2460.179688 
	C3406.946777,2453.543701 3425.808350,2451.142822 3443.754395,2466.293701 
z"/>
<path fill="#CDDBA7" opacity="1.000000" stroke="none" 
	d="
M3772.516113,2427.847656 
	C3757.313477,2432.026611 3741.874756,2434.743896 3727.312500,2441.695312 
	C3702.303955,2453.633789 3681.343506,2470.015137 3665.596191,2492.939941 
	C3660.363037,2500.557861 3655.126221,2508.209961 3649.338379,2515.401611 
	C3639.969238,2527.043945 3628.257324,2534.750000 3613.149902,2537.839600 
	C3604.618652,2539.584229 3597.614746,2536.728027 3589.070801,2533.650635 
	C3596.859131,2516.033691 3599.439697,2497.485107 3603.916016,2479.505859 
	C3606.474854,2469.226318 3608.677734,2458.852295 3611.453369,2448.633301 
	C3617.599365,2426.007080 3630.197754,2407.108154 3648.978027,2393.635986 
	C3682.097168,2369.878418 3722.924316,2369.363525 3753.562256,2396.456055 
	C3762.460693,2404.324707 3768.802979,2414.833496 3772.516113,2427.847656 
z"/>
<path fill="#96B0C0" opacity="1.000000" stroke="none" 
	d="
M1023.963501,1716.035156 
	C1028.986816,1716.499512 1032.644287,1713.147949 1036.671875,1711.072876 
	C1045.410034,1706.570801 1052.049683,1710.513428 1058.228882,1715.981812 
	C1063.056641,1720.254028 1065.227295,1726.056030 1063.099243,1732.192383 
	C1060.373779,1740.051025 1054.978516,1745.918091 1046.380737,1747.527100 
	C1037.536743,1749.182251 1026.983521,1741.242920 1024.702271,1731.046631 
	C1023.853271,1727.252075 1024.459473,1723.132080 1024.228760,1717.548584 
	C1024.055420,1715.936768 1023.996033,1716.003174 1023.963501,1716.035156 
z"/>
<path fill="#96B0C0" opacity="1.000000" stroke="none" 
	d="
M906.231201,1715.740479 
	C908.595093,1724.268066 908.618713,1732.112061 907.364624,1741.592651 
	C905.949341,1743.431519 904.520691,1743.327271 903.440247,1743.890503 
	C894.134705,1748.742920 884.932251,1748.041138 874.312805,1743.381836 
	C872.445984,1738.494507 871.610596,1733.868774 871.631165,1729.246704 
	C871.707031,1712.201904 883.780396,1704.863159 899.940491,1711.914185 
	C901.743774,1712.700928 903.325562,1713.995239 906.231201,1715.740479 
z"/>
<path fill="#96B0C0" opacity="1.000000" stroke="none" 
	d="
M952.155334,1714.054199 
	C961.813049,1707.515137 971.079285,1708.203125 981.783264,1712.585083 
	C983.281738,1713.461670 983.221069,1714.186401 983.485229,1714.762329 
	C988.367920,1725.406372 986.578430,1735.243774 979.566040,1745.817871 
	C968.992981,1748.822754 959.367249,1748.024292 949.867432,1740.255737 
	C947.498657,1731.238037 947.199829,1723.062866 952.155334,1714.054199 
z"/>
</svg>